<?xml version="1.0" standalone="no"?>
<!DOCTYPE svg PUBLIC "-//W3C//DTD SVG 1.1//EN" "http://www.w3.org/Graphics/SVG/1.1/DTD/svg11.dtd" >
<svg xmlns="http://www.w3.org/2000/svg" xmlns:xlink="http://www.w3.org/1999/xlink" version="1.1">
<metadata></metadata>
<defs>
<font id="roughtypewriterregular" horiz-adv-x="1228" >
<font-face units-per-em="2048" ascent="1638" descent="-410" />
<missing-glyph horiz-adv-x="680" />
<glyph horiz-adv-x="1024" />
<glyph horiz-adv-x="1024" />
<glyph horiz-adv-x="682" />
<glyph unicode=" "  horiz-adv-x="680" />
<glyph unicode="&#x09;" horiz-adv-x="680" />
<glyph unicode="&#xa0;" horiz-adv-x="680" />
<glyph unicode="!" horiz-adv-x="601" d="M218 814q7 -38 11 -48q2 -9 8 -25t7 -19v-1q-16 -19 -20 -35l-20 296q-4 4 -5 13q0 3 3 6v5q-7 6 -1 14l-1 25q-5 -9 -14 -3q-5 4 -4 9.5t6 7t11 -1.5l-5 86q-4 51 31 83q30 26 72 27v1q0 1 -1 2q-5 8 1.5 13t13.5 0q3 -5 2 -9l4 4q26 15 53 15q6 0 16 -2q11 -28 24 -50 q-17 -9 -18 -22.5t7 -24.5t19 -27.5t13 -27.5q0 -1 1.5 -3.5t2.5 -4.5q-20 -60 -19 -79q0 -14 15 -27q-24 -94 -24 -138q-17 -158 -12 -406q-13 -7 -26 -3v-3q-5 -65 -65 -65t-65 65l-7 100q19 2 20 23q0 14 -1 28.5t-1.5 20t2 14.5t9.5 21q2 5 9 14t11 17.5t4 16.5 q2 18 -11.5 52.5t-15.5 47.5q-6 17 -21 16.5t-19 -18.5zM391 239v-3q0 -2 1 -3v-1q4 -17 22 -28q4 -4 9.5 -8t7.5 -6q5 -20 5 -63q2 -11 8 -16q-2 -17 11 -23.5t25 8.5q2 4 13 19l3 -18q-4 -38 -35 -43v-6q-23 10 -45 -12t-5 -48q-2 0 -2.5 -1t-2.5 -1q-11 -5 -14 -13 q-1 2 -1 5q-10 -1 -13 5l-6 -3t-6 -4q-8 -3 -17 -4.5t-19.5 -2.5t-16.5 -2q-15 2 -25 10q-20 1 -39 6l-2 2l-6 3q-2 5 -4 15.5t-5 17.5q-9 16 -30 25q1 20 -13 82q12 8 13.5 30.5t8.5 29.5q15 19 38.5 29t41.5 26q2 2 2 3l21 6q1 -1 5 -1q59 -6 72 -11v-1zM341 -152l-3 2 q8 8 17 14q11 -5 21 2.5t7 19.5q11 9 16 11q3 -10 2 -18q-2 -24 -19.5 -35t-40.5 4zM161 51q-7 -1 -10 -6q-1 1 -9 14q8 33 13 46q12 -41 6 -54zM434 618q0 -9 -1 -14v30q1 -5 1 -16zM409 -53l-1 1h5v-1h-4z" />
<glyph unicode="&#x22;" d="M557 1020q11 -18 8.5 -36t-15.5 -28q6 -10 -7 -16q3 -5 0.5 -10t-7.5 -5.5t-9 4.5h-1q4 -28 -13 -42l-1 -9q5 -13 -2 -21l-2 -23q-6 -65 -65 -65t-65 65l-32 342q-4 45 27 72q29 24 70 24q43 0 71 -24q32 -27 27 -72l-15 -147q15 1 31 -9zM888 901q16 -25 2.5 -50 t-38.5 -19q-8 -63 -65 -63q-59 0 -65 65l-33 342q-5 45 27 72q28 24 71 24q41 0 70 -24q31 -27 27 -72l-23 -242q8 -2 8 -11v-2q-1 -9 -10 -9v-2q1 0 4 -0.5t5 -0.5q4 4 9 2.5t7 -8.5q2 -2 4 -2zM509 756v5q1 6 6.5 8t9.5 -2q3 7 11.5 5t8.5 -11v-2q-1 -3 -3 -5q2 -2 5 -3 t4 -2q11 -18 8.5 -35.5t-14.5 -27.5q5 -7 0 -13t-13 -1q-4 3 -4 7q-16 -1 -29 9q-22 17 -17 39.5t27 28.5zM893 905l3 1q-11 -2 -13 6t7 13q2 0 5 1.5t5 1.5q11 0 12 -9t-9 -11q-1 0 -10 -3zM565 691q4 -5 1.5 -10.5t-7.5 -6.5t-9 4q-5 8 1.5 13t13.5 0zM512 661 q4 -5 1.5 -10.5t-7.5 -6.5t-9 4q-5 8 1.5 13t13.5 0zM522 950q0 -10 3 -14q0 8 9 8v1q-2 2 -2 4q-8 0 -10 1z" />
<glyph unicode="#" d="M859 624v-3q-1 -11 -5 -14q12 -1 18 -16v-3q0 -2 -0.5 -5t-1.5 -5q9 -7 16 -25v-6q0 -1 -0.5 -4t-0.5 -4h191q65 0 65 -65t-65 -65h-193q-18 -19 -71 -41.5t-60 -45.5q-3 -10 -9 -16l-126 -357q-15 -43 -59 -43q-68 0 -68 62q0 10 5 25l126 357q-7 2 -13 6q-9 5 -18.5 13 t-23.5 21t-21 19h-86l-6 -9q-16 -17 -36 -19l-153 -432q-15 -43 -59 -43q-68 0 -68 62q0 10 5 25l147 416h-225q-65 0 -65 65t65 65h235q-7 10 -9 25v12q0 9 1 13q-12 12 -2 28l2 2t1 2q2 2 3 2q1 5 1 13t1 13q5 21 19 30t29 5q0 2 0.5 5t0.5 5q0 11 0.5 22.5t1.5 26t1 22.5 v12h-187q-65 0 -65 65t65 65h304l166 468q15 43 59 43q68 0 68 -62q0 -10 -5 -25l-137 -388q10 -8 19 -16q4 -3 15 -9.5t16 -10.5h62q28 24 49 32q-2 23 18.5 37.5t46.5 0.5l141 398q15 43 59 43q68 0 68 -62q0 -10 -5 -25l-61 -172q3 -2 8 -3.5t7 -3.5q18 -28 2 -53.5 t-43 -14.5l-44 -123q9 -10 10 -18q0 -8 2 -14q1 -11 6 -22h169q65 0 65 -65t-65 -65h-167q-6 -9 -16 -15q-19 -6 -36 -19.5t-23 -29.5q-18 -21 -39 -19l-24 -66q1 0 1 -2t1 -2zM457 297q14 10 27 2t5 -25q-7 -8 -11 -11q18 -2 27 -9q13 -19 7.5 -40.5t-22 -27.5t-37.5 7 q-20 12 -18 34q-3 1 -5 6q-11 13 2.5 25t25.5 1q1 1 8 3q-14 3 -17 13.5t6 18.5q0 1 2 3zM542 645q-2 4 -3 7q-4 5 -11 5l-4 -2q-13 2 -13 -9q-17 -13 -20 -31q-4 -14 -5 -21q-14 -27 -3 -46q3 -7 9 -6.5t10 7.5q0 3 1 9.5t1 9.5q10 8 15 13q2 -1 8 -3q3 -8 15 -12 q6 -1 9.5 2t2.5 8q7 3 6 10.5t-8 9.5h-7q1 3 1 8q3 2 6.5 6t5.5 6l2 1q3 7 -2 11t-11 2q-1 1 -1.5 3.5t-0.5 3.5q-2 2 -3 2v6z" />
<glyph unicode="$" d="M787 860q8 -10 3.5 -21t-15 -12.5t-18.5 8.5q-5 8 -4 14q-2 -2 -2 -3v-22q2 0 9 -4q11 -17 -3 -31q10 -12 0 -26.5t-25 -2.5q-6 3 -8 8q-27 -7 -43 17v-99q150 -54 218 -110l88 -130l3 -6q2 -5 4 -21q0 -4 1 -7q36 -57 27 -107q-10 -62 -51.5 -117.5t-98.5 -76.5 q-3 -1 -5 -3q-27 -18 -80 -24q-14 -1 -40.5 -2t-40.5 -3q-9 -3 -25 -5v-259q0 -66 -65 -66t-65 66v255q-116 11 -206 78q-11 -51 -64 -51q-65 0 -65 65v171q0 75 62 75q45 0 64 -52q36 -97 131 -135q6 8 16 12q23 8 39.5 -2.5t18.5 -29.5h4v29q-10 3 -13 17q-5 7 -5 14 q-3 1 -6 4q-11 7 -9 18t12 15t21 -2v53q-8 -18 -25 -23q-4 -9 -12 -11.5t-15.5 3t-9.5 16.5q-13 13 -14 31q0 9 1 12q-4 7 -4 9q-8 -3 -17 4q-11 7 -9 18t12 14.5t21 -2.5q20 21 48 12q15 -4 24 -24v186q-146 51 -215 107q-97 79 -97 206q0 125 99 208q86 71 213 87v98 q0 65 65 65q60 0 65 -57q-17 -10 -7 -28q9 -23 21 -38q2 -28 35 -38q1 -1 3 -2l2 -2l12 -6l1 -1l6 -2q11 -2 17 3l6 -9q1 -2 1 -9q22 -8 42 -18q3 3 14 5q5 11 15 12t17 -6q17 11 40 11q64 -1 64 -65v-153q0 -73 -64 -73q-51 0 -64 58q-23 92 -149 120q1 -9 -6 -18 q-2 -2 -4 -3l-2 -2v-162q1 2 9 16q26 23 50 7t16 -47q14 14 31 2zM514 949q-2 27 -24 54h6q2 0 6 2l2 2l1 2v6q-2 5 -5 6l-1 1q-1 0 -2.5 0.5t-2.5 0.5q-39 0 -44 -1q-6 4 -9 4q-34 -3 -44 -38q-3 -12 10 -14q5 0 15 6q5 -2 8 1q5 -7 13 -29q-12 -5 -15.5 -19t8.5 -20 q0 -1 1 -1t2 -1q-2 -23 9 -32q8 -3 13 1q19 19 23 60q0 11 -10 11q-2 29 5 37q13 -12 15 -39q1 -7 6 -9.5t9.5 0t4.5 9.5zM767 243q22 19 20 61h2q8 1 8.5 8t-5.5 10v2q0 9 -8 11q0 9 1 13q19 -25 25 -27q9 -5 16 6q7 21 -7.5 45t-35.5 29q-3 0 -7 -2l-3 6q-3 3 -7.5 4 t-8 -1t-3.5 -7v-62q0 -8 -4 -31t-4.5 -35.5t6.5 -28.5q7 -7 15 -1zM505 313q13 -19 7.5 -40.5t-22 -27.5t-37.5 7q-21 15 -17 37t23.5 29.5t45.5 -5.5zM460 1003h4q-2 -2 -3 -4l-1 1v3zM798 366v2q3 -6 4 -7q-2 1 -4 5z" />
<glyph unicode="%" d="M991 274h6q15 -5 16.5 -17.5t-10.5 -19.5q2 -17 -18 -22h-3q-6 0 -11 4v-3q-4 -116 -43 -157.5t-153 -45.5q-75 -6 -109 16q-57 -2 -83 43q-17 4 -27 15q-73 74 -73 180q0 107 73 180q21 21 42 35l-2 2q-2 1 -3 2q-11 7 -8.5 18.5t12.5 15t21 -3.5q7 -9 4 -20q1 1 5 3 q-6 16 -9 35q-10 -7 -21 2q-9 4 -9 15l-284 -103q-18 -6 -34 -6h-13q-6 -6 -15 -5.5t-14 8.5l-54 -9q-23 2 -34.5 18.5t-4.5 34.5t29 26q5 0 15 1.5t11 1.5v1q-1 1 -1 2q-11 13 2.5 25t25.5 1q-6 12 7 24q2 10 12.5 14t21.5 -3q1 -4 29 -1l127 46q-4 27 48 27q2 -1 5 -3 q2 -1 3 -2l2 -1l103 37v2q-14 -9 -30.5 -3.5t-27.5 25.5q-3 15 -9 30h-9q-103 0 -177 75q-73 74 -73 181q0 106 73 180q22 23 48 39q-4 5 -4 12v4q2 11 10 15.5t17 1.5q1 6 10 15q10 6 16 7q13 1 19 -7t3 -18q29 6 58 6q103 0 176 -75q74 -76 74 -180q0 -105 -74 -181 q-7 -8 -23 -22v-4q14 10 26 -1q11 -13 1 -25t-22 -8q0 -7 1 -9q10 3 20 -4q5 -7 4 -17l241 88q17 7 34 7q15 0 27 -3q3 2 19 4h46q35 -10 33.5 -42t-36.5 -38h-10q-1 -8 -6 -13q1 -1 7 -11v-6q-2 -21 -19 -22.5t-21 17.5q-12 -9 -29 -15l-5 -2q-2 -9 -10.5 -12t-17.5 2 l-242 -89q22 -29 33 -67h7q103 0 177 -75q72 -73 73 -175q6 2 8 2zM485 968q-3 1 -13 3q2 9 -4.5 16.5t-18.5 6.5q-7 -2 -12 -6q-13 8 -34 14q-3 9 -3 36v8l-3 6q-1 2 -6 7q-4 4 -12 4q-5 0 -9 -3q-4 -1 -7 -6q-1 0 -1 -2t-1 -2q0 -2 -1 -4v-1q0 -42 11 -69q0 -2 2 -4 q0 -2 2 -4q19 -29 69 -49q22 -9 35.5 -12.5t31 1t25.5 23.5t-8.5 27t-26.5 -9q0 15 -16 19zM795 357q14 -44 28 -73l2 -6h1q0 -1 1 -2q11 -12 22.5 -7.5t13.5 21.5q-1 0 -1 2t-1 2l1 1q-2 2 -2 4q-21 63 -30 78q0 1 -0.5 4t-0.5 5q-5 10 -15 15q-21 28 -51 32 q-14 -1 -19.5 -10t-0.5 -18t18 -12q15 -4 34 -36z" />
<glyph unicode="&#x26;" d="M357 688q0 1 2 7q-2 4 -9 16.5t-11 18.5q-32 53 -41 100q-4 0 -5 3q-10 7 -9 16.5t10 15.5v3q0 114 78 185q73 67 189 67q93 0 171 -42l10 -6q23 14 40 14q48 0 48 -70q0 -36 -17 -65q-17 -24 -38 -30q10 -19 -4.5 -38.5t-41.5 -15.5q-32 9 -49 45q-2 2 -2.5 6t-1.5 6 q-5 0 -7 2q-34 18 -26 50q-39 14 -82 14h-9q-1 -2 -1 -8q-39 10 -52 -33q-5 -6 -7 -13q0 -56 1 -65h2q5 0 10 -3q1 0 2 -1l2 -2q2 -2 2 -3q2 -1 4 -7v-3q0 -3 10 -29q12 -43 23 -71l35 -35q7 -7 20 -29.5t22 -31.5q10 -29 18 -62q52 -95 66 -149l55 -73q8 7 18 3.5t14 -15.5 v-1q22 59 63 184q4 14 25 30q21 15 37 15h58q65 0 65 -65t-65 -65h-10q-16 -53 -38 -108l1 -1q0 -13 1 -16q5 -12 3 -24q0 -4 1 -10t1 -10q-1 -9 -3 -14q1 -1 8 -3.5t11 -4.5q13 -21 6.5 -42t-23.5 -27q18 -46 21 -69q-2 -10 -3 -11h56q65 0 65 -65t-65 -65h-90 q-32 0 -52 26l-51 68q-5 -3 -8 -3q-15 0 -32 14q-111 -105 -272 -105q-133 0 -220 92q-84 89 -84 221q0 122 55 202q29 42 93 96q3 19 11 44q-1 1 -1 5q0 6 -1.5 20t-1.5 20zM496 495h-33q-16 2 -20 14q-48 -38 -71 -70q-40 -56 -40 -138t49 -132q49 -51 125 -51l38 20 q10 -4 22 3q32 20 37 77q20 0 21 23q0 54 -11 70l13 13q-16 21 -59.5 78.5t-70.5 92.5zM991 290v-3q3 9 14 11.5t20 -3.5q5 -7 5 -15q2 0 4.5 -1t5.5 -3t6 -3q13 -19 7.5 -40.5t-22 -27.5t-37.5 7q-19 15 -18 32.5t16 29.5q-2 6 -2 7q-2 -11 -11 -15t-18 1.5t-10 17.5v3 q4 18 19 18.5t21 -16.5zM604 752q-10 8 -15 13q9 1 14 9q1 0 1 2t1 2q4 -11 -1 -26zM887 212q-4 0 -5 1l19 -25q-2 4 -5 11.5t-5 11.5q-3 0 -4 1z" />
<glyph unicode="'" d="M529 923q-1 2 -1 7q-1 0 -7 3t-9 6q-23 18 -17 40.5t30 28.5q5 5 7 6l-2 33q-13 12 -15 32v6q1 12 9 21l-6 70q-4 45 27 72q29 24 70 24q42 0 70 -24q32 -28 28 -72l-31 -321q2 -2 7 -4t7 -3q18 -27 2 -52.5t-43 -15.5q-16 -11 -40 -11q-59 0 -65 65l-7 71q-1 0 -2 1 q-8 5 -12 17zM650 766h4q16 -4 16 -19q9 5 22 6h7q35 -10 33.5 -42t-36.5 -38h-7q-25 2 -35 18t-4 35h-2q-13 3 -18 12t0.5 18t19.5 10z" />
<glyph unicode="(" d="M446 665q2 11 10 15.5t17 1.5q60 295 250 538q20 26 50 26q27 0 47 -19.5t20 -46.5q0 -20 -15 -40l-171 -310q-1 -10 5 -18q1 -3 1 -11q7 -10 7 -29q-3 -29 -25.5 -79t-24.5 -56q-6 -18 -15 -72q-4 -23 -13 -83q29 -2 39 -34q2 -80 16.5 -236.5t16.5 -232.5q0 -3 -2 -11 q61 -148 166 -278q15 -19 15 -41q0 -27 -20 -46.5t-47 -19.5q-29 0 -50 25q-277 343 -277 795q0 72 6 142q-16 0 -19 21v10q2 8 5 11q-2 6 -2 9q0 12 5 35t5 34z" />
<glyph unicode=")" d="M647 460v24q-21 170 -137 319q-9 17 -6 31q-14 10 -16 33v20q6 31 33 36q-11 10 -13 30q-5 30 -14 55q-39 68 -87 132q-15 20 -15 40q0 27 20.5 46.5t47.5 19.5q30 0 50 -26q202 -262 256 -579q2 -6 32 -57q3 -12 -1.5 -19.5t-13.5 -8.5q4 -8 -1 -18q2 -3 4 -7v-3 q-2 -11 -4 -14q4 -49 4 -111q0 -452 -277 -795q-19 -25 -49 -25q-27 0 -47.5 19.5t-20.5 46.5q0 22 16 41q59 74 105 155q-21 8 -25 37v7q4 20 17 30t28 8q35 50 58 133q-19 -2 -32.5 13.5t-7.5 40.5q2 9 15 38.5t15 47.5q5 25 25 33t35 -3q1 0 1 1t1 2l1 1q11 75 12 154 q-10 -7 -20 2q-14 10 -6 24.5t23 9.5q-2 16 -2 24q-4 5 -4 12z" />
<glyph unicode="*" d="M689 1020h1q16 -24 4 -47q5 -13 9 -38.5t4 -26.5q-1 -6 -4 -12q14 -18 21 -25l10 4q6 17 22 25t38 -2l67 26q-6 18 5.5 35t36.5 19h14q17 -4 28 -21q15 5 27 5q32 0 54.5 -26t22.5 -61q0 -58 -57 -73l-212 -55q-2 -29 -22 -63l140 -171q10 -14 14 -25q30 -2 40 -34v-20 q-2 -31 -27 -41t-41 10q-26 -21 -56 -21q-14 0 -25 4q-17 -16 -38 -6t-25 38v7q2 14 8 20l-74 115q-17 4 -28 13q-22 -4 -40 10q2 -1 -6 13q0 2 -2 5l-5 9q-1 0 -3 -2t-4 -2l-123 -192q-23 -36 -62 -36q-33 0 -61 25q-27 26 -27 59q0 26 18 48l138 168q-38 12 -77 15 q-34 4 -39.5 31.5t19.5 41.5l-134 36q-57 15 -57 73q0 35 22.5 61t54.5 26q15 0 30 -6l222 -87q8 20 36 55l-12 209q-4 81 81 81t81 -81zM883 727q2 -2 4 -8q12 -5 13.5 -17t-8.5 -19q2 0 4 -2q8 -9 4.5 -20t-12.5 -14q-9 -22 -34 -26h-13q-28 4 -37.5 24.5t4.5 37.5 q-2 2 -2 3q-11 13 1.5 24.5t25.5 2.5q5 15 22 13q12 12 28 1z" />
<glyph unicode="+" d="M307 575h-63q0 14 -16 20h-27q-21 -4 -23 -20q-11 -2 -15 -8h-4q-65 0 -65 65t65 65h192q2 24 31 35q4 7 14 16q25 21 80 19q10 14 26.5 16.5t30.5 -7.5q-4 8 2 16t15 10l-1 294q0 65 65 65t65 -65v-94l4 -2q11 -15 18 -30l6 -14q23 -1 33.5 -20.5t-3.5 -42.5q2 1 -3 -7 l-4 -6q-1 -5 -1.5 -15t-2.5 -15q4 -1 8 -4q8 -10 3.5 -21t-13.5 -13t-18 6q-12 -7 -26 -4v-13q0 -2 1 -3q0 -14 4 -23q22 -13 27 -34q27 -15 19 -44h157q6 6 17 7q16 0 47.5 -3t48.5 -4h69q65 0 65 -65t-65 -65h-135q-3 -9 -16 -12q-11 1 -34.5 3t-34.5 3q-9 1 -14 6h-87 q-6 -6 -20.5 -17t-20.5 -17q-14 -13 -28 -32l-1 -185h6v4q4 17 19 17t21 -16v-2l2 -1q10 -13 1 -26q0 -2 1 -2.5t1 -2.5v-9q-2 -21 -18.5 -22.5t-20.5 16.5q-6 -2 -12 0v-107q0 -65 -65 -65t-65 65v66q-12 -3 -20 9q-7 9 -3.5 17t12.5 11q-3 15 11 23l1 219q-38 27 -58 57 h-126q-1 -2 -8 -7q-19 -6 -25 -10q-7 -4 -12 -4q5 8 1 16.5t-15 12.5zM519 820q8 -10 3.5 -21t-15 -12.5t-18.5 8.5q-11 15 3 25.5t27 -0.5zM691 748v1q-1 0 0 -1zM703 959v1v-1z" />
<glyph unicode="," d="M524 295h-1l-1 1v3q6 -2 7 -2q39 6 52 35h4h177q48 0 48 -27q0 -9 -6 -21l-196 -366q-4 -19 -13 -39q16 3 35 -10q20 -31 -1 -57t-51 -4q-13 10 -16 22l-58 -109q-23 -41 -62 -41q-62 0 -62 67q0 6 2 20l47 219q-12 10 -13 29v20q6 31 31 35l9 43q-24 0 -35 21 q-15 -7 -24 7q-14 17 5 27q2 10 14 14v38q6 28 28.5 35.5t39.5 -12.5l7 30q6 -11 19 -15q18 -2 23 11.5t-9 25.5zM528 288h1h-1z" />
<glyph unicode="-" d="M244 542h1h34.5h39.5t35 1t40 2.5t34.5 4.5t37.5 8l7 -3.5l7 -3.5q13 -10 18 -22h512q65 0 65 -65t-65 -65h-108q0 -1 -2 -9q-2 -3 -15 -17q-27 -17 -49 -1q19 -30 -2.5 -56.5t-50.5 -3.5q-23 17 -16 41q-15 5 -23 23q-2 0 -2 1q-5 2 -7 7q-6 -9 -15.5 -9.5t-15.5 10.5 q-5 8 -4 14h-240q-1 1 -3.5 2t-4.5 2q-13 1 -56.5 2t-72.5 3.5t-56 7.5q-17 -1 -23 -17h-25q-65 0 -65 65t65 65h17q7 12 8 13zM709 290h-13q-20 2 -30.5 14.5t-10 26.5t12 26t31.5 13h13q35 -10 33.5 -42t-36.5 -38zM817 381q2 -2 7 -3.5t7 -2.5q-9 7 -11 18q-2 -7 -3 -12z " />
<glyph unicode="." d="M811 164l-24 -87q-16 -10 -24 -17q3 -6 3 -14q-6 -23 -24 -29q-12 -3 -13 -3t-2 -1q-9 -13 -22 -9q-41 -19 -91 -19q-82 0 -140 52q-57 53 -57 127q0 32 10 59q13 49 44 64l3 3q59 53 140 53q43 0 79 -15q-6 12 2.5 22t23.5 5q9 -6 22 -26v3q5 -7 8 -8q16 -13 26 5 q3 -6 9 -9v-2q-1 -2 -1 -3q2 -13 6 -21q2 -9 6 -13q-17 -8 -33 2q49 -50 49 -119zM730 19q-1 -3 -3 -5l4 8q-1 -1 -1 -3zM722 12q2 0 4 1q-1 -1 -4 -1z" />
<glyph unicode="/" d="M572 723q15 27 35 72q2 3 11.5 20t14.5 26q2 1 6.5 3.5t6.5 3.5l261 559q18 39 57 39q27 0 47.5 -19t20.5 -45q0 -16 -7 -29l-70 -149q10 4 18 3q-14 -24 -33.5 -62t-21.5 -42q-105 -188 -155 -332q-13 -37 -36 -125q-11 -3 -14 -17q-14 -78 -79 -167q-16 -8 -27 -5 l-57 -122q14 0 27 -9q13 -19 7.5 -40.5t-22 -27.5t-37.5 7q-2 1 -3 2q-2 1 -3 2l-160 -343q-18 -39 -57 -39q-27 0 -47.5 19t-20.5 45q0 16 7 29l74 160q-8 0 -9 1q15 29 39.5 78.5t31.5 63.5q10 18 29 57.5t35 70.5t33 58q8 13 27 42.5t29 46t23.5 42.5t21.5 50 q0 12 -8.5 19t-18.5 4q1 3 3 7q0 1 1 3t1 3q1 2 14 31q1 1 2 2.5t3 3.5zM833 821q-4 -6 -10.5 -15t-9.5 -15q30 79 78 177q-9 -20 -58 -147z" />
<glyph unicode="0" d="M534 1319l4 -2q10 -14 8 -34q35 8 68 8q185 0 302 -207q107 -191 107 -454q0 -264 -107 -455q0 -1 -1 -2l-2 -2q15 -9 17 -26.5t-12 -35.5l-7 -7q-25 -16 -46 -4q-8 -10 -28 -32q16 -31 -4 -55.5t-50 -2.5q-1 1 -3 2.5t-4 2.5l-1 1q-73 -46 -161 -46q-186 0 -303 207 q-107 191 -107 455q0 263 107 454q71 126 170 176q-7 5 -9 11q18 -12 30 13q0 15 14 17q16 4 18 18zM516 130q5 16 21 23l5 -5q23 -15 49 -18q1 -3 1 -12q1 1 7 4.5t10 5.5q18 0 39 7q1 -13 20 -16q36 4 83.5 70t41.5 98q7 9 24.5 32t28.5 35q2 0 3.5 -1t3.5 -1q4 9 5 17 q6 11 6 21q29 108 29 240l-20 31q-1 2 -1 9q-1 8 -3 28t-3.5 32t-6 29t-11.5 29q-20 177 -76 235q-22 22 -74 28q5 16 -3.5 31t-28.5 22q-8 0 -32.5 1.5t-38.5 1t-32.5 -5.5t-28.5 -15q-51 -5 -77 -39q-20 -6 -33 -28q-90 -155 -90 -389v-38q23 -8 30 -32q9 -246 121 -386 q7 -9 9 -25q12 -11 22 -19zM976 178q-11 -16 -4 -40q-1 -1 -9 -11q-1 1 -4 3t-4 3q-27 20 -14 47t44 23q-2 -14 -2 -21q-5 -2 -7 -4zM833 1271q-8 7 -15 22q3 -4 8 -11.5zM875 1284q5 2 8 5q-2 -10 -2 -12q-5 5 -6 7z" />
<glyph unicode="1" d="M779 0l-3 -3q-102 3 -123.5 4t-123 -2.5t-123.5 -4.5q-1 1 -1 6h-78q-65 0 -65 65t65 65h250v218q-3 -2 -7 -4q-2 15 -8.5 40t-8.5 37q10 1 24 -5v267l-2 2t-2 1q-1 46 -3.5 137.5t-3.5 137.5q1 8 5 29.5t5 29.5t1.5 24.5t-3 23.5t-10.5 16t-20 11.5t-32 1.5 q-11 -2 -12 -3q-2 8 -2 9l-141 -37q-11 -3 -19 -3q-63 0 -63 68q0 48 49 61q1 0 15.5 4.5t51 16t76.5 23.5q20 27 51 15q81 23 120 23q69 0 69 -65v-991q14 -17 26 -52q0 -7 4 -11q1 -4 2 -12.5t3 -12.5h30q-8 7 -12 16q16 6 20 22q0 8 -1 9q12 -5 28 -5q16 3 18 17 q1 0 3 -1q19 -31 -2 -58h132q65 0 65 -65t-65 -65h-179zM352 1270q-18 13 -16 33l12 -3q6 -10 18 -11q-2 -4 -7.5 -10.5t-6.5 -8.5zM528 354q-22 19 -10 44l5.5 -22t4.5 -22zM577 1124l-2 -1q1 -2 1.5 -5t0.5 -5v11z" />
<glyph unicode="2" d="M492 1156h-1q-18 -6 -37 -21t-27 -33q-43 -23 -83 -57v-19q0 -65 -65 -65t-65 65v48q0 50 123 125q128 79 257 79q159 0 266 -101q106 -100 106 -249q0 -136 -118 -303q-85 -121 -252 -281q-55 -51 -167 -155q15 -1 47 -3q0 -6 3 -12q13 -27 74 -34q0 -2 -2 -10h269 q-2 30 31 41q5 1 14 11q24 58 66 58q24 0 42 -20t18 -46q0 -4 -2 -12q-5 -28 -17 -84h12q-13 -26 -19 -76q-5 1 -10 6q-8 5 -11 11q-18 -19 -43 -19h-142q0 -22 -20 -34q-10 0 -30 -2t-30 -2q-31 10 -31 38h-84q-6 -19 -22 -26t-37 6q-12 8 -16 20h-260q-26 0 -45.5 19.5 t-19.5 45.5v23q0 27 20 47q23 21 64 58t75.5 68t65.5 58q81 76 157 153q-12 -3 -18 -2q17 19 56 66q4 -10 1 -22l9 9q-7 7 -5 19q40 50 76 111q19 -2 30 -13q141 178 141 288q0 93 -65 155q-22 20 -50 36q-19 21 -39 30q-16 15 -46 26.5t-61 10t-42 -22.5h-2q-18 0 -39 -7z M528 557q12 5 24 3q-14 -17 -54 -64q-3 6 -3 15q2 11 7 19.5t9.5 12.5t16.5 14zM647 725q2 2 6.5 9t8.5 11q-9 -30 -30 -70q-2 1 -4.5 2.5t-3.5 3.5q-1 1 -3 2.5t-3 2.5l-2 1q3 9 13 15q13 6 11 20q4 0 7 3z" />
<glyph unicode="3" d="M649 794q29 -10 54 3q7 -28 -12 -43q39 16 67 42q58 51 66 126q-22 7 -25 38q-3 47 -16.5 73.5t-53.5 31.5q-24 12 -27.5 34t14.5 34q-51 23 -115 23q-96 0 -188 -54q3 -13 2 -22q-5 -24 -22 -32t-47 -11q-14 2 -17 4q-15 -9 -32 -9q-26 0 -46 20.5t-20 46.5q0 29 24 48 q19 18 102 69q127 70 244 70q162 0 260 -98q95 -95 95 -241q0 -140 -103 -234q7 -9 8 -12q-7 -1 -13 -1q-17 -8 -15 -22.5t20 -17.5q1 0 15 2q-3 -9 -9 -15q139 -94 139 -284q0 -171 -112 -277q-118 -110 -310 -110q-100 0 -203 34q-116 39 -184 98q-25 21 -25 48 q0 26 20 45.5t47 19.5q23 0 42 -15q1 0 3 -2t6.5 -5t9.5 -6q128 -87 284 -87q62 0 113 14q-11 8 -14 17l1 1q8 4 23.5 6t22.5 9t11 28v5q1 -2 4 -3t5 -2q11 -20 8 -35q23 13 46 35q72 69 72 182q0 121 -81 181q-14 -25 -41 -20.5t-33 36.5l-1 -8q-1 2 -4 25q0 1 -0.5 2 t-0.5 2q-35 11 -75 15q0 -2 -0.5 -5t-1.5 -5q-8 10 -20.5 7.5t-15.5 -17.5q0 -4 -1 -8.5t-1 -8.5q-10 1 -20 10q-18 12 -18 31q-61 3 -61 65q0 65 68 65q57 0 105 14q-10 1 -22 10q-18 12 -18 33q0 1 1 1q3 3 13 11q3 -3 9 -5zM975 94q-27 19 -15 45q3 -7 7 -10q4 -8 18 -10 h18q-2 -19 -7 -34q-10 0 -21 9z" />
<glyph unicode="4" d="M847 196q2 -2 4.5 -4t5.5 -6q0 -1 1 -1q-5 -31 20 -47l1 -1q0 -6 -1 -7h55q65 0 65 -65t-65 -65h-364q-65 0 -65 65t65 65h138v140q-15 7 -26 24q-6 10 -7 18h-450q-26 0 -45.5 19.5t-19.5 45.5v33q4 27 8 32l59 104q-5 2 -5 3q-19 16 -18 34.5t20.5 29.5t41.5 1l361 638 q20 33 85 33q47 0 85 -20q41 -23 41 -58v-613q15 10 35 4v-49q2 -15 12 -19q-21 -19 -47 -1v-87h42q11 54 60 54q62 0 62 -88q0 -23 -4 -43q-4 -19 -24 -36t-40 -17h-33q-15 -8 -25.5 -19t-22.5 -28t-15 -21v-23q6 -7 9 -18q0 -6 1 -7zM591 488q28 27 57 2l10 21q9 21 12 32 q14 23 37 23v446q-14 2 -26 15q-6 7 -16 30l-148 -261q3 -4 5 -11v-7q-2 -21 -13.5 -32t-26.5 -12l-34 -60q-3 -16 -13 -23l-94 -166q5 -7 9 -18q0 -6 -1 -11q4 -6 6 -14h204l1 1l4 4q5 6 13 20.5t14 20.5zM604 775q6 -9 7 -19q-10 6 -23 -4q-16 -15 -24 -45q-6 2 -12 7 q-21 15 -17 37t23.5 29.5t45.5 -5.5zM934 201q18 -26 2.5 -52t-42.5 -16q19 -2 22.5 15.5t-15.5 23.5q-2 0 -3 1q-1 11 7 23q4 7 6 14q11 -2 23 -9z" />
<glyph unicode="5" d="M364 1202q42 0 123 3t122 4q11 2 15.5 10t1.5 17h265q65 0 65 -65q0 -22 -7 -35q-72 -2 -113 -5q-5 9 -14 12q-75 -2 -148 -6q-66 0 -98 -5q-7 0 -25 0.5t-29 1t-25 -1.5t-24 -7q-10 -7 -10 -16q-10 -2 -11 -3h-5q-2 -8 -11 -20q-26 -26 -35.5 -134t19.5 -132 q5 -3 10.5 -5t12.5 -3.5t11 -2.5l6 -6q78 25 146 25q182 0 295 -129q105 -120 105 -291q-9 -13 -17 -28q-30 -216 -154 -326q-36 -33 -85 -52q-7 -3 -26.5 -9.5t-33 -13.5t-23.5 -17q-22 -12 -40 -5t-24 26q-22 -7 -47 -7q-200 0 -372 100q-34 19 -34 54q0 27 19 47 q13 14 31 19q2 34 43 36q32 -8 70 -44q9 -14 9 -26q174 -56 234 -56q140 0 229 85q37 35 57 74q-28 -5 -40 28q7 3 11 13v3q9 -9 20 -4t13 22q-3 35 -18 42l1 1q24 21 46 9q1 9 1 29q0 124 -72 205q-22 22 -34 31q2 -31 -23 -42v15q-6 17 -21 16.5t-19 -18.5v-4 q-19 16 -14 36t24 29q-48 22 -111 22q-116 0 -259 -84q-22 -13 -43 -13q-55 0 -55 69v501q0 26 19 45q5 5 8 7q4 -6 16 -8h52q4 -11 20 -13zM993 128q6 -9 7 -19q-24 -4 -41 -16q5 6 6 15q9 4 11.5 12.5t-1.5 15.5q16 -7 18 -8zM940 67q-24 17 -15 43v-3q2 -14 12 -19t18 1 q-9 -9 -15 -22zM672 1063h-29q-11 0 -18 4q8 -2 47 -4z" />
<glyph unicode="6" d="M980 102v-1l-6 -1q-7 -1 -13 -3.5t-11.5 -10t-5.5 -19.5q0 -7 4 -12q-6 -10 -10 -20q-6 2 -10 6q-15 11 -18 25q-10 -7 -29 -7h-2q-97 -90 -250 -90q-203 0 -311 179q-91 149 -91 374q0 361 173 557q184 207 548 207q65 0 65 -65t-65 -65q-132 0 -231 -31q2 -14 2 -17 q-2 -26 -19.5 -36.5t-43.5 -8.5q-26 3 -37 23q-195 -104 -244 -359q14 9 31 4t25 -22q89 69 203 69q163 0 268 -136q96 -124 96 -289q0 -95 -33 -171q1 -1 2 -1q13 -21 6 -42.5t-25 -27.5q15 2 32 -9zM857 425q-2 1 -14 19h-1l-3 48q-6 17 -21 16.5t-19 -18.5q0 -23 4 -43 q-29 50 -35 90q-4 27 16 42q-64 69 -150 69q-102 0 -175 -94q-72 -94 -72 -223q0 -89 76 -161q77 -71 166 -71h19q1 15 12 26.5t32 13.5q21 -3 34 -14q7 -5 8 -7q24 12 40 23l1 1h-1l1 1q1 1 2 1l-2 -2q2 1 6 5h-1l8 6l9 8q6 -10 18 -8.5t18 15.5q9 28 10 59q25 53 25 126 v13q-14 6 -20 12q0 4 -0.5 10t-0.5 10q16 6 10 27zM941 110h-5v-2q1 0 2.5 1t2.5 1z" />
<glyph unicode="7" d="M305 1235q13 -1 38 -1q1 -16 21 -19h79q4 -4 13 -5q1 -1 7 -1q7 1 12 6h68q16 4 18 18q11 0 35 2q218 -13 344 1h2q66 0 66 -59q0 -11 -5 -28l-144 -412q1 -1 2 -1q15 -23 5 -47t-32 -24l-47 -136q18 -18 8 -47q-58 -115 -90 -212.5t-38 -204.5q-8 -20 -22.5 -27 t-29.5 -2l-11 -32q-15 -43 -59 -43q-68 0 -68 63q0 9 5 24l78 224q-26 5 -30 33q5 0 6 1q23 8 43 47q4 11 0 19t-13 10q16 9 33 4l222 637q-27 0 -48 7q10 14 2 26t-25 5q-3 -1 -16 -9q-21 10 -46 13q-54 26 -91 31q-16 1 -26 10h-234q0 -86 -60 -86q-28 0 -51.5 21 t-20.5 45l11 88q8 62 66 62h19q1 -1 4 -1zM406 1278q0 -2 2 -2q0 -2 1 -3q-11 0 -32 0.5t-31 0.5q23 27 60 4z" />
<glyph unicode="8" d="M364 664q-4 7 -4 9q-124 102 -124 264q0 148 112 251t267 103q154 0 266 -103t112 -251q0 -167 -134 -271q14 0 29 -9q15 -27 2 -52q116 -104 116 -263l-4 -4q12 -89 -19 -162t-92 -119.5t-138 -74.5t-163 -35q-31 4 -40 30q-121 17 -212 102q-115 108 -115 263 q0 185 153 293v1q0 10 -3 17q-2 2 -3 3.5t-1.5 1.5t-1.5 1.5zM807 497q-1 1 -3.5 2t-4.5 1q-51 58 -142 68q-2 0 -5 -0.5t-5 -1.5q-44 10 -91 -7.5t-72 -52.5q-1 -1 -1 -2v4q-6 18 -24 17q-23 -4 -37 -40q-8 -8 -22 -21t-20 -19q-28 -32 -38 -57q-4 -8 -6 -38 q-1 -6 -6 -25.5t-7.5 -31.5t1 -27t15.5 -23q39 -29 58 13q12 -56 45 -96q35 -43 64 -60q14 -6 25 1l5 5q7 12 6 21q3 1 6 4q0 -12 15 -18l1 -1h3q90 -20 164 11.5t89 113.5q3 4 13 17t16 21q11 17 0 29q13 33 8 72q-6 30 -13 44q-5 60 -37 77zM453 742q17 -17 30 -2 q4 0 11 -1t11 -1q51 -25 130 -25q7 3 9 4q4 -3 11 -3q103 2 137 66q14 17 21.5 40.5t5.5 41.5q-2 6 -3 19t-2 20q3 31 -1 53v13q-1 19 -22 48q-2 2 -5 7.5t-4 8.5v2l-1 -1q-6 8 -12 9l-2 2t-1 2q-22 42 -60 75q-12 8 -24 3q-7 -2 -13 -6l-1 -1q-49 42 -106 10l-6 -3 q-7 7 -18 7q-46 -11 -89 -45t-67 -78q-13 -1 -19 -12q-10 -22 -4 -70q5 -56 27.5 -97.5t66.5 -85.5zM459 995q-15 -47 -15 -95q-1 -26 17 -59q-8 13 -12 26t-8.5 34t-10.5 40q-7 25 -16 42q13 24 48 59q-3 -22 -3 -47zM516 828q-2 2 -3 4l-2 4q7 -6 30 -14q2 -2 5 -3 q15 -19 33 -20q6 -3 28 -13q-34 -11 -68 11q-5 3 -23 31zM486 165q-45 42 -50 116q0 -1 2 -3.5t2 -3.5q1 -4 46 -109zM1093 637q10 -15 8 -35q-11 13 -31 28v16q11 -2 23 -9zM388 387q-4 -14 -9.5 -53.5t-14.5 -57.5q-2 14 -2.5 17t5 19t5.5 17q10 45 16 58zM520 482 q16 21 39 33q-10 -10 -24 -31.5t-22 -29.5q-2 0 -2.5 -1t-2.5 -1q8 15 12 30zM1030 608v-21q-8 10 -7 23q1 -1 3 -1q1 -1 4 -1zM616 844q-1 0 -2 -1q-4 1 -11 2t-10 2q13 3 14 4q1 -1 4 -3t5 -4zM669 198q-7 -1 -22 -1v3q14 0 21 1v-1zM510 201q1 -1 2.5 -2t3.5 -3 q0 -2 -0.5 -4t-0.5 -3q-1 2 -2.5 6t-2.5 6zM1075 568q-1 -1 -5 -1v8q2 -2 3 -5q1 -2 2 -2zM545 395q0 3 -0.5 9t-0.5 9l1 1q0 -13 1 -20q-1 0 -1 1zM482 806q0 -2 4 -9q-2 1 -2.5 2t-2.5 2q1 1 1 5zM585 935l-2 2q1 0 2 -1q1 0 3 -1h-3zM517 247v-2q-1 0 -1 0.5t-1 0.5 q1 0 1 0.5t1 0.5z" />
<glyph unicode="9" d="M1002 733q0 -361 -173 -557q-183 -207 -548 -207q-57 0 -65 51q52 -15 78 -15q9 0 19.5 2t25.5 6.5t19 5.5q6 2 19 4.5t18 3.5q55 0 89 14q18 5 29 14q41 13 69 34q25 18 40 37q45 10 65 62v1q5 6 9.5 12.5t10.5 15t10 13.5q68 57 76 96q0 9 -5 17q33 59 52 126 q-6 43 -19 95q-96 -87 -226 -87q-162 0 -267 136q-97 124 -97 289t98 272q102 112 271 112q203 0 311 -179q91 -149 91 -374zM785 739q7 0 9 -1q48 82 48 186q0 10 -1 15q-16 -20 -40 -11.5t-28 38.5v7q4 21 19 30.5t31 4.5q-1 0 -1 1t-1 2q-31 5 -35 41q0 2 -0.5 6t-0.5 6 q-6 7 -19 20q-76 72 -166 72q-110 0 -175 -69q-64 -68 -64 -185q0 -123 68 -209q69 -86 166 -86h15q8 20 29 27q19 4 36 19.5t28 32t32.5 32.5t49.5 21zM703 300q-3 -15 -13.5 -24.5t-24.5 -7.5q18 10 31 25q4 3 7 7zM388 27h4l-5 -1z" />
<glyph unicode=":" d="M606 390h40q34 -10 34 -41q8 -4 11 -5q2 4 4 6q7 10 24 5q3 -2 7 -6q4 0 6 -1q19 -1 30 -22q15 9 33.5 0.5t24.5 -30.5q0 -1 1 -5t1 -6t-1 -2q2 -3 4.5 -8t3.5 -8q14 -30 17 -64q-2 -22 -13 -32q-10 -10 -23 -12l-23 -82q-16 -10 -24 -17q3 -6 3 -14q-6 -23 -24 -29 q-12 -3 -13 -3t-2 -1q-9 -13 -22 -9q-41 -19 -91 -19q-82 0 -140 52q-57 53 -57 127q0 32 10 59q13 49 44 64l3 3q2 2 5 4.5t4 3.5q9 23 23 36q25 20 57 23q5 28 43 33zM789 798q1 -2 1 -5q21 -37 21 -81l-24 -87q-16 -10 -24 -17q3 -6 3 -14q-6 -23 -24 -29q-12 -3 -13 -3 t-2 -1q-9 -13 -22 -9q-41 -19 -91 -19q-82 0 -140 52q-57 53 -57 127q0 32 10 59q13 49 44 64l3 3q59 53 140 53q43 0 79 -15q-6 12 2.5 22t23.5 5q13 -8 21 -26h1v3q0 -1 1 -2h3q15 0 26 -6q3 3 4 5q3 -6 9 -9v-2q-1 -2 -1 -3v-1q0 -1 1.5 -3t2.5 -4q5 -12 4 -21q2 -4 4 -5 q-1 -1 -3 -1t-3 -1q-1 -6 -7 -14q1 -3 3.5 -8z" />
<glyph unicode=";" d="M811 712l-24 -87q-16 -10 -24 -17q3 -6 3 -14q-6 -23 -24 -29q-12 -3 -13 -3t-2 -1q-9 -13 -22 -9q-41 -19 -91 -19q-82 0 -140 52q-57 53 -57 127q0 32 10 59q13 49 44 64l3 3q59 53 140 53q43 0 79 -15q-6 12 2.5 22t23.5 5q9 -6 22 -26v3q5 -7 8 -8q16 -13 26 5 q3 -6 9 -9v-2q-1 -2 -1 -3q2 -13 6 -21q2 -9 6 -13q-17 -8 -33 2q49 -50 49 -119zM730 567q-1 -3 -3 -5l4 8q-1 -1 -1 -3zM722 560q2 0 4 1q-1 -1 -4 -1zM524 277h-1l-1 1v3q6 -2 7 -2q39 6 52 35h4h177q48 0 48 -27q0 -9 -6 -21l-196 -366q-4 -19 -13 -39q16 3 35 -10 q20 -31 -1 -57t-51 -4q-13 10 -16 22l-58 -109q-23 -41 -62 -41q-62 0 -62 67q0 6 2 20l47 219q-12 10 -13 29v20q6 31 31 35l9 43q-24 0 -35 21q-15 -7 -24 7q-14 17 5 27q2 10 14 14v38q6 28 28.5 35.5t39.5 -12.5l7 30q6 -11 19 -15q18 -2 23 11.5t-9 25.5zM528 270h1h-1 z" />
<glyph unicode="&#x3c;" d="M634 783l-7 -7q-24 -15 -43 -5l-230 -105q0 -2 2 -4q10 0 39 -18q19 -14 20.5 -33.5t-12.5 -30.5l442 -208q7 19 25.5 26.5t43.5 -6.5q17 -27 1 -53l168 -79q38 -18 38 -57q0 -27 -19 -47.5t-45 -20.5q-16 0 -30 7l-443 208q-7 -16 -22 -22q-38 44 -114 77.5t-141 42.5 q4 15 21 23l-225 106q-46 22 -46 59q0 38 47 59l924 421q14 7 29 7q26 0 45 -20.5t19 -47.5q0 -41 -39 -57l-219 -100q2 -27 -16.5 -41t-43.5 3q-7 5 -8 7l-152 -69q-3 -8 -9 -15zM1027 833q-19 15 -18 32.5t16 29.5q-1 -3 -1 -15q2 -9 6 -15q-9 -8 -4.5 -19.5t19.5 -13.5 q4 -1 13 -1.5t13 -0.5q-7 -6 -15 -6h-9q-13 2 -20 9zM1087 867q-18 2 -26 3q0 2 1 3q2 -1 9 -1q9 2 14 8q2 -10 2 -13z" />
<glyph unicode="=" d="M558 714h-255q-5 8 -5 18h-139q-65 0 -65 65t65 65h911q65 0 65 -65t-65 -65h-127q3 -26 -19 -39q2 15 -16 21q-3 0 -278 -12q-19 -1 -57 -1q-3 9 -15 13zM1070 399h-148q-7 -25 -35 -29h-46q-32 4 -39 29h-52q-7 -25 -35 -29h-13q-14 2 -21 6q18 4 18.5 19t-16.5 21 q-48 -1 -142.5 -3.5t-141.5 -2.5q-14 -1 -20 -11h-220q-65 0 -65 65t65 65h911q65 0 65 -65t-65 -65zM907 581h32q14 3 17.5 14.5t-5.5 19.5q8 3 25 5q16 -31 -4.5 -55t-49.5 -2q-12 7 -15 18z" />
<glyph unicode="&#x3e;" d="M299 213q1 0 2 0.5t2 0.5l-153 -72q-14 -7 -30 -7q-26 0 -44.5 20.5t-18.5 47.5q0 39 38 57l139 65q0 1 2 7q56 18 211 83q17 7 51 20t60.5 24.5t48.5 25.5q2 2 2 3q37 5 62 28q4 4 9.5 11t8.5 11q5 5 19.5 10t22.5 13.5t5 27.5q-3 21 -18 38q6 3 42 22q17 6 32 0 q-113 64 -142 79q-22 11 -26 29l-529 241q-38 17 -38 57q0 27 18.5 47.5t44.5 20.5q16 0 29 -7l690 -315q20 -20 53.5 -40t74 -41t53.5 -29q12 -5 20.5 -0.5t9.5 14.5l23 -10q48 -21 48 -59q0 -36 -47 -59l-287 -135q12 -5 17 -9q-30 -20 -66 -47q-8 16 0 33l-227 -107 q7 4 20 12.5t17 10.5q10 14 2 27t-25 5q-131 -83 -238 -116q-20 -8 -14 -26t26 -12zM815 598l41 20q-14 6 -52 26q22 -19 11 -46zM782 363h-10q36 26 46 32q-5 -26 -36 -32zM662 596q3 2 9.5 6t10.5 5q16 -14 9 -26q-1 0 -1 -1q-3 19 -23 17q-2 0 -3 -1h-2z" />
<glyph unicode="?" d="M272 1111q7 20 28 39q9 -13 24.5 -15.5t33.5 8.5q3 3 10.5 11t9.5 10l7.5 7.5t7.5 6t7 4t8 4t8 2.5t10 2t11.5 1t14.5 1q19 4 28.5 17t7.5 27q62 9 123 9q162 0 265 -92q93 -84 102 -220q-14 0 -25.5 -9.5t-15.5 -27.5q-1 -28 -9 -83t-8 -82v-2q-26 -34 -63 -62 q-31 -26 -177 -101v-1q-53 -48 -64 -69v-58q0 -65 -65 -65t-65 65v134q0 35 56 70q17 -28 51 -13h1q22 4 31 20.5t3 33.5l18 9q54 27 90 48q-3 7 -1 21q-18 -8 -38 6q-21 15 -17 37t23.5 29.5t45.5 -5.5q11 -17 8 -34l12 12q9 9 14 13q24 19 46 9q20 35 20 77 q0 98 -62.5 154t-175.5 56q-85 0 -146 -13q5 -12 0 -24q-11 34 -41.5 32.5t-37.5 -36.5v-6q1 -20 13 -30q-7 -1 -13 0v-51q0 -65 -65 -65t-65 65v5q20 11 21 38v47q-4 14 -16 24q2 1 11 10zM550 -33q-26 3 -37 23q-51 7 -92 41q-17 12 -27 27q5 8 7 24q-5 62 -4 72q0 9 2 12 q1 0 3 0.5t3 0.5q33 7 36 35.5t-24 39.5q1 0 2 1l2 2q55 44 130 44t130 -44q51 -42 54 -100q11 -14 11 -34q-8 -80 -58.5 -110.5t-137.5 -33.5zM696 412q-19 -37 -32 -52t-20 -9q-21 15 -17 37t23.5 29.5t45.5 -5.5zM608 638q-1 -1 -5 -3q1 1 5 3z" />
<glyph unicode="@" d="M160 530q0 -151 52 -251q-9 -9 -6 -20q1 -11 15 -34q5 -21 34 -48q34 -67 76 -80q5 -24 21 -34q9 -6 22 -8q33 -42 84 -57.5t108 1.5q52 4 127 33l9 3l4 2t3.5 1.5l4.5 1.5t5 2q8 3 37 14.5t45 17.5q5 1 15 2t17 2.5t12 5.5q1 0 3 2t3 2q1 1 3 1l12 3q13 3 16 12 q16 13 13 36v1q15 5 27 5q27 0 45 -20t18 -48q0 -39 -39 -57q-147 -65 -331 -65q-279 0 -433 154q-152 152 -152 420q0 277 179 482q183 208 439 208q248 0 402 -152q116 -116 141 -280q4 -8 4 -23q0 -1 -0.5 -3t-0.5 -4q4 -28 4 -66q-5 -13 -15 -37q-34 -230 -148 -340 q-12 -12 -49 -20q-16 -5 -27 -3q-34 -22 -68 -22q-111 0 -174 95q-86 -98 -193 -98q-77 0 -130 71q-47 65 -47 144q0 145 81 280q92 155 228 155q76 0 123 -47q18 28 52 28q67 0 67 -62q0 -6 -2 -20l-49 -176q29 -2 39 -34q1 -68 7 -113t25 -90q56 11 96 72q54 81 54 217 q0 174 -110 284q-86 84 -218 107q-10 -6 -18 -7q-20 -1 -53.5 -6t-44.5 -6q9 -29 -11.5 -47t-47.5 1q-11 8 -15 17q-16 -6 -26 -3q-6 1 -16.5 3t-16.5 4q-8 3 -18 13q-92 -41 -167 -127l-16 -18q12 -27 -3.5 -49t-40.5 -12q-86 -140 -86 -316zM536 703q-38 -56 -59 -135 q-1 -7 2.5 -10.5t10.5 -2.5l1 1h1q0 -2 -0.5 -6t-0.5 -7q-4 -12 -2 -25q1 -8 6.5 -10t10.5 3q2 -6 8 -6t10 6h1v2q5 18 10 49q4 14 11 31q2 4 7.5 14t8.5 14q5 9 -4 13q0 2 1 6t1 6q4 9 12 18q4 8 -3 12.5t-13 -0.5l-1 -2q-1 -2 -2 -2q-7 2 -11 -5v-1l-1 -2v-1q-1 -2 -1 -5 q-3 3 -6 3q8 15 20 33q4 10 -4.5 13.5t-13.5 -4.5zM436 59q8 -9 17 -17q-5 2 -15 8l-14 10q1 1 6 1zM807 496l6 -28l-1 16q0 16 -2 25zM531 641q-6 -10 -10 -14q0 1 1.5 5t2.5 5l4 4h2z" />
<glyph unicode="A" d="M264 278v-11q-16 -23 -20 -48q5 -25 24 -20q5 -20 19 -26q19 -8 29 7q2 1 3 4t2 5q15 -13 15 -38q-2 -8 -3 -11l-4 -10h87q65 0 65 -65t-65 -65h-102q-3 9 -15 13q-65 0 -145 -5q-43 6 -72 23q-15 5 -24 -5.5t-2 -23.5h-12q-44 9 -44 63q0 65 65 65h62l198 539 q51 85 63 127q6 20 9 39q0 9 -5 17l54 147q-8 7 -16.5 11t-20 5.5t-17 2t-21 0t-19.5 -0.5q-20 2 -30.5 13.5t-10.5 26.5h-40q-65 0 -65 65q0 33 16 49q6 -7 17 -9h4q11 -24 37 -29q23 -6 64 8t53 15q7 2 12 6q86 0 154 -4q82 -12 146 -8h1q1 1 4 1q2 -4 3 -5l259 -648 q-2 16 11 30t33 12q-18 -55 -5 -79q-11 0 -21 9q-8 6 -9 7l139 -347h51q65 0 65 -65t-65 -65h-139q1 9 -5.5 15t-17.5 5q-21 -2 -54 -7t-57 -9t-27 -4h-49q-65 0 -65 65t65 65h1q-1 1 -4 3q-16 12 -18 30q55 -2 65 34q2 -2 5 -3q11 -19 8 -36.5t-16 -27.5h65q0 13 9 28 q14 16 22 23l-68 171q-7 -1 -14 0q-8 1 -20 6q-17 8 -23 22h-481l-12 -31l-2 2l-2 2t-2 1l-3 1q-9 3 -17 -2l-6 -6l-1 -3l-2 -6q-2 -12 -24 -42q-17 2 -22 -18zM572 975l21 -12q-3 -3 -5 -11v-3q-1 -3 -2.5 -7t-1.5 -6q0 10 1 13q0 10 -9 11.5t-11 -7.5q-12 0 -19 -10v-1 q0 -1 -1 -1q-60 -109 -84 -205q-3 -6 -16 -36l-10 -20t-16.5 -35t-12.5 -38t-1 -32q5 -16 19 -28t35.5 -17.5t42.5 -8.5t50 -2t47 2t43.5 3.5t30.5 2.5h18q58 -5 74 16q21 -17 34 -22q15 -2 22 9.5t-3 23.5l-15 15t-17 18.5t-11 17.5q-5 10 -17 54.5t-13 46.5q-1 0 -1 1 t-1 2q-6 36 -32 112.5t-30 119.5q-5 16 -19.5 16t-19.5 -14q-28 34 -62 50q-11 3 -14.5 -5t6.5 -13zM504 733q2 4 5 12t5 12q0 -2 1 -4.5t1 -3.5q-10 -12 -12 -16zM580 638l3 -3l1 -1q0 -2 1 -2l-1 -2v-2l-6 3v4q0 1 1 1zM492 642l3 -2q-1 -2 -3 -3.5t-4 -2.5q2 2 4 8z M832 510l-13 1v-1h13z" />
<glyph unicode="B" d="M271 155q-1 27 -1 81t-1 82q5 19 7.5 40t3.5 37t-0.5 40.5t-2.5 37t-4 40.5t-4 39q-1 5 -2 15.5t-2 16.5q0 24 -0.5 73t-0.5 73l-1 1q0 4 0.5 9.5t0.5 8.5q-1 2 -3 5l-2 4l-1 1v172q-2 3 -20 24.5t-24 29.5t-15 25.5t-12 33.5h-36q-65 0 -65 65t65 65h46 q39 -18 94.5 -24.5t86.5 1.5q17 8 11 23h268q182 0 286 -91q98 -86 98 -219q0 -152 -105 -239q176 -77 176 -290q0 -155 -103 -243q-110 -92 -315 -92h-546q-65 0 -65 65t65 65h56l1 1q2 2 7.5 6t6.5 5l1 2q0 1 1 3q3 5 10 12v-6q3 -13 12 -18t18 0.5t10 19.5zM403 424 q-1 -32 -4 -96t-3 -96q1 -18 16 -20q-5 -18 -16 -42q24 -20 30 -33q0 -1 0.5 -3t0.5 -4h267q64 0 116 11q59 11 104.5 45t56.5 87q0 1 -0.5 4t-0.5 4q2 0 3 -0.5t3 -0.5q6 26 6 55q0 73 -30 118q-10 -13 -25 -13q-2 -4 -3 -7q-3 10 -11.5 14t-16.5 0q-19 11 -22 14 q-14 5 -23 -5q0 14 10 25t25 13q3 7 5 9q-13 5 -16 7l-8 -2h-13q-21 1 -34 18q-66 15 -163 15h-222q-2 -22 -2 -34q-12 3 -19 -6t-1 -23q7 -16 12 -36q-17 2 -22 -18zM775 690q1 -2 1 -2.5t1 -2.5q134 39 134 179q0 28 -7 49q-13 -13 -31 -9q8 -19 1.5 -36t-22.5 -23 q5 5 7 17v46q-5 14 -15 15q-10 16 -4.5 32t22.5 25q-3 2 -5 5l-8 6q-20 -20 -46 1q-18 12 -18 33q-51 19 -128 19h-216q1 -12 -3 -25q-7 -17 -25 -48.5t-25 -45.5v-102q2 -3 12.5 -21t15.5 -28q5 -12 12.5 -33.5t14.5 -38.5t16 -31h198q20 0 50 2q6 19 25 25t43 -8zM611 212 q-19 15 -18 33t17 30q14 -37 46 -43q7 -1 14 2q-4 -21 -21 -29t-38 7zM846 193q42 55 83 78q-15 -52 -83 -78zM819 906v-46q0 -7 4 -12q-3 1 -7 5q-22 17 -16 41t31 28q-9 -3 -12 -16zM664 271q-9 2 -13 8l12 -6q0 -1 1 -2zM409 1001l-2 -2q3 1 4 3zM411 1003l1 1z" />
<glyph unicode="C" d="M310 805q-13 -35 -46 -30q-28 -87 -28 -194v-3q6 -8 9 -18q5 -36 16 -64q-3 -27 14 -94q21 -89 120 -196q0 -1 -0.5 -3.5t-0.5 -4.5q15 -14 35 -27q12 -13 16 -15q6 -3 13 -3q82 -43 187 -43q44 0 89 5q1 16 19 32q5 3 20 12.5t22.5 13.5t20 10.5t24.5 10t24 4.5 q27 0 39 -17q45 29 95 63q18 12 37 12q26 0 45.5 -20.5t19.5 -47.5q0 -32 -30 -52q-138 -94 -191 -116q-93 -40 -234 -40q-245 0 -396 181q-69 81 -105 181q-14 -2 -28 9q-21 16 -17.5 37t24.5 30q-17 79 -17 163q0 247 140 429q153 198 399 198q125 0 215 -43q7 26 43 31 h60l44 12q65 0 65 -65v-1q-7 -16 -11 -35.5t-7 -48.5t-4 -35q-2 -14 -14 -76t-18 -104.5t-7 -78.5h-4q-65 0 -65 68q0 62 -22 107q-6 2 -12 7q-22 15 -17 39q-14 16 -22 23q-79 70 -224 70q-127 0 -221 -73q-1 -2 -3.5 -5.5t-4.5 -5.5q-49 -49 -76 -91.5t-30 -97.5zM736 993 q11 -20 8 -36q-4 1 -41 1q-12 -1 -18 -8t-4 -16q-19 15 -14 36.5t24.5 28.5t44.5 -6zM315 402v-5q-1 1 -3 8z" />
<glyph unicode="D" d="M1125 593q0 -140 -36 -248q-4 -1 -11.5 -1t-11.5 -1q-1 -5 -9 -20q4 1 12.5 1.5t12.5 0.5q-38 -99 -105 -171q-125 -129 -333 -150q-58 7 -72 24l21 3q10 1 8.5 10.5t-11.5 9.5q-5 -1 -12 -1q0 -5 -8 -7h-12q-2 -1 -5.5 -2.5t-4.5 -1.5v-1l1 1q1 1 2 1q-2 -4 -2 -6 q3 -22 28 -34h-155q-33 -6 -46 0h-218q-65 0 -65 65t65 65h1l4 14q8 -5 26 -13q8 8 20 11q-22 10 -36 19q10 13 22 24q17 14 36 11v21l1 1q5 6 6 16q0 63 11.5 175t13.5 158q0 2 2 22.5t2 27.5v22.5t-3 26.5t-8 21l-3 3v16q0 49 -8 92q-1 4 -5 12q-2 30 -9 42v141 q-6 2 -10 6q-9 6 -13 13q-16 -6 -31 4t-19 32h-3q-65 0 -65 65q0 59 54 64q17 -5 79.5 -19.5t94.5 -26.5q6 7 15 1q1 -3 7 -3h29q-6 3 -18.5 8.5t-18.5 8.5q-42 17 -101 32h336q267 0 419 -171q139 -158 139 -414zM561 1026q-8 5 -24.5 15t-25.5 15h-6q-16 -4 -24 -5 q7 -3 19 -11t19 -11q-24 0 -35 1l-42 3q-8 -1 -26 -3q1 -35 -25 -82q-9 4 -17.5 -0.5t-10.5 -15.5q-1 -23 -12.5 -68.5t-13.5 -69.5q5 -25 24 -20v-281q-10 -6 -11 -16v-60q2 -14 11 -18v-39q-3 -4 -4 -8q-6 -13 -8.5 -29t-2 -27.5t2 -32t1.5 -31.5q2 -14 11 -18v-84h196 q45 0 77 4q-4 6 -5 14q-1 2 -1 7q24 -5 70 -35l17 2q2 0 5.5 1t4.5 2q-9 5 -31 19t-35 21q14 0 18 10q6 11 -1 21q9 -2 16 -8q-2 0 -3 1l-2 1h-4q9 -6 10 -7q0 3 -1 5q8 -3 11 -11q-2 1 -5 1l6 -6v2q-1 1 -1 3q11 -12 9 -29q149 38 220 160q12 1 36 5q3 14 10 21 q-6 -1 -18 -2.5t-17 -1.5q20 40 34 93q28 31 34 114q-4 29 -14.5 78.5t-17 91.5t-8.5 81q0 3 1 4q-22 46 -66 86t-82.5 62t-102 54.5t-92.5 50.5q-6 -6 -19 -8q-6 -2 -31 -4l-2 -2t-1 -2l-2 -4q-4 1 -13 1zM137 100q4 5 48 5q0 1 2 3q-1 1 -3 5t-1 9q0 1 2 3q-48 4 -62 -11 q-5 -8 0.5 -13.5t13.5 -0.5zM862 655l31 36q-1 -3 -1 -7q2 -15 21 -17h3l1 -1q-7 -16 -22 -20t-33 9zM778 89q2 5 1 7q-24 -2 -34 -4q3 -2 13 -4q6 3 7 4q8 3 13 -3zM475 1076q-4 0 -12 1t-12 1q-3 0 -10 -0.5t-10 -0.5l6 -3q13 1 40 1zM636 181q1 -5 5 -9q-6 2 -9 2 q2 4 4 7zM893 691l2 5q3 6 10 9z" />
<glyph unicode="E" d="M529 106q31 -1 93 -7q49 -5 81 -4q24 0 37 1q55 7 66 32q3 9 3 17q4 2 13.5 8.5t13.5 9t12.5 8t14 7.5t14 5.5t16.5 5t17 2.5h8v3q6 28 27 34v131q0 65 65 65t65 -65v-294q0 -26 -19.5 -45.5t-45.5 -19.5h-661l1 1v2q-3 15 -11.5 21.5t-21 4t-24 -7t-25.5 -11t-20 -8.5 q-1 0 -3 -1t-3 -1h-118q-65 0 -65 65t65 65h75q19 43 63 69v94q8 -6 17.5 0t11.5 20q2 279 -6 420q-1 8 -2.5 35.5t-3 40t-6 33.5t-11.5 36v127q-15 -2 -27 7.5t-16 27.5v-2q0 -3 -1 0q-1 2 -3 7l-1 3h-83q-65 0 -65 65t65 65h177q5 -6 16 -9h1q104 0 164 13q9 2 27.5 9.5 t29.5 9.5h3q12 -9 17 -23h186q-2 24 20 37t50 -4q10 -15 8 -33h180q26 0 45.5 -19.5t19.5 -45.5v-272q0 -65 -65 -65t-65 65v118q-5 7 -5 8q-6 21 -37 45q-8 0 -14 3q-14 0 -27 10q-12 8 -17 23h-82q-2 1 -6 2.5t-5 1.5q-29 28 -49 31q-13 2 -49 0q-116 25 -147 -6 q-7 -12 -2 -23l-2 -6h-56q-7 -9 -10 -11q-5 -10 -11 -26q-12 -36 -17 -81q-2 -21 -2.5 -45.5t0.5 -40t3.5 -46t3.5 -42.5q24 -10 45 -44q0 -2 1 -4v-3h99q40 88 115 115q12 37 61 37q65 0 65 -65v-298q0 -65 -65 -65t-65 65v30q-25 -2 -41 27q-3 5 -8 13.5t-6 10.5h-186 q1 -2 1 -8q-1 -32 -26 -41q-2 -14 -2 -19q-4 -11 -10 -17v-93q16 5 25 4q-14 -38 -10 -89t21 -87q-7 -22 -11 -26q9 -10 32.5 -34.5t31.5 -34.5h28q-5 -19 20 -24zM684 199q-33 22 -11 52l3 -6q7 -5 8 -5q6 -2 8 -2h4q8 -30 24 -46q-19 -7 -36 7zM449 296q-3 15 -3 32 q8 -6 17 -2q-3 -19 -14 -30zM450 373l2 -6l-2 -1h-2q0 2 1 3.5t1 3.5zM392 301v-4l1 -1h2l-1 2q-2 2 -2 3z" />
<glyph unicode="F" d="M779 741v-53q3 -13 12 -18t18 0.5t10 19.5v11q5 0 6 1v-43q13 1 30 -9q16 -25 4.5 -48.5t-34.5 -21.5v-88q0 -65 -65 -65t-65 65v24q-29 -13 -59 3t-42 56h-107q5 -30 -25 -44q-2 -4 -11 -16q-13 -16 -32 -18v-81q0 -3 -0.5 -7.5t-0.5 -6.5q-8 10 -20 6.5t-15 -17.5 q1 -28 4 -86t3 -86q5 -26 25 -20q0 -1 -0.5 -3t-0.5 -3q1 -1 7 -1q25 -8 32 -27.5t-6 -34.5h215q65 0 65 -65t-65 -65h-245q-4 4 -11 7q-23 5 -50 6.5t-46 0.5t-49 -3.5t-47 -3.5q-11 -1 -17 -7h-44q-65 0 -65 65l65 65h40q-2 10 1 17q5 9 32 56.5t41 75.5q6 10 15 16v207 q1 2 1.5 5t0.5 5q0 62 3 184.5t4 185.5q-4 9 -9 13v56q-2 3 -5 8t-5 9q-6 8 -29 40q-10 3 -24 12q-17 11 -20 28h-41q-65 0 -65 65t65 65h122q-6 -8 -1 -17.5t19 -11.5q21 1 62.5 10t63.5 10q8 2 14 9h269q-1 13 6 25q-2 -11 9 -17q12 -9 22.5 0.5t6.5 22.5h30q9 2 14 8 q25 -13 23 -39h229q26 0 45.5 -19.5t19.5 -45.5v-21q-9 4 -17.5 -0.5t-10.5 -15.5q-1 -1 -1 -5q1 -6 4 -12q5 -20 2 -50q-1 -3 -3 -15.5t-3 -17.5t-2.5 -16.5t-1 -17.5t0.5 -16t2.5 -16t6 -13t9.5 -12t14 -8v-38q0 -65 -65 -65t-65 65v132q-19 2 -54.5 17t-48.5 18 q-18 4 -35.5 5t-46.5 0t-35 -1q-39 4 -41 38h-43q-26 16 -80 21q-38 6 -62 -3q-19 -2 -37 -8q-22 -10 -14 -27q-7 -23 -34 -27q-9 -6 -12 -27q-2 -10 -3 -25.5t-3 -27.5t-7 -23q-8 -9 -14 -14v-59q6 -40 7 -60q13 -6 21 -23v1q0 -4 4 -8q2 -5 8.5 -11.5t7.5 -8.5 q9 -12 10 -13h137q56 39 86 42h2v47q0 65 65 65q30 0 46 -15q-3 -9 0 -57q0 -23 2 -30q-9 4 -18 -0.5t-11 -15.5zM445 527q2 0 3 1q-2 0 -3 -1zM457 529l1 1q-1 0 -3 -1q-1 -1 -2 -1q3 0 4 1zM444 731l-1 1z" />
<glyph unicode="G" d="M1044 232v-39q2 -13 10 -18t17 -1v-43q0 -79 -184 -125q-131 -33 -222 -33q-247 0 -410 180q-160 175 -160 430q0 276 137 449q146 182 403 182q126 0 218 -43q12 17 37 18q44 0 60 -5q16 25 56 25q65 0 65 -65v-49q-11 3 -22 -5q-13 -18 -16 -48t0.5 -75t3.5 -54 q2 -16 14 -20t20 6v-19q0 -57 -57 -57q-31 0 -54 20q-26 23 -26 59v11q-10 0 -19 6q-19 11 -36 29t-25 29.5t-25 40t-22 36.5q-1 1 -3 4l-18 6q-14 11 -32 18q-9 28 -58 28q-24 6 -40 7q-29 5 -45 1q-52 -3 -63 -8q-22 2 -33 2q0 18 -15 23t-23 -11q-4 -11 -19.5 -28 t-16.5 -19q-4 -7 -4 -10q-23 -10 -48 -50q-1 -1 -3 -2t-3 -2q-16 -2 -24 -2q-23 -11 -15 -28q-13 -12 -25 -25q-70 -79 -51 -117v-1q-43 -105 -43 -252q8 -8 13 -19.5t10 -28t6 -20.5q10 -37 -18 -52l6 -28q8 -7 15 -22q2 -2 29.5 -51t46.5 -61q16 -28 3 -50q2 -2 7 -7.5 t8 -8.5q126 -137 314 -137q133 0 225 36q-14 19 -9 41q15 47 56 51h4v97q-13 19 -49.5 46t-47.5 39h-159q-65 0 -65 65t65 65h178l1 -1q2 0 2 -1q5 -12 20 -13q8 0 17.5 -0.5t20 -1.5t17.5 -1q1 0 4 -0.5t5 -0.5q22 -31 76.5 -25t62.5 42v2h21q65 0 65 -65t-65 -65h-12 q13 -24 -8 -47l-1 -1h1q-6 -17 -7 -23q-4 -12 -12 -20v-73q-9 3 -17 -1.5t-10 -15.5zM881 809q12 -19 7 -39q-14 8 -24.5 -5.5t-0.5 -24.5q-19 -5 -34 8q-22 16 -17 39t27 29v-2q1 -12 10 -17.5t18 -1.5t11 16q2 -2 3 -2zM483 1065l6 3q6 4 16 5q-5 -2 -14.5 -7t-14.5 -8z " />
<glyph unicode="H" d="M134 1153q40 -24 100 -2q10 2 41 12.5t50 12.5h39q4 0 8 3h113q65 0 65 -65t-65 -65h-78q-14 -12 -46 -25v-109q5 -7 9 -18v-6l1 -1q0 -2 2 -2q20 -31 0 -54q17 -8 24 -30q0 -60 10 -85q23 14 51 -3q9 16 26 21t40 -8q12 -20 7 -42h289q-9 14 -5 35q4 18 20 29l3 3 q2 1 4 2.5t3 3.5q0 1 1 1q6 6 7 5q8 5 14 5v213q-12 16 -25 28q-3 1 -6 1.5t-5 2.5q-18 -10 -36 0.5t-20 32.5h-27q-65 0 -65 65t65 65h323q65 0 65 -65t-65 -65h-32q-12 -34 -42 -61v-35q-6 -13 -6 -37q-9 3 -17 -1.5t-10 -15.5v-92q1 -8 7 -16q0 -168 15 -308l-2 -6v-225 q1 -16 13 -19v-57q6 -1 39 -4q17 -5 26 -17t8 -25q65 0 65 -65t-65 -65h-331q-65 0 -65 65t65 65h69q16 37 59 48v379h-5q-4 -20 -21 -27.5t-38 6.5q-13 9 -16 21h-40q-23 5 -45 12q6 8 3 18t-15 14q-47 -2 -115 -7.5t-96 -5.5q-13 -1 -18.5 -8.5t-3.5 -16.5q-4 -2 -5 -6 h-83q15 -14 12.5 -34t-20.5 -29v-96q6 -2 12 -6q11 -21 7 -39.5t-19 -27.5v-122q50 0 72 -45q6 -16 7 -28h50q65 0 65 -65t-65 -65h-330q-65 0 -65 65t65 65h57q5 11 14 17v179q3 10 18.5 56t17.5 73q1 44 -4.5 91t-16.5 107.5t-15 89.5v267q-42 12 -61 39h-10q-65 0 -65 65 q0 45 31 58q-2 -12 8 -19zM415 324h6q35 -10 33.5 -42t-36.5 -38h-6q-20 2 -30.5 14.5t-10 26.5t12 26t31.5 13zM374 549l-1 1q0 -1 1 -2v1z" />
<glyph unicode="I" d="M548 327q-1 1 -1 4v666q-35 -10 -63 33q-12 8 -17 19h-218q-65 0 -65 65t65 65h64q3 14 18 23q17 -17 53 -20q16 4 18 18q15 -4 32 -4q15 -4 26 -17h45q1 -3 11 -8q-7 -7 -7 -16q27 -1 80 -2t79 -2h1q20 12 8 28h301q65 0 65 -65t-65 -65h-264q-10 -20 -37 -47v-106 q6 8 10 12q-9 -25 3 -61q-9 5 -13 14v-148q-14 -5 -17 -18q0 -51 -2.5 -168.5t-2 -204.5t4.5 -169q3 -13 12 -18t18 0.5t10 19.5q0 2 -0.5 6t-0.5 6q8 -10 12 -13q10 -12 25 -6l3 -18h1q2 -15 21 -18q25 -5 61.5 -3t52.5 21h103q65 0 65 -65t-65 -65h-132q-13 -16 -31 -20 h-27q-24 3 -35 20h-6q-2 0 -5 -2t-4 -2v-1h-1v1l-1 -1h1q-1 -1 -3.5 -1t-4.5 -1l-1 1q-14 -3 -24 0q-2 1 -6 2.5t-6 3.5h-290q-19 14 -38.5 16.5t-52.5 -3t-44 -6.5t-17 -7h-1q-65 0 -65 65t65 65h211q25 48 87 59v22q-5 0 -10 3q-23 10 -28 31q-6 3 -10 7q-1 0 -2 1l-2 2 q12 28 2 49l-4 4l-2 1q8 8 18 11v-1q6 -15 18.5 -15t17.5 13q1 -1 2 -1v6l1 2v3zM426 173q-13 7 -16 20l16 3q16 2 24 6q16 6 31 27q16 -31 -5 -54t-50 -2zM732 843q-13 29 -7 55l1 1q0 -17 21 -21h3q0 -24 -18 -35zM611 1179h23q-10 -4 -20 -6zM711 233q1 -3 4.5 -12.5 t5.5 -15.5q-7 11 -10 28zM421 232q6 6 15 9l-3 -3q-5 -4 -12 -6z" />
<glyph unicode="J" d="M477 66q113 10 186 63h1q27 14 45 31l-2 2q-2 1 -3 2q34 25 40 65l12 -4q11 27 19 62q7 3 11 13q7 48 8 96.5t-3 124t-5 96.5q-2 6 -5 9v20q-6 9 -8 23q0 2 -0.5 6.5t-0.5 7.5q-4 25 -6 52q3 17 15 27v62q-12 10 -15 37q0 2 2 10q7 -15 21.5 -12t16.5 23q0 51 -2 77 t-15.5 61.5t-41.5 63.5q-12 9 -22.5 3.5t-10.5 -17.5q-14 -1 -19 -13h-259q-65 0 -65 65t65 65h29q4 -9 18 -11q44 0 132 -3t132 -4q16 4 18 18h148q29 15 65 19t61 -11l6 -8h71q65 0 65 -65t-65 -65h-169q-19 -12 -36 -21v-348q-2 -62 -13.5 -184.5t-12.5 -185.5 q5 -23 22 -21q-5 -38 -11 -58q12 -9 17 -16q-15 -5 -22.5 -14.5t-14 -29.5t-9.5 -26q-2 -8 0 -14q-9 2 -10 3q-21 -34 -48 -63q5 -17 -1 -33q-3 -5 -6.5 -9t-9 -7.5t-8.5 -6t-10 -5t-10 -3.5t-11 -3.5t-10 -3.5q-4 -1 -14 -6l-10 -4l1 1v1q-20 -9 -35 -2q-77 -30 -178 -30 q-104 0 -209 41q-117 46 -173 126q-12 18 -12 38v53q-6 2 -10 6q-22 16 -17 39t27 29v66q-23 8 -27 39v13q4 26 27 34q5 57 65 57q65 0 65 -65v-20q-31 -38 -44.5 -105t5.5 -96q10 -17 39 -34v-1q1 -2 1 -15q2 -12 9.5 -17.5t16.5 -2.5q4 -9 20 -13q3 0 4 1q9 1 13 5 q7 -4 23 -12q-2 -17 21 -22q17 -2 51 -15.5t56 -17.5q5 -12 19 -13z" />
<glyph unicode="K" d="M383 701v-6q2 -13 10 -18t17 -1q2 -10 11.5 -13.5t20.5 2.5q11 14 14 31q0 8 -3 14l21 3q12 0 19 -3l13 13q21 6 39 18q9 -2 16 4q10 8 48.5 33t53.5 37q1 1 5 4q10 9 15 15q29 17 66 73.5t58 65.5q18 10 9 26.5t-27 8.5q-1 -1 -3 -1q-34 20 -40 48v1l-1 2q-48 8 -48 64 q0 10 1 15q9 -1 17 7q1 0 3 2t3.5 4t4 5t3.5 4q14 8 25 9q-6 -20 20 -25q20 1 59.5 7t59.5 6q12 2 16.5 12.5t-1.5 18.5h159q65 0 65 -65t-65 -65h-29l-319 -309q5 -11 7 -24.5t1.5 -33t-0.5 -24.5q-1 -16 -10 -28q23 -8 30 -32v-6q1 -3 3 -7q62 -50 104 -126l185 -337h67 q65 0 65 -65t-65 -65h-105q-10 0 -23 7q-10 -6 -18 -7q-7 0 -19 -1.5t-18 -1.5q-39 5 -41 39q-24 25 -24 85q4 21 21 32l-74 134q-20 -13 -42 5q-20 16 -17.5 35.5t20.5 29.5l-26 48q-32 55 -67 85q-1 10 -8.5 15t-18.5 1q-35 58 -72 37q-10 -7 -10 -17q-15 7 -23 26l-18 6 l-56 -55q1 -11 -3 -21q-11 -21 -19 -66h-4q-3 10 -13 12.5t-20 -5.5q-4 -6 -7.5 -12.5t-5.5 -14.5t-3 -13t-1.5 -14.5t-0.5 -13.5v-15.5v-14.5q1 -9 7 -15v-96q40 -11 56 -34t9 -50h60q65 0 65 -65t-65 -65h-384q-65 0 -65 65q0 30 14 47q27 0 53 6q-3 -9 2.5 -16.5 t17.5 -9.5q16 2 36 14t30 13q18 4 18 21t-19 19q1 5 1 17q5 5 6 7q9 -8 19.5 -3t12.5 21q0 8 18 72t20 94q2 120 2.5 158t-3 158t-4.5 159q-4 12 -13 15.5t-17 -2.5v171q-24 -2 -34 -2q-35 4 -40 33h-55q-65 0 -65 65q0 43 29 58q8 -5 18 -2q7 3 20 5q2 0 3 -0.5t3 -0.5 q14 0 29.5 0.5t34.5 1.5t30 1q24 -2 37 -2q78 -5 140 4h100q65 0 65 -65t-65 -65h-68q0 -23 -24 -37q-12 -3 -28 -5v-263q23 -14 18 -37q-8 7 -18.5 3.5t-13.5 -17.5zM535 784l4 2q-1 -1 -9 -7t-13 -9q-2 8 -3 11q10 -5 21 3zM695 906l18 17q-3 -3 -9.5 -12.5t-10.5 -14.5 q1 2 1 5.5t1 4.5zM641 853l-3 -6l-2 -1q-2 -2 -3 -2q1 1 3 4zM629 661l4 -2v6z" />
<glyph unicode="L" d="M113 1176h152q10 1 16 11h103q-6 -20 20 -25h73q24 5 18 25h189q65 0 65 -65q0 -45 -32 -59q1 -1 2 -3.5t1 -4.5v-6q-2 -36 -32 -42.5t-43 21.5q10 8 8 19.5t-16 16.5q-16 0 -38 -2t-37.5 -3.5t-16.5 -1.5q-4 0 -5 -1q-6 15 -22 14q-37 -7 -58 -38q-2 0 -6.5 -0.5 t-6.5 -1.5q-1 0 -1 -1v-23q-9 -23 -10 -41q2 -13 10 -17v-547q12 0 26 -9q15 -22 5 -46.5t-31 -24.5v-105q9 4 31 -1q4 -4 18 -14q24 -10 25.5 -32.5t-15.5 -33.5l1 -2l3 -3h36q4 -9 18 -11q35 1 105.5 3t105.5 3q8 1 11 5h89q2 0 3 1q32 6 63 44.5t52 50.5q17 -9 28 14 q0 1 9 98q14 6 15 22q-3 14 -14 25v37t1 37q-7 22 -27 15v16q14 35 61 35q65 0 65 -65v-277q14 0 29 -9q15 -24 4.5 -47.5t-33.5 -23.5v-38q0 -26 -19.5 -45.5t-45.5 -19.5h-254q-21 -7 -36 -7q-8 1 -22 7h-96q-9 -13 -22.5 -15.5t-29.5 8.5q-1 1 -2 1q-3 0 -10 -0.5 t-10 -0.5q-8 1 -22 7h-6q-13 -16 -31 -20q-13 0 -39 -3t-40 -4q-30 4 -39 27h-282q-65 0 -65 65q0 22 7 35q4 -7 17 -7q30 0 54 37h61q9 27 34 42q6 4 19 10t20 9v-12q3 -13 12 -18t18 0.5t10 19.5q0 12 2 42h3v52q1 16 13.5 150.5t14.5 205.5q0 22 -2 46t-5.5 54t-4.5 46 q0 6 -1.5 56t-6.5 75q-3 7 -8 12v48q-9 4 -18 13q-7 8 -17 16t-23 17.5t-20 14.5q-2 0 -8 0.5t-10 0.5q-32 4 -39 27h-57q-65 0 -65 65q0 50 38 61q8 -6 16 -7zM516 1028q2 0 3.5 1t3.5 1h1q0 -2 1 -3q-1 0 -4 0.5t-5 0.5z" />
<glyph unicode="M" d="M1057 833v-436q0 -19 15 -43v-85l-4 -6t-3.5 -5t-1.5 -4q-6 -17 -6 -61q1 -14 15 -20v-43h85q65 0 65 -65t-65 -65h-332q-65 0 -65 65t65 65h59q-8 7 -6 24.5t4.5 26.5t10 26.5t9.5 24.5t5.5 21t3.5 16t2 8q0 11 3 23q0 2 3 13t6 16q-6 9 -7 23q0 30 2.5 89t3.5 89 q3 20 18 30v35q-21 -19 -47 1q-20 15 -17 36.5t21.5 30t42.5 -2.5v107q-17 1 -28 16q-1 1 -3 2q-1 1 -3 2q-25 -26 -61 -38q-9 -3 -19 -1l-119 -347q-5 -15 -25 -30q-22 -14 -36 -14h-73q-14 0 -36 14q-21 16 -25 29l-121 344q-2 2 -3 5q-11 18 -30.5 52t-25.5 45 q-9 13 -24 41q-12 -10 -29 -5v-86q-8 -4 -10 -15q1 -26 10 -110v-87q-8 6 -18 1.5t-12 -16.5q2 -40 9.5 -112.5t9.5 -106.5q0 -5 -1 -18t-0.5 -20.5t2.5 -17t8 -15.5t16 -8q20 -13 33 -53q7 -27 12 -41q0 -1 1 -3l2 -4l1 -2q8 -10 11 -14q10 -12 14 -24h33q65 0 65 -65 t-65 -65h-326q-65 0 -65 65t65 65h16q8 14 19 18q6 6 40 49v28q8 -10 20 -5.5t14 21.5q-2 103 -16.5 307t-16.5 307q-1 1 -1 3v137q-46 38 -62 67q-34 13 -34 60q0 65 65 65h209q15 0 35 -15q21 -14 26 -28l98 -280q16 3 36 -9q11 -19 8 -38t-18 -28l32 -90q0 -10 1 -29 t1 -28q1 -11 8 -16.5t15.5 -4t12.5 9.5q11 -9 26 0q17 12 31 91h1q5 25 17 47t30 48t27 44q10 15 20 19l92 263q5 16 25 29q21 15 36 15h219q65 0 65 -65q0 -58 -51 -64q0 -11 -2 -27q-9 -20 -25 -30q-9 -4 -23 -2v-149q-12 -3 -15 -17zM789 337q-2 0 -3 1q-10 13 -17 17 q-14 4 -22 -3.5t-6 -19.5q-8 25 15 42.5t53 -1.5q21 -32 -4 -61q5 19 -16 25zM751 317q-7 7 -8 10l6 -6zM380 770l2 -5q0 -2 1 -3q-1 2 -2 4.5t-1 3.5zM123 153q-1 -1 -2 -1q1 0 2 1z" />
<glyph unicode="N" d="M343 239q3 -43 14 -62q-14 -6 -13 -21t20 -17q30 -5 55 -14q6 -4 14 -5q19 -6 44 -8q16 4 18 18h17q65 0 65 -65t-65 -65h-379q-65 0 -65 65t65 65h73v28q7 3 11 9q29 50 41 318q-5 14 -16 16t-19 -7q-1 4 -1.5 12.5t-0.5 12.5q2 10 3.5 29.5t2.5 29.5q1 14 2 42t2 42 q1 4 4 8q6 14 -3 23q6 150 6 301q-4 12 -14 15.5t-18 -3.5v6q-20 4 -54 38l-4 2l-4 2t-4 3h-48q-65 0 -65 65q0 63 62 65q2 -2 4 -5l2 -2q30 -16 104 -24q12 2 16.5 12.5t-1.5 18.5h109q11 0 30 -12q21 -11 26 -20l160 -271q21 -69 61.5 -145.5t97 -168t79.5 -132.5 q14 -18 28 -4l41 -69q17 41 68 85v27q4 27 18 56.5t19 54.5q6 56 5 87t-9 101.5t-9 91.5q-7 22 -24 16v93q-16 -2 -25 2q-11 3 -20 13.5t-10 22.5v1q-5 4 -17 12.5t-19 14.5t-13 14h-62q-65 0 -65 65t65 65h30q-5 -19 20 -24q2 -1 9 -1q7 2 12 6q82 19 193 14q8 2 11 5h78 q65 0 65 -65t-65 -65h-16q-21 -4 -41 -19v-973q0 -26 -19.5 -45.5t-45.5 -19.5h-40q-9 0 -31 11q-21 13 -25 21l-516 884q-5 -3 -15 -5h-16v-188q22 7 43 -7q18 -28 1.5 -53.5t-44.5 -13.5v-389q2 -2 6 -5.5t6 -5.5q-3 -4 -5 -10zM208 342q-2 37 -1 55q1 -1 5 -1 q0 -8 -1.5 -26t-2.5 -28zM905 266l9 -15v14q-7 0 -9 1zM336 130h4q-3 3 -4 6v-6z" />
<glyph unicode="O" d="M1004 1075v-6q-2 -20 -11 -29q24 -30 42 -61q97 -166 97 -389q0 -222 -97 -385q-133 -228 -413 -228q-279 0 -419 227q-105 170 -105 395q0 224 103 390q140 221 419 221q194 0 318 -111q15 15 36.5 8t29.5 -32zM938 346v1q27 69 36 158q0 18 -15 22.5t-23 -11.5l-2 -6 q-4 -6 -7 -19q3 18 5 58v9l-3 6q-4 6 -7 7q0 1 -1 1t-2 1q-1 0 -3 0.5t-4 0.5q-5 0 -6 -1q9 61 12 123q4 27 26 34q-6 86 -6 118q2 14 8 20q-10 20 -23 44q-101 168 -303 168q-205 0 -309 -161q-83 -130 -83 -320q0 -193 85 -326q10 -16 15 -23q32 0 42 -34v-15 q47 -45 103 -67q8 3 21 5h64h1q72 7 92 10q-7 -22 19 -27q63 -4 149 55q4 6 6 14q3 1 16 9q53 10 62 88q18 17 33 55q0 1 1 1zM557 313q0 -1 1 -2q-11 0 -14 1q-20 -2 -21.5 -19t18.5 -21q1 0 3 -0.5t4 -0.5q4 -1 14 -4q-6 -18 -22 -23t-35 8q-21 15 -17 37t23.5 29.5 t45.5 -5.5zM1004 30q-16 23 -1 44.5t43 15.5q-5 -11 -42 -60zM1057 31q1 0 3 1q-4 -3 -9 -9.5t-8 -10.5h-7l12 15q2 1 9 4z" />
<glyph unicode="P" d="M556 112q12 0 36.5 -3t36.5 -3q23 5 18 24h44q65 0 65 -65t-65 -65h-545q-56 0 -64 48q4 5 10.5 14.5t9.5 13.5q4 -2 14 -2.5t17 -1.5q11 2 15.5 10t1.5 17q17 7 40 26h3q7 1 11 5h25q-4 7 -4 15h1q16 3 18 17q2 1 8 7q0 -6 -0.5 -18t-0.5 -18q3 -13 12 -18t18 0.5 t10 19.5q0 19 4 64.5t5 64.5q4 25 4 94q-1 1 -1 3q-1 1 -1 2v43q8 87 0 241v186q-2 -1 -5 -3t-5 -4q-1 17 -1 49q-6 17 -21 16.5t-19 -18.5q0 -26 1 -39q-30 24 -8 53t58 10v95q-12 1 -22 8l-2 2q-1 1 -3 2.5t-3 3.5h-1l-6 6q-24 16 -37 24q-8 8 -13 19h-64q-55 0 -64 46 q13 1 19 16q0 9 6.5 23t14.5 14q23 5 17 27q6 -6 16 -7q54 0 159 -7t158 -7q24 5 18 25h149q202 0 323 -94q128 -99 128 -270q0 -169 -127 -271q-118 -97 -301 -97h-15q-5 -27 -36 -33h-15t-16.5 0.5t-15 2t-14.5 4.5q-12 -13 -30 -12q12 -22 4 -44l-7 7v3q-1 1 -1 3 q-1 0 -1 1t-1 2l-1 1q-6 9 -16 9h-3q-10 8 -30 15q-2 0 -3 1h-1q15 17 36 13q-10 10 -13 27h-56v-73q-6 9 -13 13q-18 5 -25.5 -8t5.5 -26q8 -32 10 -155q3 -13 12 -18t18 0.5t10 19.5v3q3 -4 7 -14q0 -3 3 -8q31 -37 37 -58v-1h39q1 -15 21 -18zM575 585h52q0 1 2 7 q31 -4 84 14q70 7 87 15q0 -12 9.5 -17.5t22.5 2.5q15 13 46 31t43 27q8 -18 30 -5q96 103 55 242q-6 18 -24 17q-15 40 -42 51q-12 4 -22 -4q-21 23 -48 36q-83 56 -226 56h-57q0 -1 -0.5 -4t-0.5 -4q-137 -15 -150 -168q2 -19 11 -28q-3 -19 -4.5 -42t-1.5 -39t0.5 -41 t0.5 -35q2 -16 10 -27q0 -2 1 -6.5t2 -7.5q10 -22 31 -27q7 -7 10 -8q23 -21 37.5 -26.5t40.5 -3.5q0 -3 1 -4v-1zM467 1038q4 4 9.5 10t8.5 9h-24q5 -9 6 -19zM472 358q-7 4 -12 13l2 1q1 0 3 1q4 -2 9 -6t8 -6v-9q-6 2 -10 6z" />
<glyph unicode="Q" d="M141 840l-4 -8l-4 -8q-1 3 -4 4q12 30 84 187q59 83 139 129q5 7 16 18q30 38 86 46q20 0 34 -11q56 13 127 13q280 0 415 -231q97 -166 97 -389q0 -222 -97 -385q-134 -228 -413 -228q-17 0 -51 2l-54 -63q76 17 137 17q58 0 143 -29q39 -14 69 -21q1 -6 7 -12 q20 -16 41.5 -23t36 -9t41 5t36 10.5t42 19t40.5 18.5q1 0 1 1l2 1q11 -16 13 -37q-3 -8 -10 -19q-30 -7 -79.5 -31t-72.5 -31q-26 1 -51 -7q-18 -6 -16 -21q-5 2 -20.5 8t-24 8.5t-24 5.5t-20.5 -1q-29 -12 -8 -36q14 -10 33.5 -16.5t32.5 -9t39 -6t34 -4.5q2 0 12 -2 q-140 -10 -177 7q-3 1 -6 4q-82 6 -149 16q-15 2 -59 7t-73.5 10t-56.5 13q-9 -4 -29 -14q-12 -6 -26 -6q-32 0 -59 30t-27 65q0 21 14 38l31 37q86 18 117 59q9 11 5.5 22t-17.5 13q0 6 -5 14q-1 0 -2 2t-3 2q-10 7 -20 4q-161 72 -243 256q-24 51 -41 113q1 32 5.5 97.5 t6.5 99.5q-5 17 -19.5 16.5t-19.5 -15.5v14q0 23 2 69q7 -2 13.5 2t8.5 12q9 -5 18 0.5t11 20.5q5 67 30 119q8 18 -8.5 27t-26.5 -9zM946 860q3 -20 9 -36q-18 22 -66 66q-1 4 -2 12t-3 12q-2 6 -22 47q-7 12 -42.5 38.5t-50.5 24.5q-10 -6 -12 -8q-70 64 -142 64 q-205 0 -309 -161q-83 -130 -83 -320q0 -133 41 -241q4 20 24.5 27.5t44.5 -6.5q18 -31 -1.5 -57t-48.5 -6q7 -15 25 -43q105 -166 309 -166q90 0 156 31q0 -16 21 -19q45 8 50 10q72 27 116 120t51 183q1 13 -7.5 19t-18.5 3q8 48 11 90l-19 -19q0 1 -0.5 3t-0.5 3 q-3 5 -5 17q6 6 7 17q-2 107 -21 188q22 -36 36 -82q8 -42 8 -46l-2 -1l-3 -3q-9 -16 1.5 -26.5t26.5 -1.5q27 21 8 86q-21 70 -58 121q9 -3 18 6q12 -22 39 -104q8 -20 25.5 -13t11.5 27q-29 100 -54 137q-14 20 -30 31v11q-5 16 -19 16t-20 -14q-13 -4 -13.5 -17.5 t14.5 -19.5zM178 529v-46q3 -13 12 -18t18 0.5t10 19.5v46q-6 17 -21 16.5t-19 -18.5zM918 271q18 29 34 66q-42 -139 -123 -171l-12 -4q60 41 101 109zM901 585q4 -4 10 -4q11 -4 16 -13.5t7.5 -26.5t4.5 -24v-1q-22 2 -33 24t-5 45zM1150 168v7q-6 17 -21 16.5t-19 -18.5 v-7q-6 21 10 38.5t42 9.5q2 8 8 12q-13 -21 -19 -70q-5 -7 -11 -21q-2 2 -2 4q-6 2 -12 7q9 -2 16 4t8 18zM923 619q0 22 10 36q1 -15 3 -41q-2 2 -6.5 3t-6.5 2zM952 -121q8 2 24 8l-2 -6q-14 -2 -22 -2zM896 822v8q3 -4 10 -11l-2 -1h-2l-1 -1q-1 -1 -2 -1zM989 594 q2 2 5 3l-2 4q-1 -1 -4 -3v-2z" />
<glyph unicode="R" d="M179 119q12 3 16 13t-2 18q2 1 6.5 1.5t6.5 0.5q14 3 17.5 15.5t-6.5 19.5q17 6 31 10v15q9 -2 15.5 4t7.5 18q-2 74 -11.5 210.5t-11.5 170.5v293q-7 14 -27 43t-31 54t-9 49v3h-56q-65 0 -65 65t65 65h33q2 -15 21 -18h106q16 4 18 18h40q13 21 39 22h33q15 -4 29 -22 h179q168 0 278 -76q129 -89 129 -253q0 -185 -172 -272v-6q-3 -10 -12.5 -25.5t-11.5 -23.5q41 -20 45 -64q-2 -16 -8 -26q38 -54 68 -103v-1q-11 -14 1 -37t34 -46.5t24 -27.5q5 -13 15 -14l48 -82h80q65 0 65 -65t-65 -65h-115q-8 0 -30 11q-20 11 -25 19l-97 156 q-19 -8 -38 7q-18 13 -18 30.5t14 29.5l-84 137q-81 131 -197 133h-173v-345q4 -6 11 -10q14 -7 39 -9q24 -9 32 -29h47q65 0 65 -65t-65 -65h-381q-65 0 -65 65q0 52 40 62l6 -2h6q18 -6 66 -6zM363 946q1 -33 4 -99t3 -100q2 -12 8 -16v-78h194q15 0 55 2q273 25 273 203 q-28 35 -51 59q-11 34 -27 59l-8 8q-3 4 -13 12q-1 0 -2 0.5t-3 0.5q-1 1 -5 3.5t-5.5 3.5t-5 3.5t-5 4t-4.5 4t-4 4.5t-3 4t-3 4.5t-1 5.5q-6 17 -21 16.5t-19 -18.5q0 -5 1 -6q-34 20 -68 28q-2 -31 -37 -37h-19q-20 2 -30.5 13.5t-10.5 26.5h-178v-94q-12 -3 -15 -17z M723 273q12 -21 7 -41t-22 -27q12 18 12 70q2 -2 3 -2zM660 265q8 11 20 15v-33q-13 13 -20 18z" />
<glyph unicode="S" d="M641 135q0 2 -1 3q24 0 38 14q13 -27 0 -50q104 10 168 60q21 16 35 33q-3 1 -6 4q-20 14 -17.5 35t20.5 30t42 0q9 32 9 67q0 26 -8 50q-18 -9 -35.5 1t-20.5 36q0 27 2 34q-39 30 -105 51q-38 24 -58 37q-4 3 -23.5 12.5t-28.5 15.5q-5 14 -22 14q-1 -1 -3 -1 q-5 -1 -7 -4q-89 32 -234 38q-14 -2 -19 -10h-4q-48 32 -76 44q-1 1 -2 3t-3 4q-9 9 -15 10q-75 75 -75 196q0 161 115 258q116 98 308 98q120 0 221 -55q8 18 24.5 22.5t31.5 -4.5q12 37 61 37q65 0 65 -65v-12q-14 6 -22 -6t0 -24q0 -7 3.5 -30t5.5 -29q6 -54 13 -79v-69 q0 -68 -65 -68t-65 68q0 31 -18 59q-14 -24 -40.5 -17t-30.5 40v7q3 18 16 28q-3 2 -7 6q-85 61 -193 61q-147 0 -224 -67q-45 -39 -62 -96l3 -3q-2 -8 -2 -9q2 -9 5 -13v-1l-3 -6q-4 -9 -4 -24q0 -18 1 -26v-2q2 -12 10.5 -17t17 -1t11.5 15q6 -6 16 -9q0 -1 -1.5 -3 t-2.5 -4q7 -9 10 -18v-6q-1 -28 -24 -40q38 -37 105 -59q-5 -5 -7 -11q-4 -18 9.5 -25t23.5 5q7 -1 19 -1q16 -1 35 -1q21 -12 45.5 -21.5t60.5 -20t48 -14.5q40 -14 116 -38t105 -34q2 -15 18 -16q3 -4 9 -6q3 -1 13.5 -3t15.5 -5q36 -22 69 -104q8 -37 8 -73 q0 -177 -135 -274q-122 -87 -303 -87q-115 0 -202 28q-5 -3 -14 -5h-7q-33 4 -39 28l-1 1q-2 0 -2 1v-5q-3 -22 -20.5 -31t-39.5 -7h-3q-2 0 -3 1h-1q-17 -21 -52 -21q-65 0 -65 65v47q6 4 7 16q1 2 2 3l3 3q46 109 12 173q-10 13 -24 9v52q0 68 65 68t65 -68 q0 -226 315 -228q-9 11 -10 19q9 -11 20.5 -5.5t13.5 21.5zM523 793q20 5 18 22h5q0 -25 -17.5 -38t-42.5 4q-16 10 -18 28q13 -16 55 -16zM586 879q6 6 17 9q-1 -4 0 -9l-2 -2t-1 -2q-2 1 -7 2t-7 2zM578 761q-11 8 -15 17l3 -3q4 -2 22 -21q-2 2 -5 4t-5 3zM564 806l-3 -3 q0 3 2 5l1 -1v-1zM1000 1107v-1l-1 1h1z" />
<glyph unicode="T" d="M385 1200q9 -9 30.5 -15.5t43.5 -10t55.5 -5t53.5 -1.5t51 0.5t36 0.5q16 4 18 18h382q25 0 45 -20q18 -17 20 -40q-2 -2 -2 -3q-18 -41 -25 -121q-5 -10 -5 -25q-18 2 -22 -17q-7 -61 -7 -148q-1 0 -3 -1q-26 15 -66 6v142q-7 9 -37.5 33.5t-41.5 47.5q-2 13 -1 16h-98 q-43 -18 -100 -50q-2 -2 -4 -2q-8 -9 -16 -11l-12 -9v-42q-10 -4 -13 -17q-1 -27 -1 -79q-4 1 -12 -2q0 -1 -1 -1t-2 -1q-11 -8 -11 -17t9 -15q9 -28 14 -48q-2 -82 -2 -124q0 -1 -2.5 -23t-3 -40.5t5 -38.5t19.5 -27v-66q6 -2 10 -5q10 -15 8 -30l2 -1q2 -2 3 -2 q14 -22 6 -45t-29 -25v-147q55 -19 91 -23q28 -9 33 -36h101q65 0 65 -65t-65 -65h-78q-1 4 -11 7q-18 1 -71 6t-70 4.5t-71 -4.5q-10 -4 -13 -11q-31 1 -122.5 5.5t-141.5 5.5q-14 -1 -20 -11q-45 9 -45 63q0 65 65 65h126q13 42 49 63q18 8 33 12q4 -20 21 -19.5t19 22.5 q-2 118 -12.5 333t-12.5 285v178l-9 6h-11q-25 4 -34 24q-18 11 -27 23h-93q-4 -4 -11 -11.5t-10 -11.5q-60 -8 -83.5 -31.5t-27.5 -69.5v-3v-1q-1 -1 -1 -2q-10 4 -21 -5q-5 -5 -21 -72q-19 -22 -19 -70q-7 -20 -10 -30h-3q-1 0 -3 -1q-8 4 -11.5 3.5t-20.5 -6.5l-3 9 q4 78 -19 179v3l-1 -1q0 2 -1 3q2 45 2 204q4 -20 21 -19.5t19 22.5v37q9 4 21 4h182q3 20 22 29q0 -8 8 -16zM763 206q-19 15 -18.5 32t15.5 29q7 -15 26 -27.5t21 -19.5q3 -7 7 -10q-21 -28 -51 -4zM1008 755q-7 8 -18 10v6q16 0 46 6q7 -4 10 -11q0 -3 -1.5 -10t-2.5 -11 q-22 12 -34 10zM815 267q1 -3 3 -5q-1 1 -14 11q6 -3 11 -6zM154 695q-3 5 -5 10h1q1 -3 5 -7q-1 -1 -1 -3zM1103 699h-2l2 1v-1z" />
<glyph unicode="U" d="M1011 781q1 -28 5.5 -108.5t4 -135t-9.5 -107.5q2 -14 11.5 -19t18.5 1q-3 -435 -426 -435q-191 0 -305 119q-114 120 -114 321q-17 13 -18 34v5q-17 11 -20 35q0 25 6 75.5t7 76.5q4 25 25 34v258l7 7q25 41 13 66q3 9 8 14q12 16 0 28t-28 0q-5 -5 -11 -17 q-47 22 -57 29q-23 6 -28 -13q-9 5 -14 14q-30 13 -30 59q0 65 65 65h5q3 19 24 30q-2 -15 14 -19q1 -1 3 -1q10 -1 16 3h10q72 -47 132 -51q16 3 18 16.5t-11 21.5h115q65 0 65 -65t-65 -65h-8q-6 -21 -34 -27q-6 0 -15.5 -1t-15.5 -2q-6 11 -18 11q-3 0 -4 -1 q-2 0 -4 -1.5t-3 -1.5l-5 -5q-1 -1 -3 -8q-8 -2 -11 -2v-21q6 3 11 4v-142q2 -12 8 -16q-7 -22 -19 -49v-115q-13 -3 -16 -18v-21q-4 -4 -6 -10v59q-6 17 -21 16.5t-19 -18.5q0 -58 3 -172t4 -171q2 -16 14 -20q2 -9 7.5 -38.5t8.5 -42t11 -36t18 -35.5t27.5 -23.5 t39.5 -16.5q1 -1 4 -1q26 -35 76 -52q18 -2 23 11.5t-9 25.5q-37 11 -63 47q73 -57 187 -57q155 0 226 74q52 55 66 163q9 11 2 23l1 22q-6 -4 -14 -5q-1 2 -5 9q0 1 0.5 3t0.5 3v53q-6 16 -19 16q-1 7 -1 17q-6 17 -22 16q-9 9 -11 29v14q6 29 31 35.5t41 -15.5v429 q-32 26 -32 29q-2 2 -9 6q-10 7 -11 9q-11 8 -16 20h-68q-65 0 -65 65t65 65h331q65 0 65 -65l-60 -65q-2 -6 -52 -99q-9 -10 -18 -15v-147q-8 6 -18 1.5t-12 -16.5zM809 723q14 -23 6 -45t-29 -25q-19 29 -20 63q-6 10 -7 11q24 13 50 -4zM311 356q-1 121 -6 248 q2 -37 11 -107t10 -78v-27q2 -26 0 -51q-6 8 -10 12q-3 1 -5 3zM181 548q-1 -1 -4 -1q-13 -5 -15.5 -15.5t7.5 -20.5q6 -6 24 -8q20 -2 24 15.5t-16 23.5h-3q-6 6 -17 6zM384 969v-33q-1 -16 -7 -25v72q3 -4 7 -14z" />
<glyph unicode="V" d="M880 1143q10 1 29.5 7t29.5 6q15 3 17.5 16t-9.5 21q4 1 12.5 2t12.5 1h77q11 -4 18 -9h83q65 0 65 -65t-65 -65h-35l-396 -1035q-5 -14 -26 -28q-22 -14 -35 -14h-75q-13 0 -35 14q-20 14 -26 27l-20 51q19 2 20 23q-45 163 -77 264t-90 238t-126 244q-11 17 -51 57 l-26 68q-32 17 -52 41.5t-12 49.5h-11q-65 0 -65 65t65 65h71q7 22 34 28h4l1 1h3h5q11 0 15 1q45 0 57 -30h154q65 0 65 -65t-65 -65h-106q13 -34 17.5 -82.5t-0.5 -75.5q-1 -8 -8 -16l113 -290q13 0 28 -9q19 -31 -2 -58l61 -153q12 -7 18 -15q-1 -5 -1 -19q4 -34 32 -41 t42 21q12 -6 26 -8q0 9 4 16l-1 -1l8 15q11 19 18 37q22 34 53 20l17 44q-15 9 -18 25t8 35l6 6q8 6 15 9q-8 -25 -11 -40q3 -18 17.5 -20t22.5 15q12 69 47 91q18 10 9 26.5t-27 8.5q-2 -1 -6 -3.5t-6 -3.5l35 91q7 47 29 77l88 228q-14 3 -23 14q-23 29 -47.5 41.5 t-63.5 14.5h-23q-65 0 -65 65t65 65h14q2 -15 21 -18q14 0 36 5q-7 -8 -2 -18.5t19 -12.5zM453 196l-226 579q119 -186 226 -579z" />
<glyph unicode="W" d="M212 525v99q-6 16 -20 16q-1 4 -4 11.5t-5 11.5q-8 10 -15 11h-12l-5 35q-8 21 -15 46q-13 36 -10 60q2 20 5 32l-24 168q-2 0 -3 1q-11 5 -16.5 10.5t-10.5 16.5q-1 1 -1 3.5t-1 3.5q0 2 -1 4v3h-9q-65 0 -65 65q0 32 17 49q6 -7 17 -9h238q24 5 18 25h126q65 0 65 -65 t-65 -65h-38q-11 -16 -29 -24.5t-49 -14.5t-38 -8q-3 -1 -6 -4q-1 0 -1 -1q-2 -5 -5.5 -18t-4.5 -19l55 -380q5 -13 8 -17q17 -39 29 -97q-2 -25 -16 -35l13 -93q8 16 23 20q-7 -29 -7 -69q0 -1 -1 -2l-2 -2q-12 -8 -9 -21t20 -15q21 4 28.5 22.5t9 48.5t3.5 37 q3 14 25 96.5t25 129.5q-1 3 -3 5l13 43q-49 14 -55 65q-1 1 -1 5v9q6 34 37.5 35t41.5 -33v-2l42 145q12 42 61 42h51q46 0 60 -41l100 -311q5 -3 13 -13l1 -2q0 -2 1 -3q3 3 15 -10q3 -16 14 -60.5t15 -69.5q-3 5 -24 50q-13 16 -27.5 7t-6.5 -27q2 -4 7.5 -16t8 -17.5 t7.5 -15t10.5 -16.5t12.5 -14q12 -14 26 -6q8 -6 18 -0.5t12 20.5q-4 45 -15 89q4 -5 10 -13.5t9 -12.5q2 26 2 114q6 29 30 35l39 295q-21 3 -33 28q-7 17 -8 49.5t-2 37.5t-3.5 16t-3.5 17q-10 2 -43 2q-20 2 -30.5 13.5t-10.5 26.5h-36q-65 0 -65 65t65 65h64q2 -2 4 -5 l2 -2q17 -13 56 -19q7 -14 22 -16.5t26.5 1t33.5 12.5q9 5 11.5 13.5t-3.5 15.5h145q65 0 65 -65t-64 -65q6 -18 -3 -33t-31 -20h-9l-44 -333q-9 4 -18 -0.5t-11 -15.5q-1 -58 -9.5 -172t-10.5 -172q0 -3 1 -4l-35 -264q-2 -21 -22.5 -39t-41.5 -18h-42q-16 0 -37 15 q-21 16 -25 30l-149 460q-17 -6 -33.5 4t-18.5 35q-1 11 -3 39.5t-4 43.5q-15 -22 -39 -17l-22 -75q-6 1 -14 -2q-20 -14 -32.5 -41.5t-17 -68.5t-5.5 -65t-1 -67l-71 -244q-4 -16 -25 -32q-19 -15 -37 -15h-44q-21 0 -41 17.5t-23 38.5l-29 199q1 54 -7 121q-3 23 -22 116 q2 16 3 25q16 0 19 22z" />
<glyph unicode="X" d="M166 1176q11 0 39 4t50 3.5t38 -10.5q12 -5 20.5 -0.5t9.5 14.5h132q65 0 65 -65t-65 -65h-41q10 -22 22 -69.5t16 -57.5v-1l31 -41q24 20 55 0q11 -19 8 -36.5t-16 -27.5l6 -7q1 1 17 3q62 -13 62 -88q0 -3 -1 -6l-2 -6t-1 -4l2 -2l175 234q-7 8 -8 17q3 3 6 9 q1 5 9 12.5t9 9.5q17 25 7 45.5t-36 31.5q-2 6 -2 13q-6 17 -21 16.5t-19 -18.5q0 -13 2 -18q-25 15 -25 56q0 65 65 65h52q2 -9 8 -14q12 -11 38.5 -12.5t51.5 3t57 11t43 7.5q7 2 11 5h19q65 0 65 -65t-65 -65h-22l-255 -339q1 -3 1 -13q0 -6 -12 -31q-1 -2 -1 -8 q-16 -39 -50 -30l-9 -12q23 -44 32 -80l17 -23q25 25 59 3q11 -19 7 -41q6 -20 41 -56.5t42 -64.5q-2 -18 -9 -28l153 -204h37q65 0 65 -65t-65 -65h-51q-3 8 -15 13q-3 0 -38.5 3t-52 3.5t-41.5 -3t-39 -12.5q-2 0 -3 -2q-2 -2 -3 -2h-73q-65 0 -65 65t65 65h23 q-1 16 10.5 28t33.5 14h14q1 0 5 -2l-244 327l-94 -126q0 -1 2 -4t2 -5v-7q-2 -24 -16.5 -35.5t-32.5 -7.5l-96 -129q23 -5 33 -33v-6l-3 -14h43q65 0 65 -65t-65 -65h-102q-3 8 -15 13q-62 -1 -152 -10l-1 -1q-32 -2 -47 -2q-53 6 -53 65q0 65 65 65h29l53 71q15 -10 28 7 q1 2 23 24q136 147 145 190q2 5 -6 24l-4 4l89 118q2 12 6.5 34t5.5 27l-3 4q2 2 3 5q8 36 -34 117q-13 27 -36 63.5t-55 81.5t-67.5 76t-63.5 32q-16 -2 -20 -9l-43 58h-27q-65 0 -65 65q0 56 46 63q6 -7 17 -9zM702 427q12 -10 42.5 -22.5t43.5 -24.5q16 -7 26.5 4 t-1.5 26q-13 13 -43.5 25t-42.5 22q-10 9 -20.5 5t-11.5 -14.5t7 -20.5zM264 964l2 2q1 -5 7 -11q56 -27 148 -201zM763 1018q-2 16 -1 18q7 -3 11.5 -6t2.5 -6q-4 -5 -12 -13q-1 1 -1 7zM870 1057h-13q7 -5 8 -7zM191 3q-3 -1 -10 -1q6 0 10 1zM200 4q-2 -1 -9 -1 q2 0 5 0.5t4 0.5zM764 668v2v-2zM886 130l-1 1v-1h1z" />
<glyph unicode="Y" d="M661 677q0 5 -3 11q13 13 24 35q31 20 55.5 61t47.5 94t38 76q6 14 -3 23q6 32 3 46q-7 2 -8 3q-20 9 -26 31q-58 3 -58 65q0 64 63 65q5 -5 13 -5h6q6 -1 9 -3q7 9 20 10h106q22 -6 15 -26h40q5 8 2 18q-1 1 -2 3t-3 3h83q65 0 65 -65t-65 -65h-58l-61 -103 q-2 12 -12.5 15.5t-21.5 -5.5q-16 -16 -33 -62t-20 -52l-12 -24q-46 -58 -82.5 -129t-45.5 -124l-49 -82q1 -27 3 -56.5t5 -65t4 -56.5q22 7 42 -7q16 -26 2.5 -51.5t-39.5 -17.5q0 -7 0.5 -20t1.5 -20q-2 -23 -14 -33q34 -22 58 -25q11 -3 18 -9h127q65 0 65 -65t-65 -65 h-252q-106 21 -232 3q-1 0 -1 -1q-17 -2 -58 -2h-28q-65 0 -65 65t65 65h138q15 49 77 49q0 -1 5 -2v90q2 24 8.5 97.5t8.5 114.5q-4 12 -13 15.5t-17 -2.5l-19 33q9 -5 18 0.5t11 19.5q-22 81 -104.5 200.5t-160.5 179.5l-54 92q-34 15 -46 40h-39q-65 0 -65 65q0 38 24 55 q23 -6 60 -8t65 -2t60.5 1t35.5 1q16 4 18 18h47q1 -15 21 -18h53q16 4 18 18q58 -4 58 -65q0 -65 -65 -65h-49q-8 -23 -34 -27q-4 0 -9.5 -0.5t-8.5 -0.5l28 -48q-5 -5 -7 -14q15 -110 144 -251q7 -10 18 -8q12 -21 31 -33t39 -10h4q7 -13 21 -9.5t16 21.5zM500 546 l-142 241q112 -140 142 -241zM439 924q1 0 3 2q10 -13 17 -28q0 -5 1 -6q4 -15 25 -48q0 -2 1 -2q0 -1 1 -2q1 -2 2 -3q1 -2 2 -3v-4q-38 55 -52 94z" />
<glyph unicode="Z" d="M971 404q-3 -17 -12 -49t-17 -61.5t-14 -61.5t-4 -60t15 -47q3 -6 28 -15q18 -8 27 6.5t-7 27.5q-7 1 2 7q21 15 51 -3q13 -19 7.5 -40.5t-22 -27.5t-37.5 7q-2 1 -7 6v-28q0 -26 -19.5 -45.5t-45.5 -19.5h-138q-3 8 -15 13q-3 1 -32 5.5t-39.5 6t-40.5 6t-46 6t-44.5 4 t-46.5 2t-42.5 -1t-42 -4t-35.5 -8.5t-31 -13q-9 -5 -14 -16h-114q-70 0 -70 55q0 22 16 47l130 191q-1 1 -1 6q0 1 0.5 3t0.5 3q8 10 12 17q55 69 194 259q10 24 -5 44v1l-1 2q58 56 76 71l206 303q-14 3 -36 16q21 -1 54 -1q13 3 16 12q1 1 1 2q1 1 1 5v1q0 1 -0.5 3 t-0.5 4l-1 1q-1 1 -1 2q-2 5 -6 6q0 1 -1 1t-1 1l-2 1q-2 0 -3 1q-20 0 -78 2q6 8 3 17.5t-15 13.5q-10 -1 -32 -1.5t-34 -0.5q-4 5 -13 9q-26 1 -76.5 7t-75.5 6q-17 -2 -21.5 -15t7.5 -21q-32 -6 -46 -10q-14 -6 -16 -17.5t7 -17.5q-30 -14 -41 -29q-14 -13 -20 -34.5 t-9.5 -59.5t-7.5 -59q-4 -14 4 -21.5t19 -4.5v-41q0 -65 -65 -65t-65 65v23q-11 9 -14 26q-27 14 -20 51q1 3 2 2q3 9 8 14q8 -7 18.5 -1.5t12.5 20.5v178q-3 10 -7 11v18q0 26 19.5 45.5t45.5 19.5h38q0 -12 14 -17q72 -25 136 -29.5t164.5 5t138.5 10.5q8 2 13 7h7 q0 1 -0.5 1t-0.5 1q15 8 10 22h130q70 0 70 -55q0 -22 -16 -47l-150 -221q-9 3 -20 -5q-29 -37 -53 -102l-6 -9q-8 7 -18.5 3t-13.5 -17q-7 -41 -35.5 -85t-68.5 -92t-56 -75q-6 -11 -3 -20l-47 -69q-16 -16 -70 -63q-12 -7 -18 -12t-11.5 -13.5t-7.5 -19.5q5 -21 20 -21 l-14 -20q2 -2 5.5 -7t5.5 -7q-16 1 -22 -14q-8 2 -12 2q-46 -5 -45 -32q1 -24 36 -39q16 -7 34 -8q18 4 18.5 19t-16.5 21q-7 0 -13 3q6 4 8 12q2 -2 4 -2q17 -5 54 -10q1 -1 2 -1q40 -9 92 -9q31 -10 33 -38q40 3 56.5 4.5t45 8.5t49 22t39.5 39q12 9 24 12q6 -16 21.5 -14 t17.5 22v132q-6 18 -21 16v52q0 65 65 65t65 -65v-9q-8 -4 -10 -15zM819 266q1 20 13 52v-82q-11 11 -13 30zM497 979q-8 -4 -21.5 -11t-20.5 -11q2 18 5 25q4 0 10 -0.5t9 -0.5q14 -2 18 -2zM971 152q-5 10 -6 21q11 -2 16 2v-28q-6 2 -10 5zM661 1207q-12 1 -35.5 2.5 t-34.5 3.5v1q8 0 10 1h54q1 -2 3 -4.5t3 -3.5zM412 974l3 3l1 1h3q-1 -8 -1 -23q-6 12 -6 19zM383 137q-2 -4 -3 -7h4q2 2 2 5q0 1 -1 1t-2 1zM392 921zM981 291v-4q-1 0 -1 1q0 2 1 3z" />
<glyph unicode="[" d="M411 -237q1 9 8.5 10t10.5 -6q-1 8 -1 22q-1 5 0 9q1 0 4.5 3t5.5 4q4 -3 7 -10q0 -23 3 -45q0 -6 4 -8.5t8.5 -1t7.5 6.5q8 26 -3 51v13q-3 12 -14 8q-5 5 -8 6q-6 2 -10 0q-6 -4 -8 -6v96q-4 -2 -9 0t-6 8v24q1 7 6 9t9 -1v127q-4 4 -4 8v38q-5 2 -5 9q-1 21 -1 65 q1 8 10 8v552q6 -58 8 -86q1 -7 6 -9.5t9.5 0t4.5 9.5q-2 40 -12 126.5t-12 131.5q-1 -8 -9.5 -7.5t-9.5 10.5q0 11 -2 20.5t-3 12.5t1 7.5t6.5 7t16.5 8.5q2 37 5 56q10 77 42 100q6 4 14 6.5t18.5 4.5t15.5 4q8 4 6 11.5t-12 7.5q-6 -2 -19 -4t-22 -5t-14 -10 q-4 -5 -12.5 -14t-13.5 -16.5t-7 -15.5l-5 -15v19q0 26 19.5 45.5t45.5 19.5h262q65 0 65 -65t-65 -65h-25q2 3 0 9q-8 15 -44.5 26.5t-49.5 1.5q-3 -2 -13.5 -14t-13.5 -13l-2 1q-3 7 -3 26q0 10 -9 11.5t-11 -8.5q0 -32 5 -40h-31v-129q4 1 7.5 -2.5t3.5 -9.5 q-1 -3 -11 -15v-532q-7 3 -12 -1.5t-1 -12.5q10 -19 12 -50q-8 -70 -8 -107v-8q0 -1 3 -7q1 -1 2.5 -2t2.5 -1h1v-383q11 0 11 -12v-19h10q-4 -10 10 -13q22 0 68 2.5t69 3.5q6 1 8 7h21q65 0 65 -65t-65 -65h-80v-2q0 -7 -4.5 -9.5t-9.5 0t-6 8.5v3h-162q-26 0 -46 20 q-17 18 -19 40q5 2 5 9q0 36 -1 54q0 -3 -2 -8t-3 -8q-5 -9 -13 -7t-6 12zM555 -183q-1 17 -7.5 47.5t-10.5 52.5t-2 49t13 47q4 10 -4.5 13.5t-13.5 -4.5q-12 -22 -14.5 -50t2 -51t10.5 -54.5t7 -50.5q1 -6 6 -8.5t9.5 0t4.5 9.5zM636 -136q1 10 9.5 10t10.5 -9v-4 q-1 -4 -1 -6q2 2 6.5 8t6.5 7q4 4 9 3q2 5 7 6.5t10 -2.5q5 -7 0.5 -13t-10.5 -4l-2 -4q-1 -1 -10.5 -11.5t-16.5 -13.5q-6 0 -9 2q-10 8 -10 31zM641 1064q-9 0 -11 -7h-8q15 17 20 19q12 3 35 -3q16 -4 23 -7q-10 -2 -59 -2zM617 -211q-7 1 -9.5 6t0 9.5t9.5 4.5h3 q10 0 11.5 -9.5t-8.5 -10.5h-6zM426 966q2 -6 4 -20v22z" />
<glyph unicode="\" d="M335 1385l54 -69q-2 -4 -2 -6q-3 -32 6 -69t21 -63.5t31 -63.5q5 -10 8 -15q5 -11 14 -6l225 -482q23 -22 46 -69h2q17 -67 20 -156q1 -7 6 -9.5t9.5 0t4.5 9.5q-1 22 -5 59q3 -8 7 -21.5t6 -19.5l199 -424q7 -13 7 -29v-4q8 7 14 0.5t0 -14.5q-9 -6 -20 -8 q-4 -10 -15 -19q-19 -19 -47 -19q-39 0 -57 39l-6 12q-11 3 -7 14l-6 14q-2 -4 -6.5 -5t-8.5 1.5t-4 7.5q-1 10 -3.5 28t-2.5 21l-65 139q4 -24 33 -80t34 -77q0 -9 -7.5 -10.5t-11.5 6.5q-3 13 -26.5 57.5t-37 83.5t-0.5 55l-91 194q9 0 9 11q0 2 -1 4q1 -1 2.5 -4t2.5 -4 q-3 -13 8 -13q11 -18 20 -37l2 -4q4 -9 12 -5.5t6 13.5h1q-2 4 -4 7q-14 32 -27 47q-50 77 -63 104q-16 30 -30.5 65.5t-31.5 79t-27 67.5q-13 27 -36.5 57t-44.5 33l-3 18l-53 113q10 -13 28 -43q0 -2 1 -2q0 -1 2 -3q5 -6 10.5 -3.5t6.5 9.5h2l-2 2v3q-29 57 -68 173 t-64 168q-6 7 -12.5 4t-5.5 -12q17 -37 33 -79t36 -99t29 -82l-1 1q0 2 -1 2q-6 6 -18 12l-168 363q-6 13 -6 29q0 27 20.5 45.5t47.5 18.5q38 0 56 -39l9 -20q1 0 5 -2zM964 108q0 -9 -7.5 -10.5t-11.5 6.5q-8 31 -20 64t-28 74.5t-23 62.5q-1 9 5.5 12t12.5 -4 q6 -18 23.5 -63.5t28.5 -78t20 -63.5zM524 1028q-17 63 -52 128q2 -3 6 -7q5 -4 10 -3t7 6q30 -58 48 -120q0 -9 -7.5 -10.5t-11.5 6.5zM455 1177q6 -45 7 -54q-8 17 -26 53q-5 25 -7 34q5 -2 9 2t3 10q2 -2 4 0q7 -27 15 -45q-3 4 -7 12q1 -2 1 -6t1 -6zM565 580 q-1 2 -3.5 6t-4.5 6l-76 164q15 -19 28 -43t19 -38t19.5 -49.5t17.5 -45.5zM650 705q-4 10 3 14.5t14 -3.5q4 -5 6 -16q0 -7 -4.5 -9.5t-9.5 0t-6 9.5l-1 1zM428 759q2 12 14 8q1 -3 3 -8.5t3 -8.5q-2 -9 -10.5 -8t-9.5 11v6zM369 1310q0 -1 -2 -3l10 -22q3 5 8 3 q-2 3 -8 10.5t-8 11.5zM625 446q3 -4 4 -8z" />
<glyph unicode="]" d="M833 -237q5 -9 5 -15q2 -10 -6 -12t-13 7q-1 3 -3 8t-2 8q-1 -18 -1 -54q0 -7 5 -9q-2 -22 -19 -40q-20 -20 -46 -20h-162v-3q-1 -6 -6 -8.5t-9.5 0t-4.5 9.5v2h-80q-65 0 -65 65t65 65h21q2 -6 8 -7q23 -1 69 -3.5t68 -2.5q14 3 10 13h10v19q0 12 11 12v383h1q1 0 2.5 1 t2.5 2q3 6 3 7v8q0 37 -8 107q2 31 12 50q4 8 -1 12.5t-12 1.5v532q-10 12 -11 15q0 6 3.5 9.5t7.5 2.5v129h-31q5 8 5 40q-2 10 -11 8.5t-9 -11.5q0 -19 -3 -26q-1 -1 -2 -1q-3 1 -13.5 13t-13.5 14q-13 10 -49.5 -1.5t-44.5 -26.5q-2 -6 0 -9h-25q-65 0 -65 65t65 65h262 q26 0 45.5 -19.5t19.5 -45.5v-19l-5 15q-2 8 -7 15.5t-13.5 16.5t-12.5 14q-5 7 -14 10t-22 5t-19 4q-10 0 -12 -7.5t6 -11.5q5 -2 15.5 -4t18.5 -4.5t14 -6.5q32 -23 42 -100q3 -19 5 -56q15 -7 19 -11t5 -7t-1.5 -14.5t-3.5 -23.5q-1 -10 -9.5 -10.5t-9.5 7.5 q-2 -45 -12 -131.5t-12 -126.5q0 -7 4.5 -9.5t9.5 0t6 9.5q2 28 8 86v-552q9 0 10 -8q0 -44 -1 -65q0 -7 -5 -9v-38q0 -4 -4 -8v-127q4 3 9 1t6 -9v-24q-1 -6 -6 -8t-9 0v-96q-2 2 -8 6q-4 2 -10 0q-3 -1 -8 -6q-11 4 -14 -8v-13q-11 -25 -3 -51q3 -5 7.5 -6.5t8.5 1t4 8.5 q3 22 3 45q3 7 7 10q2 -1 5.5 -4t4.5 -3q1 -4 0 -9q0 -14 -1 -22q3 7 10.5 6t8.5 -10zM689 -183q0 -7 4.5 -9.5t9.5 0t6 8.5q1 19 7 50.5t10.5 54.5t2 51t-14.5 50q-5 8 -13.5 4.5t-4.5 -13.5q11 -20 13 -47t-2 -49t-10.5 -52.5t-7.5 -47.5zM608 -136q0 -23 -10 -31 q-3 -2 -9 -2q-7 3 -16.5 13.5t-10.5 11.5l-2 4q-6 -2 -10.5 4t0.5 13q5 4 10 2.5t7 -6.5q5 1 9 -3q2 -1 6.5 -7t6.5 -8q0 2 -1 6v4q2 9 10.5 9t9.5 -10zM603 1064q-49 0 -59 2q7 3 23 7q23 6 35 3q5 -2 20 -19h-8q-2 7 -11 7zM627 -211h-6q-10 1 -8.5 10.5t11.5 9.5h3 q7 0 9.5 -4.5t0 -9.5t-9.5 -6zM818 966l-4 2v-22q2 14 4 20z" />
<glyph unicode="^" d="M706 1352q5 -7 0.5 -13t-10.5 -4q42 -56 109 -164h-1q-22 -7 -19.5 -27t14 -38.5t24.5 -29.5q8 -4 13.5 2t-0.5 13q-41 37 -30 59l4 2q3 1 4 4l1 -1q7 -7 13 -2.5t4 13.5q-4 6 -10 17t-10 16l149 -183q16 -19 16 -41q0 -27 -20 -46.5t-47 -19.5q-30 0 -49 25l-16 18h2 q10 -4 14.5 3t-3.5 14q-11 6 -19.5 23.5t-8.5 31.5q6 8 0 14t-14 0q-17 -15 2 -51l-204 251l-59 -73q2 6 4 10q5 1 7 6t-2 11q-2 2 -3 4q-9 7 -16 -4q-6 -10 -20 -44.5t-26 -49.5q-3 27 -3 28q-2 8 -10 8.5t-10 -8.5q1 -8 1 -17.5v-13t2 -8t6 -8.5l-118 -145 q-19 -25 -49 -25q-27 0 -47 19.5t-20 46.5q0 22 16 41l10 13q15 3 30 13t30.5 27t24.5 29t25 34.5t20 28.5q20 27 93.5 104t101.5 131h20q22 0 37 -12q0 -2 2 -4q4 -6 13.5 -17.5t14.5 -17.5q0 5 6 8t11 -1zM556 1372q9 10 21 18q-20 -35 -48 -68.5t-69 -76.5t-58 -62z M390 890q7 5 12.5 1t3.5 -11q2 -8 -5 -12q-1 0 -2.5 -1t-2.5 -2q-6 -8 -13 -9q-7 -2 -10 1q-1 -1 -4.5 -2t-5.5 -1q-3 -6 -11 -4h-3q-7 4 -6.5 10t7.5 10q6 3 19 7t15 5q4 6 6 8zM497 1010q7 -6 4 -12.5t-12 -5.5q-13 4 -13 22q2 10 11 8.5t9 -11.5v-1h1zM362 1132 q-2 -2 -13 -17t-18.5 -24t-16.5 -17zM366 1138l-1 -2zM363 1134l-1 -2z" />
<glyph unicode="_" d="M345 -349q1 10 10.5 9.5t9.5 -11.5v-8h50q5 4 11 0h329q12 -4 40 -6q7 2 8 6h28q-1 -1 -1.5 -3.5t-0.5 -3.5q-1 -7 4 -12q8 -6 20 -10.5t21.5 -6.5t25.5 -3.5t24.5 -1.5t26 -0.5t21.5 -0.5q9 2 8.5 10t-8.5 10q-4 0 -20.5 0.5t-28 1t-27 1.5t-27 4t-18.5 8v3q0 3 -1 4 h361q-1 -10 6.5 -11t12.5 7q0 2 2 4q38 0 53 -24q-4 -4 -4 -8q0 -9 -8.5 -26.5t-8.5 -26.5q1 -9 8.5 -9.5t11.5 7.5q0 12 10 30v-8q0 -65 -65 -65h-154q4 10 -8 13q-31 7 -64.5 7t-52.5 -2t-58 -9t-51 -9h-133q-16 3 -50.5 10.5t-52.5 10.5q-106 16 -320 16q-7 0 -9.5 -4.5 t0 -9.5t9.5 -6q205 0 317 -16q5 0 7 -1h-568q-34 -5 -45 -21q-14 4 -21 5q6 11 15 17q-55 4 -55 64q0 65 65 65h96q-18 -6 -27 -10q-9 -5 -7 -13t13 -7q46 21 125 30h145v10zM-61 -476q11 0 11.5 -9t-9.5 -11h-6q-6 1 -8.5 6t0 9.5t9.5 4.5h3z" />
<glyph unicode="`" d="M657 1311q11 -19 7.5 -38t-18.5 -28q0 -9 -5 -21l171 -98q18 -10 18 -28q0 -35 -42 -35q-9 0 -18 3l-241 91q-14 -9 -31 -6q-66 15 -138 66l-6 6l-91 35q-12 4 -12 26q0 14 52 96q9 13 26 13q18 0 46 -16l150 -87q32 17 65 7q9 17 26.5 22t40.5 -8z" />
<glyph unicode="a" d="M1091 -24q19 2 29 6q10 8 12 21q-1 13 -16 26q14 6 21 11q13 -16 13 -45q0 -65 -65 -65h-103q7 20 -15 27h-33q-14 -2 -19.5 -10t-1.5 -17q-24 2 -43 19l-6 6q6 6 8 18q0 1 2 9q1 0 5.5 0.5t6.5 0.5q18 4 18.5 19t-16.5 21q-29 -2 -41 -12q-14 3 -23 10 q-140 -105 -337 -105q-80 0 -140 19q7 13 -6 24q9 -3 10 -3q35 0 54 -5q10 -1 16 3q2 1 4 5l-4 -2q-1 -1 -4 -1q-34 2 -50.5 9.5t-29.5 24.5q-5 -4 -6 -9q-4 -10 2 -18q-8 2 -15 7q-11 7 -20.5 4t-11.5 -13q-16 7 -31 19q-103 73 -103 210q0 44 11 86q7 3 15.5 9.5t14 12 t13.5 14.5t12 13q11 14 4 25.5t-22 7.5q34 52 96 91q15 10 29 17q6 -18 27 -12q19 8 52.5 14.5t46.5 10.5q93 24 125 26q20 5 18 23h16q108 0 187 -19q-3 -3 -4 -10q3 -32 22 -51.5t51 -22.5q18 4 18.5 19t-16.5 21q-32 2 -35 35l18 -6v29q0 168 -155 201q-27 33 -79 39 q-11 -1 -14 -5q-26 9 -44 5q-26 -7 -53 -20l-52 -23q-71 -30 -108 -37q-25 -12 -13 -30q-11 -3 -20 -3q-26 0 -45.5 20.5t-19.5 47.5q0 32 28 51q56 41 123 63q-6 -9 -1 -18.5t19 -11.5q14 2 45 25q8 12 5 22q34 6 51 8q47 -2 92 6q121 0 204 -43q4 -6 8.5 -15.5t6.5 -12.5 q19 -26 51 -32q26 -14 32 -36q5 -12 13 -14q-10 -8 -6 -20t20 -14q7 -1 17 -11q19 -48 23 -104q-9 4 -17.5 -0.5t-10.5 -15.5q-1 -34 -7 -102t-6 -102q1 -15 13 -20v-46q2 -14 12 -19t18 1v-14q-8 -4 -10 -15v-46q2 -14 10 -18v-104h44l1 -4q0 -3 2 -5q8 -15 30 -16 q-3 -11 8 -22q2 -1 4.5 -3t3.5 -4q-6 -9 -1.5 -18.5t18.5 -11.5zM403 12q0 2 -0.5 8t0 10.5t4.5 6.5q2 2 17 -6.5t35.5 -19.5t30.5 -14q14 -2 20.5 8.5t0.5 20.5q22 -2 34 -2q47 0 93.5 14.5t73.5 40.5l73 69q14 25 29 92q2 9 7 27t7.5 33t0.5 29q-5 29 -58 54.5t-86 28.5 q-73 7 -139.5 0.5t-129.5 -38t-91 -86.5q-29 -31 -38 -54.5t-3 -69.5q2 -36 15 -43q9 -14 23 -23q-3 -2 -7.5 -6t-5.5 -4q-9 -15 0.5 -25.5t24.5 -4.5q12 -15 29 -3h9q-6 -14 -9 -38q3 -18 17.5 -20t22.5 15zM708 506q-10 8 -21 3.5t-12.5 -15t8.5 -18.5q15 -11 25.5 3 t-0.5 27z" />
<glyph unicode="b" d="M984 788l7 -8q6 5 16 6q1 0 13 -3q7 -5 11 -16l1 -11h-1q0 -2 -4 -13q105 -123 105 -289q0 -188 -135 -321q-133 -133 -324 -133q-129 0 -232 60q-58 -16 -98 -6q-3 -19 -19 -35q-19 -19 -45 -19h-143q-65 0 -65 65t65 65h31q9 37 47 79v390q7 -13 21 -9.5t16 21.5 q-2 80 -16.5 240t-16.5 242q0 1 -2 3.5t-2 4.5v23q-12 -2 -19 8q-29 29 -36 48h-25q-65 0 -65 65t65 65h145q26 0 45.5 -19.5t19.5 -45.5v-1q-2 4 -3 7q-10 11 -22 11q-14 -4 -24 -14q-6 -11 -2.5 -20.5t13.5 -11.5q0 -4 -1 -13t-1 -13q1 -9 6 -14v-45.5t-2 -56.5 q-10 -6 -11 -16q0 -50 2 -64q3 -19 17.5 -20.5t22.5 15.5q2 4 3 12.5t2 12.5v-243q135 137 329 137q163 0 284 -97q20 7 27 -15v-8zM878 193q0 -4 -7 -11q-9 -6 -27 -16q-2 -2 -8 -4h-1v-1q-14 -12 -7.5 -24.5t24.5 -10.5h1q2 1 7.5 3.5t8.5 4.5q18 9 61 45q7 0 14 4l7.5 10 t6.5 10q45 38 57 65t8 98q-3 12 -17 18h-3q-1 0 -4 -1t-5 -1q8 37 8 72l-26 25q0 4 -0.5 11t-0.5 10q0 2 -0.5 5t-0.5 5q-18 119 -100.5 195t-203.5 95q-12 -1 -18.5 -7.5t-4.5 -15.5q-119 -7 -207 -94q-96 -95 -96 -229v-6q14 0 20 -16v-52q-2 -12 -8 -18q22 -75 84 -137 q97 -95 233 -95q121 0 210 74q-3 -4 -5 -11zM783 695q-4 -9 -2 -24l-84 83q59 -14 110 -48h-1l-2 1q-16 -1 -21 -12zM935 244l2 1q-1 -2 -3.5 -6t-3.5 -6q-21 -18 -26 -22l-1 -1q-6 3 -14 -2l17 17q2 3 6.5 8t7.5 7q3 -1 15 4zM209 130h5v12q-2 -4 -5 -12z" />
<glyph unicode="c" d="M159 239q-1 3 1 12q-6 13 -16 39q-3 0 -4 1l-6 2q-9 3 -11 7q-8 4 -10 12t3 15t15 9q-14 61 -14 126q0 201 132 333q137 137 361 137q146 0 262 -62q-10 8 -5.5 20.5t21.5 14.5q22 0 40 -8q14 35 61 35q65 0 65 -65v-253q0 -68 -65 -68t-65 68t-85 125q-75 51 -178 60 q-1 1 -11 7q-60 -2 -72 -4q-2 0 -6.5 -0.5t-6.5 -1.5q-4 -1 -11 -1q-34 -2 -43 -4l9 -1q-3 0 -13.5 -1t-14 -1t-12.5 -1t-12.5 -2t-11 -3t-11.5 -4.5t-10 -5.5t-10.5 -7.5t-9.5 -10.5q-43 -24 -74 -55q-94 -94 -94 -241q0 -127 67 -215q-7 -4 -10 -15q0 -69 30 -88.5 t97 -19.5q4 -4 12 -4q4 -12 20 -14h7q9 2 15 9q14 -3 19 -5q76 -34 120.5 -41t89.5 11q15 3 53 13.5t60 12.5q17 4 18.5 18.5t-14.5 20.5q1 1 4 2t4 3q19 12 42 24q15 8 27.5 5.5t24.5 2.5t18 25q0 18 -15 23t-23 -11q-1 -1 -1 -2q-10 0 -13 -1q25 20 45 40q19 19 45 19 t46 -20t20 -47q0 -25 -21 -46q-182 -178 -424 -178q-214 0 -354 134q-35 34 -60 70q-4 1 -7 6q-25 22 -30 45zM886 865q-2 0 -3 0.5t-3 0.5q17 -10 31 -19q0 10 -1 17q-8 1 -24 1z" />
<glyph unicode="d" d="M1104 106h66q3 0 4 1q11 -17 11 -42q0 -65 -65 -65h-153q-27 0 -46 19q-12 12 -17 30q-32 -2 -57 5q-18 7 -13 27q-114 -81 -263 -81q-191 0 -327 133q-135 133 -135 323q0 188 135 322q58 56 119 86q1 -16 21 -19q14 1 36.5 10t36.5 10q14 3 17.5 15.5t-6.5 19.5 q52 11 103 11q148 0 262 -81q5 6 16 14q10 1 16 10q10 19 12 51q6 6 15 6v6t2 7q2 5 5 7q1 1 3 4v154q-1 2 -4 7t-5 7l-21 30t-22 30q-5 7 -15 17h-71q-65 0 -65 65t65 65h32q-6 -8 -1 -17.5t19 -11.5q24 -4 53.5 -3t50.5 15q6 7 6 17h43q26 0 45.5 -19.5t19.5 -45.5v-349 q-9 4 -17.5 -0.5t-10.5 -15.5q0 -18 1.5 -63t1 -70t-5 -61t-15.5 -64q-6 -20 12 -26t26 14q2 5 4.5 13.5t3.5 11.5v-175q-7 29 -8 52q-6 17 -21 16.5t-19 -18.5q2 -25 14 -73t13 -73q4 -21 21 -21v-211q0 -1 1 -2h51q-5 -19 20 -24zM496 66q16 0 49.5 -3t50.5 -4 q18 4 18.5 19t-16.5 21q-36 1 -78 6q56 7 113 23q8 3 16 5q3 -3 11.5 -20t21.5 -20q9 -2 19 1.5t25 13t17 10.5q56 30 87.5 66t28.5 88q-3 7 -7 11q50 77 50 173q0 135 -97 229q-97 96 -234 96t-235 -96q-63 -61 -85 -139v19q-6 17 -21 16.5t-19 -18.5q0 -66 8 -106 q5 -15 20 -15q2 -28 6 -53q-11 10 -23.5 5t-9.5 -22q10 -31 32 -65q1 -8 6.5 -26t6.5 -29q1 -19 18 -21h4q1 0 3 1q3 1 5 3q1 0 2 1q1 2 6 9q2 -2 5.5 -6t5.5 -6v-2q-1 -6 0 -10q-12 6 -21.5 -0.5t-6.5 -20.5q2 -5 4 -14.5t4.5 -16.5t6.5 -12q41 -62 191 -56 q-12 -7 -8.5 -20t20.5 -15zM476 142q-93 -5 -135 23q9 -1 15.5 5.5t7.5 17.5v1q26 -15 48 -22q30 -16 64 -25zM883 88q3 0 9 -0.5t10 -0.5v21q-13 -11 -19 -20zM776 198h-2l29 16q-7 -12 -18 -21q-2 2 -9 5zM694 137q-3 3 -5 7q6 1 15.5 3.5t15.5 3.5q-18 -10 -26 -14z M873 812q3 -2 7 -4q0 2 -0.5 5t-0.5 4q-2 -2 -4 -3zM902 1180h-9q8 -6 9 -7v7z" />
<glyph unicode="e" d="M1063 726v-1q0 -28 8 -52q3 -7 7 -10l3 -23q-8 6 -19 28.5t-13 25.5q-13 16 -27.5 7t-6.5 -27q5 -7 15.5 -27.5t21 -32t26.5 -15.5q1 -1 6 -1q1 -5 1 -16q8 -18 -1 -34.5t-32 -21.5h-6q-2 0 -4 0.5t-4 0.5l-18 -18h-421q-10 -10 -23 -13q2 -2 7 -3.5t8 -3.5q1 -2 2 -2.5 t1 -2.5q-114 13 -125 14q-1 2 -3.5 5.5t-4.5 5.5h-162q-1 -1 -1 -3.5t-1 -3.5q-2 -2 -6 -18l-1 -1q1 -1 1 -7q-1 -1 -1 -3q-10 -22 -29 -14q23 -112 90 -173q17 3 33 -4q-12 -7 -8.5 -21t12.5 -26t20 -21q60 -54 154 -59q19 0 52 10t49 11q25 1 68.5 -3.5t67 -5t68.5 10.5 q16 5 35 17l32 22q39 28 71 31q20 4 18 23t-23 17q-35 -3 -83.5 -35t-64.5 -38q-32 -13 -79 -8l87 15q12 3 16.5 13.5t-2.5 18.5q59 22 130 59q16 9 33 9q26 0 45 -20.5t19 -47.5q0 -37 -35 -55q-154 -82 -305 -111q-1 0 -3 1l-2 1h-158q-16 -1 -22 -15q-210 9 -327 129 q-38 38 -64 85q3 11 4 13q-4 17 -8 28.5t-6 19.5t-3 27q-6 16 -20 16q-2 7 -7.5 22t-8.5 23q0 1 0.5 2.5l1 3l1 3t0.5 3.5v6q-3 9 -11 14q-6 50 -6 104q0 48 8 98q3 0 4 1q36 15 60 56.5t28 84.5q0 15 -10 21q0 6 -2 20l-2 4q24 31 55 58q81 72 192 100q15 -10 96 -7.5 t84 2.5h1q6 -2 7 -2q7 -4 10 -17.5t10.5 -26.5t25.5 -16q20 -2 24 15.5t-16 23.5q-2 0 -2 1q-1 1 -1 3q-1 1 -1 2q23 -6 49 -8q6 -12 18.5 -11.5t19.5 15.5q0 5 1 6q6 8 2 17q3 -1 11 -3.5t12 -4.5q2 -1 5.5 -1.5t5.5 -0.5l12 -2q12 -4 15 -13q49 -25 90 -61q13 2 20 1l6 -3 q14 17 32 4q12 -14 0 -27t-25 -4q0 -1 -1 -2q29 -31 53 -72q5 11 21 12h20q17 -6 16.5 -21t-18.5 -19h-20q-3 0 -4 1q18 -38 29 -72zM318 625q63 -3 120 -22q6 -2 19.5 -9t25 -11t20.5 -4q64 1 180.5 6.5t163.5 6.5q16 3 18 17t-12 21l10 5q4 -1 13 -1h16q32 0 48 24 q20 35 -41 94q-9 25 -31 47q-14 32 -55 71q-12 8 -20.5 5t-11.5 -13q-80 45 -148 54q-25 -2 -35 -16q-23 7 -71 13q-41 3 -69 -8t-40 -26.5t-30 -37t-37 -32.5h-5v-2q-4 -3 -15 -12q-11 -11 -6 -33q-16 -16 -22 -39q-19 -3 -27.5 -20.5t2.5 -40.5q7 -11 19 -18q1 -16 21 -19 zM185 355q3 -18 17 -20q1 -2 5.5 -12t8.5 -16q-12 4 -19.5 -6t-1.5 -24q12 -13 36 -45t40 -47l2 -2q1 -1 2 -1t2 -1q15 -6 24.5 2t4.5 23q-4 7 -17.5 32.5t-19.5 41.5q-1 3 -10.5 30t-19.5 44.5t-23 25.5q-25 8 -29 -17q-1 -1 -1 -3.5t-1 -4.5zM257 619q-2 -8 -6 -14h-4 q-17 -8 -15 -22.5t20 -17.5q19 2 31 15.5t14 33.5q2 21 -17 23t-23 -18zM465 223q57 -17 131 -19q-41 -13 -80 -1q-27 7 -51 20zM142 725q14 45 33 83q1 -3 4 -4l1 -1v-1q-9 -48 -38 -77zM477 628q79 -12 200 -6q-101 -7 -171 -3q-9 0 -29 9zM213 820h1q0 -1 -1 0z" />
<glyph unicode="f" d="M915 1202q-2 0 -5.5 2.5t-14.5 4.5q-18 -2 -22.5 -16t12.5 -22q-27 5 -48 6q4 13 -9 23q-34 24 -67 24.5t-58 -12t-62 -40.5q-44 -33 -51 -54q-6 -22 14 -27q-20 -42 -20 -98v-7q2 -9 7 -30t7 -32h37q-3 -9 2.5 -16.5t17.5 -9.5h26q0 -2 2 -2q16 -11 49 -14.5t62 -1 t69 6.5l50 5q12 3 16.5 13.5t-2.5 18.5h37q65 0 65 -65t-65 -65h-118q-53 18 -71 14q-14 -3 -23 -14h-135q-11 -30 -33 -58v-149q-12 -3 -15.5 -15t8.5 -20q3 -2 7 -4v-7q-2 0 -2 0.5t-2 0.5q-3 0 -4 -1q-2 0 -4 -1.5t-3 -1.5l-5 -5l-3 -9v-50q-10 -4 -13 -17v-46 q2 -16 13 -20v-73q5 -25 23 -20v-133q13 -11 35 -35h77q0 -1 -1 -5t-2 -5q2 -17 15 -20t22 10q11 8 9 20h210q65 0 65 -65t-65 -65h-296q0 14 -16 20q-8 0 -24.5 0.5t-23.5 0.5q-14 11 -25.5 2.5t-6.5 -23.5h-50q-6 13 -18.5 12.5t-17.5 -12.5h-53q17 5 39 6q18 4 18.5 19 t-16.5 21q-23 -2 -66.5 -10t-65.5 -9q-14 -2 -19.5 -10t-1.5 -17h-62q-65 0 -65 65t65 65h210v90q9 -4 17.5 1.5t10.5 19.5q-1 22 -1.5 91.5t-1.5 104.5t-7.5 89.5t-17.5 97.5v170h-210q-65 0 -65 65q0 37 21 53q16 -3 57.5 -19.5t68.5 -14.5q18 2 45 20t46 20q7 2 12 6h25 v69q0 317 338 317q145 0 249 -37l45 -58q0 -67 -67 -67q-10 0 -20 3q-16 3 -42 7.5t-36 6.5q12 7 10.5 19.5t-16.5 17.5zM789 1180q-54 -2 -87 -11q50 28 79 15q2 0 4.5 -2t3.5 -2zM321 918q-22 -4 -44 6h62q-7 -4 -18 -6zM751 924h83q-49 -5 -82 -4q0 3 -1 4z" />
<glyph unicode="g" d="M720 832q-5 14 -16 24q79 -22 145 -78q4 13 20 30q7 6 13 6q2 22 19 40q20 20 46 20h154q65 0 65 -65t-65 -65h-23q6 18 21 9q18 -8 27 6.5t-7 27.5q-27 18 -52.5 2.5t-29.5 -45.5h-25v-761q0 -419 -431 -419q-49 0 -174 21q-55 7 -55 59q0 30 21 52q20 20 50 18 q-1 -13 12 -20h1v-1l1 -1h1l4 -2t3.5 -1t3 -1t1.5 -2q11 -21 28 -10v-2q-9 -17 4 -30q19 -15 67 -9q32 5 53 10q25 -19 55 -15.5t56 20.5q2 3 7.5 3t15 1t18.5 6q7 4 11.5 10.5t8.5 16t7 13.5l1 2q2 2 2 3q21 16 46 41q15 22 -6 33q58 70 58 204v75l-2 2q-2 1 -3 2 q-4 -10 -17 -13q-31 4 -47 25q-104 -68 -234 -68q-180 0 -307 127t-127 307q0 179 124 304q10 -14 28 -3q3 1 7 5q1 0 3.5 1t3.5 2q16 4 18 18t-11 20q112 87 261 87q31 0 56 -4q-1 -9 8 -18q2 -2 12 -7.5t18 -11t8 -9.5q8 -18 22.5 -14t16.5 22zM882 440q0 126 -89 215 t-214 89q-126 0 -215 -89t-89 -215v-17q-15 11 -26 0.5t-4 -26.5q5 -6 8 -16t3.5 -17.5t0.5 -19.5v-16q2 -12 11 -17.5t17.5 -1.5t10.5 16q23 -56 68 -100l9 -9q8 -37 25.5 -56t36 -23t53.5 -10.5t62 -17.5q14 -2 20.5 6.5t1.5 20.5h7q125 0 214 89t89 215zM581 -306 q28 0 41 1q-7 -2 -21 -11q-7 -1 -19 -2.5t-22 -3t-19 -3.5q-3 -1 -8.5 -1t-8.5 -1q0 17 -9 27q43 -6 66 -6zM873 121q-3 -2 -6 -5q3 -1 7 -3q-1 1 -1 8zM686 -296l12 1q-3 -1 -12 -1z" />
<glyph unicode="h" d="M978 510v-66q1 -14 16 -20v-22q-13 -3 -16 -18q-1 -14 -4 -52t-3.5 -58t5 -49.5t18.5 -51.5v-71q5 -3 12.5 -9t13.5 -9.5t14 -4.5q9 -4 13 -9h52q65 0 65 -65t-65 -65h-30q0 14 -16 20q-36 -2 -104.5 -10.5t-101.5 -9.5h-80q-65 0 -65 65t65 65h52q1 24 45 33v58 q7 -4 16 -1t13 8.5t2.5 13t-4 13.5t-8 14.5t-6.5 11.5q-5 8 -5 28q-3 32 3 98q0 12 1.5 38t2.5 40q-4 11 -15 16v109q0 47 -19 86q3 6 3 13l2 1l-1 2q-1 2 -2 2v2q-19 39 -39 70q0 1 -2 4t-2 5q-2 4 -4.5 13t-4.5 14q-13 22 -42 24q-16 9 -34 11t-44 -2.5t-52.5 -13 t-70.5 -24.5q-6 -2 -23 -7t-26.5 -9t-22 -11t-20 -17t-9.5 -24q4 -16 15 -20v-1q-3 -2 -7 -4q-14 -9 -8 -24q-73 -83 -73 -191v-41q-16 2 -21 -18q-1 -24 -4 -69.5t-3 -69.5q2 -13 10.5 -18t17.5 -1v-104q4 -7 8 -21.5t10 -23.5t17 -11l5 -2h52q65 0 65 -65t-65 -65h-24 q-3 3 -10.5 12t-11.5 13.5t-11 11t-12.5 9t-13 2.5t-14.5 -4q-17 -9 -10 -39q-5 0 -35.5 1.5t-34.5 -0.5l-18 2q-25 3 -74 5q-16 0 -38 -13h-7q-65 0 -65 65t65 65h74q5 6 18 19v24q9 -2 15.5 4t7.5 18q0 55 -3 164.5t-4 165.5q-3 9 -12 14q0 3 1 8t1 7q2 10 4.5 28t3.5 27 q11 77 9 94q-1 7 -7.5 19t-7.5 16q-5 13 -8 27v137q3 16 9 32q3 9 14.5 34t20 47t7.5 33t-14 28.5t-14 29.5q-6 18 -23 16v26q-7 7 -21.5 18.5t-16.5 13.5h-52q-65 0 -65 65t65 65h155q25 0 45 -20q10 -8 14 -18q-41 -18 -35 -95q3 -13 12 -18t18 0.5t10 19.5q-3 38 1 47 v-374q9 -5 24 -18q120 102 282 102q133 0 224 -103q20 -23 32 -42q5 -35 22 -55q6 -6 10 -7q2 -4 4.5 -12t3.5 -11q-15 -6 -16.5 -18t15.5 -19v-1l-1 -12q1 -14 15 -20q1 -9 1 -26v-22q-13 -3 -16 -18zM925 228q0 17 6.5 49.5t6.5 49.5q-6 17 -21 16.5t-19 -18.5 q0 -17 -6 -50t-7 -49q3 -13 12 -18t18 0.5t10 19.5zM764 725l-53 18q2 1 6.5 1t6.5 1h10q7 0 10 1q7 -5 17 -15z" />
<glyph unicode="i" d="M564 172h1v85q1 24 7.5 117t8.5 144q0 6 1 24t0.5 26.5t-4.5 19t-13 15.5v90q-6 -1 -14 4q-1 1 -5 4q-19 -5 -24 20q0 55 -4 73h-25q-3 7 -14 12q-15 -1 -41 -6t-35 -6h-68q-65 0 -65 65q0 47 34 60q0 -17 21 -21q5 0 35.5 -1.5t52.5 -2t47 5t35 16.5q3 4 4 8h131 q26 0 45.5 -19.5t19.5 -45.5v-109q-9 4 -17.5 -0.5t-10.5 -15.5q-1 -21 -4 -62t-3 -63q2 -16 14.5 -20t20.5 7v-169q-9 4 -17.5 -0.5t-10.5 -15.5q0 -18 -1 -61t0.5 -75t6.5 -60v-1l1 -1v-2q6 -16 21 -14v-67h180q0 -2 1 -2q23 -32 136 2h38q65 0 65 -65t-65 -65h-215 q-15 3 -37 14t-42 13q-16 3 -57 1t-60 -3.5t-58.5 -5t-51.5 -4.5q-133 -10 -268 -15h-39q-65 0 -65 65t65 65h23q0 -8 8 -14q18 -11 36 -11.5t44.5 6.5t37.5 8q10 1 16 11h125q28 36 52 42zM680 1309q-2 -18 -10 -49.5t-10 -49.5q2 -16 14.5 -20t20.5 7v-44q0 -65 -65 -65 t-65 65v167q0 65 65 65q62 0 65 -59q-12 -3 -15 -17zM562 732h3v31q-1 1 -3 4v-35z" />
<glyph unicode="j" d="M491 922q9 -9 31.5 -13.5t40 -5t47.5 0.5t32 1q18 3 18 19h186q26 0 45.5 -19.5t19.5 -45.5v-93q-22 -42 -20 -113.5t20 -131.5v-483q0 -418 -421 -418q-83 0 -192 26q-50 12 -50 61q0 67 64 67q-2 -9 2 -17q34 -54 183 -48q4 -10 19 -13q50 9 76 21q9 -1 35 -13.5 t42 -6.5q13 6 26 20.5t26 37.5t21 39.5t19.5 42t13.5 29.5q24 52 34 141.5t9 154.5t-6 180t-6 137q-7 21 -25 15v239q-7 17 -19 33q-5 6 -42 28h-21q0 13 -16 19q-109 0 -162 11q-11 2 -32 9.5t-33 9.5q-23 3 -62 -12.5t-54 -17.5q-15 -8 -16 -19h-41q-65 0 -65 65t65 65 h206q0 -2 2 -2zM714 1205q0 15 2.5 46t3.5 47q-4 11 -12.5 15t-16.5 -1v12q0 65 65 65t65 -65v-58q-11 -28 -15 -69q3 -17 15 -20v-18q0 -65 -65 -65t-65 65v24q9 -2 15.5 4t7.5 18zM452 803q10 -1 32 -9h-78q22 10 46 9zM362 -233q64 -11 99 -15q4 0 10 -1t9 -2 q-83 0 -118 18zM637 -257l21 18q7 5 8 7q2 0 4 2t3 2v-4q-12 -14 -23 -32q-5 3 -13 7zM709 -187q-4 -4 -5 -7l-2 2h1l1 1q3 3 5 4z" />
<glyph unicode="k" d="M320 53q-31 -1 -98 -13h-62q-65 0 -65 65t65 65h68q5 8 14 19t15.5 19t6.5 11q5 23 26 17q5 5 7 18q0 7 2 23q4 20 10 59.5t9 58.5q-6 5 -8 16q5 22 14 99v49q-3 12 -11.5 41.5t-12.5 46.5q-3 12 -11 72v386q-10 4 -12 19q-5 42 -18 61q-6 8 -19 17q-11 5 -15 13 q-1 1 -1 3l-1 2h-65q-65 0 -65 65q0 37 21 53q22 -6 47 -19t36.5 -17t34.5 6t55 42h67q26 0 45.5 -19.5t19.5 -45.5v-79q-9 4 -18 -0.5t-11 -15.5q0 -15 2 -43.5t2 -38.5q-2 -2 -4 -10v-136q-2 -4 -4 -10.5t-3 -9.5v-98l3 -2l4 -2v-9q-5 -1 -7 -4v-145q13 5 14 22 q0 1 -1.5 23.5t0.5 25.5q11 -11 23 -3v-178l43 38q6 -2 12 0q-14 -16 -20 -22q-6 -9 -4 -17q31 22 62.5 53.5t47.5 56.5q19 14 32 -3q7 7 10 9q14 12 47 29.5t47 29.5q15 12 12 34.5t-25 22.5h-1l8 7q-3 9 -3 11q0 3 -0.5 8t-1.5 8q-39 11 -39 62q0 65 65 65h10q0 -6 3 -10 q9 -22 35.5 -26t48.5 3q14 2 43 12t44 12q8 2 24.5 -7.5t25.5 -9.5q17 0 57 26h43q65 0 65 -65t-65 -65h-131l-4 -4l-210 -184q0 -24 -1 -36q0 -3 -2 -24t-5.5 -36.5t-10.5 -26.5l20 -22q0 -5 3 -10q19 -27 41.5 -54.5t52 -59.5t47 -50.5t55 -56.5t48.5 -49t23 -7l42 -44 h118q65 0 65 -65t-65 -65h-48q0 14 -16 20q-13 1 -46.5 14.5t-53.5 9.5q-13 -4 -33.5 -14.5t-25.5 -12.5q-27 -12 -59 -17h-55q-65 0 -65 65q0 63 60 65q-1 4 -3.5 10t-4.5 10.5t-3 9.5q8 -5 17 1t11 20q-10 49 -64.5 111.5t-102.5 92.5q-12 3 -19.5 -2t-8.5 -15q-3 3 -5 11 q-1 1 -14 9l-63 68l-110 -98v-48q-13 -3 -16 -18q-1 -36 -4 -106t-3 -106q5 -23 23 -21q-1 -21 -20 -40t-45 -19h-19q-3 8 -15 13zM177 1350h46q-22 -13 -46 0zM272 170h17v18q-15 -14 -17 -18zM656 573q2 6 4 37l-9 -7q5 -14 5 -30zM974 44q12 1 31 -4h-46q10 3 15 4z" />
<glyph unicode="l" d="M372 1309q10 -2 37.5 -13t49 -18.5t43.5 -4t30 24.5q2 6 2 12h88q26 0 45.5 -19.5t19.5 -45.5v-17q-15 0 -20 -18v-291q2 -14 11.5 -19t17.5 1v-12q0 -1 -1 -2t-2 -3q2 -2 3 -2q-2 -97 1 -145h-1q-7 11 -20 8t-16 -17q0 -68 3 -205t4 -205q4 -21 20 -21v-117 q20 -18 22 -19q9 -14 9 -31h322q65 0 65 -65t-65 -65h-77q-1 2 -2.5 4t-1.5 3q-16 13 -44 13q-23 -2 -23 -20h-194q-6 2 -18 3t-18 2q-2 3 -12 8q-40 -1 -118.5 -3t-118.5 -3q-11 -1 -17 -7h-157q-65 0 -65 65t65 65h12q1 -15 21 -18h86q16 4 18 18h137q3 3 8 10t7 10 q1 47 15 94q18 2 19 23q1 48 9.5 144.5t10.5 146.5q-7 21 -25 15v371q-3 18 -7 53.5t-7 53.5q-2 1 -5 3t-4 4q-1 1 -3 2l-2 2q-1 0 -1 1l-2 1q-28 0 -56 26q5 6 6 16q-5 38 -29 60q-9 5 -17 13q-6 17 -20.5 16t-18.5 -15h-108q-65 0 -65 65q0 63 60 65q12 17 37 18 q7 -2 21.5 -3.5t21.5 -2.5q2 -8 14 -13zM720 481q-1 -22 -15 -34q0 28 -1.5 85t-2.5 87q4 -4 8 -4q1 -4 2 -12.5t3 -12.5q0 -2 1.5 -4.5t2.5 -3.5q0 -18 1 -51t1 -50z" />
<glyph unicode="m" d="M747 905q17 1 49.5 7t50.5 6q23 5 17 26q22 2 36 2q215 0 224 -275q-8 -25 -12 -49.5t-3 -58t2 -49t7 -60t7 -52.5v-123q-2 -3 -10 -13.5t-10 -16.5q-7 -15 -9 -63q2 -20 18.5 -20.5t20.5 15.5q3 -4 18.5 -22t20.5 -29h20q65 0 65 -65t-65 -65h-134q-26 0 -45.5 19.5 t-19.5 45.5v103q8 -6 17.5 0t11.5 20q-1 15 -4.5 47t-5.5 55t-1 50.5t8 45.5q6 14 -4 23.5t-22 3.5v232q0 79 -12 112q-20 59 -83 59q-182 0 -197 -198q-5 3 -13 3q-22 -9 -35 -25t-16.5 -41.5t-4 -43.5t3 -51t3.5 -43q3 -21 19 -21q6 -82 7 -124q2 -16 14.5 -20t20.5 7v-76 q19 -12 68 -53h2q65 0 65 -65t-65 -65h-135q-27 0 -46 19q-16 16 -19 36q9 -5 18 0.5t11 20.5v231q-4 11 -12.5 15t-16.5 -1v332q0 163 -102 163q-20 0 -40 -3q11 17 -1 27.5t-28 -1.5q-26 -26 -48 -26q-13 -1 -19 -8.5t-3.5 -16.5t12.5 -13q-32 -27 -48 -73q-8 6 -18 2 t-13 -16q-1 -37 -9 -162t-7 -193q0 -34 0.5 -47.5t7.5 -37.5t21 -38v-32l4 -4l-1 2q-4 3 5 -1q4 -2 13 -6l12 -6q10 -8 11 -15q0 -10 1 -13q0 -4 -1 -5h43q65 0 65 -65t-65 -65h-148q7 20 -15 27h-106q-14 -2 -19.5 -10t-1.5 -17h-9q-65 0 -65 65t65 65h50q5 10 32 39v34 q8 -9 19 -4t13 22v317v17.5v20.5t-0.5 19.5t-3 21t-5.5 17.5t-8.5 18t-12.5 14l-2 8v120h-87q-65 0 -65 65t65 65h152q17 0 31 -8q-2 -3 -4 -7.5t-3 -7t-2 -2.5q-20 -8 -14 -26t26 -12q16 5 27.5 27t14.5 25q6 2 31 4q66 29 151 29q107 0 167 -75q11 -2 48 0q23 20 52 37 q4 -3 10 -3zM702 583v-211q-2 38 -2 54q-6 18 -21 16q-7 35 -4 84t27 57z" />
<glyph unicode="n" d="M390 695q0 -13 -6.5 -39.5t-7.5 -40.5q1 -8 7 -16q-6 -10 -8 -38q-16 -29 -17.5 -103t5.5 -169.5t7 -115.5q0 -7 3 -11q8 0 16 -5q1 -2 26 -27h57q65 0 65 -65t-65 -65h-58q-3 8 -15 13q-7 0 -67.5 4t-103 0.5t-67.5 -17.5q-60 2 -60 65q0 65 65 65h28q13 38 53 42 q11 1 17.5 -5.5t5.5 -15.5q6 7 8 17q1 30 5 109.5t5 121.5t-3 106t-15 116q-1 7 -20 52v86q-39 12 -52 35h-27q-65 0 -65 65q0 38 22 53h2q1 -1 3 -1q3 0 7.5 -0.5t6.5 -0.5q30 -26 92 -32q18 4 18.5 19t-16.5 21h-8l9 6h73q25 0 45 -20q14 -14 18 -30l13 13q0 9 8 14t20 2 q2 -2 4 -2q11 -11 10 -22q101 67 246 67q143 0 234 -94q60 -63 79 -140q-11 -3 -14 -17v-27q1 -8 7 -16q-11 -3 -14 -17q1 -8 10.5 -27.5t9.5 -25.5q2 -14 11 -18v-11q-23 -271 -24 -321q5 -25 24 -20v-82h87q65 0 65 -65t-65 -65h-36q-40 2 -118.5 10.5t-118.5 9.5 q-23 -2 -23 -20h-6q-65 0 -65 65t65 65h27q3 22 36 61q17 12 29 0q15 20 19 62.5t2 77t-8 87t-7 61.5q-5 12 -13 15v134q0 81 -53 134q-39 40 -99 51q-40 28 -68.5 31t-52.5 -11q-1 3 -9 11q-7 5 -17.5 7.5t-16.5 2.5t-21 -1t-17 -1q-14 -1 -19.5 -10t-0.5 -18t18 -12 q4 0 17 2t20 1q-26 -11 -62 -15q-17 -8 -16 -21t17 -18q-16 -11 -35 -32q-16 -18 -27 -34v2q-6 17 -21 16.5t-19 -18.5zM857 130h15v26q-13 -15 -17 -24q0 -2 2 -2zM240 130h10v2z" />
<glyph unicode="o" d="M324 940q2 -2 2 -4l3 3q4 4 9 5q-6 13 7 23t26 -1q0 -1 1 -2q109 58 243 58q164 0 291 -88q14 10 26 -1q9 -9 4 -21l30 -26h28q10 -4 15 -15q11 -1 15 -15v-20l-3 -11q96 -121 96 -282q0 -201 -148 -340q-146 -139 -354 -139q-207 0 -355 139q-4 3 -11 10.5t-10 11.5 q0 3 1 4q1 7 1 21q-3 3 -3 9q0 3 -1 8t-1 7q-8 30 -15 46q-35 55 -48 95q-13 -1 -15 -17q0 -2 0.5 -7t0.5 -8q-11 2 -16 -9q-30 78 -30 169q0 199 147 339q11 11 35 31q-1 1 -1 2q-11 15 3 25.5t27 -0.5zM251 722q0 -77 -5 -131q0 -5 -1 -14.5t-2 -13.5q-2 -22 -5 -33 q2 -8 6 -14q9 -125 107 -219q109 -103 264 -103q156 0 263 103q54 51 81 112l-1 1q-2 0 -2 1q-20 -7 -25 20q2 36 5 56.5t15 47.5t34 39q-3 38 -15 76q12 4 14 21h-1q-3 -13 -14.5 -16.5t-20.5 9.5q-12 15 2.5 25t26.5 0q-14 35 -43.5 67.5t-59.5 41.5q-2 0 -4 0.5t-3 0.5 q-105 93 -252 93q-155 0 -264 -103q-35 -34 -60 -74v9q-6 17 -21 16.5t-19 -18.5zM965 611q-2 -20 -17.5 -22t-21.5 14q-16 6 -14 21.5t22 17.5q13 0 22 -9t9 -22zM912 656q11 -13 0.5 -27t-25.5 -3q-11 7 -8.5 18.5t12.5 15t21 -3.5z" />
<glyph unicode="p" d="M1110 549q0 -4 5 -35t7 -51q2 -4 2 -12.5t2 -12.5l-2 4q13 -130 -22 -184q-4 -6 -12 -15q-19 -47 -50 -66l-6 -3q-15 -18 -32 -35q-136 -134 -325 -134q-194 0 -331 140v-82q-16 9 -27 -9q-1 -3 -8 -27v-169q4 -14 15.5 -16t19.5 8v-69q33 -20 52 -49h29q13 -32 47 -36.5 t48 29.5q0 6 -1 7h89q65 0 65 -65t-65 -65h-148q-44 22 -93 0h-78q-5 4 -15.5 13.5t-17 14.5t-17 8.5t-20.5 0.5q-21 -5 -30 -21q-6 -1 -17 -6q-8 -2 -24 -4q-1 0 -10 3q-9 8 -18.5 5.5t-13.5 -12.5q-44 9 -44 63q0 65 65 65h34q3 7 7.5 20.5t8 20t12.5 13t23 8.5h2v61 q8 3 14 14q9 50 -5 145v2l-1 1q-4 37 -6 69q3 41 4 49l-1 -22v-1q13 126 16 146q-4 64 -2 192q-6 18 -10 48q-4 9 -9 13v224q-3 4 -10.5 17.5t-13.5 19.5t-17.5 13t-13.5 9h-30q-65 0 -65 65q0 59 54 64q9 -8 46 -36q16 -12 29.5 -13t21 3.5t16.5 12.5t13 10q15 10 10 24h25 q26 0 45.5 -19.5t19.5 -45.5v-19q1 -1 4.5 -5t5.5 -6q12 -11 15 -21q130 116 306 116q190 0 325 -135q95 -95 123 -214q-11 1 -18 -3q2 -22 3 -23zM347 592q-8 -4 -12 -10.5t-8.5 -19t-5.5 -15.5q-15 -33 -12 -63t10.5 -44.5t20.5 -41.5t18 -53q4 -13 15 -15q24 -55 70 -99 q97 -96 234 -96q135 0 233 96q97 97 97 234l-14 14q-1 24 -7 44q-6 34 -24 68t-50 78.5t-42 59.5q-13 16 -27.5 7t-6.5 -27q0 -1 1 -2q-47 28 -110 37l-50 50q-137 0 -234 -97q-48 -48 -74 -108q-9 9 -22 3zM953 272q-2 -10 -12.5 -21.5t-19.5 -12.5q-20 -8 -14 -26t26 -12 q18 5 35 23t23 37q0 18 -15 23t-23 -11zM929 551q3 -4 8 -6q4 -10 6 -17l-160 161q93 -36 146 -138zM754 746q10 0 27 -6.5t26 -6.5q18 4 18.5 19t-16.5 21q-9 0 -26 6t-27 7q-14 -1 -19.5 -10t-0.5 -18t18 -12zM199 912l-9 6l-9 6h32q-2 -1 -6.5 -5.5t-7.5 -6.5zM346 7v-82 q-6 52 0 82zM348 505l-1 -13q0 10 1 13z" />
<glyph unicode="q" d="M662 -311q11 1 32.5 4t33.5 3q15 4 18 16t-8 20h110q27 62 51 95v22q18 0 19 21q1 19 4.5 57t4 59t-5.5 51t-22 55v53q-137 -140 -330 -140q-190 0 -326 134q-135 135 -135 326t135 324q135 135 326 135q73 0 134 -19q-14 -1 -19.5 -10t-0.5 -18t18 -12h27q23 5 18 24 q3 -1 7 -3q0 -12 14 -20q6 -12 16.5 -13t17.5 8q38 -23 62 -44q8 10 27 28q2 2 9 5v9q0 26 19.5 45.5t45.5 19.5h28q1 -12 10.5 -16t21.5 2q14 13 16 14h64q65 0 65 -65q0 -48 -34 -61q0 1 1 4q0 16 -10 20q-3 8 -13 11h-20q-20 -2 -22 -18.5t16 -20.5h-58v-231l-3 -3 q-7 -7 -15 -28q1 -85 4 -255.5t3 -255.5q3 -10 11 -13v-230l2 -2q8 -8 25 -44h70q65 0 65 -65t-65 -65h-180q-2 0 -3 1t-2 1q-44 1 -129.5 7t-128.5 6q-18 -2 -22 -15h-26q-65 0 -65 65v6q3 1 6 4q7 0 19 -1.5t21.5 -1t17.5 5.5q7 6 13 16q8 -6 15 -7zM450 125q21 0 33 7 q5 8 5 12q39 -9 81 -9q135 0 233 96q47 47 71 103q5 -12 14 -20q16 -7 26.5 4t-1.5 26q-15 15 -8 83l1 2q5 45 13 135q2 19 -14 22.5t-24 -10.5q-24 67 -78 121q-56 55 -122 78q5 19 -16 25h-113q-14 -2 -18 -8q-104 -10 -184 -81q-4 16 -23 16q-19 -7 -31 -15q-6 6 -15 8 q-18 -2 -22.5 -14.5t7.5 -20.5q-1 -3 -1 -10v-5q-7 -14 -22 -58q-1 -2 -7.5 -16.5t-8.5 -23.5q-3 -4 -5 -11q0 -1 -2 -7.5t-4 -11.5q-26 -17 -28 -45.5t14 -77.5t18 -61l2 -6q-6 -63 19 -84q16 -7 26.5 4t-1.5 26q-5 5 -3 39q17 -42 45 -77q-10 6 -20.5 -0.5t-8.5 -20.5 q6 -34 29 -68t51 -45q19 -3 23 13h3q9 -1 25 -2t24 -3q6 -7 17 -9zM335 231q32 -32 68 -53q-12 0 -17 1q-17 -2 -21 -13q-17 11 -30 35t-18 46q-1 1 -1 3q9 -10 19 -19zM1028 404q0 8 1 11v-281q-19 111 -1 270zM586 -283q15 13 41 15q-2 -4 -7 -9.5t-7 -8.5q-4 0 -8.5 0.5 t-10 1.5t-8.5 1zM892 -268h7v15q-2 -2 -3.5 -7t-3.5 -8zM693 -268l-24 -3l2 2t2 1h20z" />
<glyph unicode="r" d="M708 99q12 2 16.5 12.5t-1.5 18.5h77q-5 -19 20 -24q17 0 50.5 -3t50.5 -4q7 -13 7 -34q0 -65 -65 -65h-149q8 8 5 18t-16 15h-26q-12 -1 -18.5 -7.5t-4.5 -15.5q-7 1 -26.5 3.5t-30 3.5t-26.5 1.5t-28.5 -2.5t-22.5 -9q-2 -1 -5.5 -3.5t-5.5 -3.5h-133q-39 11 -142 13 q-16 -1 -21 -13h-42q-65 0 -65 65q0 18 4 30q4 -3 10 -3q48 2 78 32q0 2 2 3t2 3h134q-2 2 -3 5q-6 14 1 25q10 16 43 18q4 6 6 17q1 91 16 327q-11 2 -15 15q-2 14 -10 27q-7 17 4 26t24 0v6q-6 18 -20 64q-1 0 -7 -2v88q-13 2 -17 15q-5 8 -20 19q-10 -9 -21.5 -4.5 t-11.5 18.5h-95q-65 0 -65 65t65 65q-8 -17 13 -25q40 -14 58.5 -14.5t43 8.5t53.5 12q18 3 18 19h44q26 0 45.5 -19.5t19.5 -45.5v-10q12 5 24 -9q7 -12 13 -44l37 20q3 1 15 10q8 8 18.5 5.5t13.5 -12.5q145 100 311 100q87 0 146 -41q2 -10 8 -14q-10 -3 -13.5 -11 t3.5 -18q10 -14 23.5 -7t11.5 22l3 -3q19 -20 19 -45q0 -26 -20 -46t-47 -20t-46 21q-31 25 -69 30q5 18 -15 26q-58 0 -89 -8q-6 0 -33 -1t-34.5 -1.5t-28 -3.5t-31 -7.5t-24.5 -12.5t-26 -20q-103 -27 -132 -178q-12 -6 -14 -15.5t5 -16.5q-5 -7 -15 -19t-14 -18v-80 q-3 -1 -5 -3q-11 -15 -18 -31q0 -58 3 -115q1 -3 20 -57v-45q38 -22 57 -51h59q23 -29 87 -31zM606 630q-11 -11 -16 -17q11 35 28 58q-8 -21 -12 -41zM541 755q-1 -2 -1 -7q4 4 6 5q-3 0 -5 2zM508 717q-2 0 -3 1v-5l2 2t1 2zM694 722v-1l-1 -1q0 1 1 2z" />
<glyph unicode="s" d="M913 439q16 -6 26 -7q3 0 4 1q86 -68 86 -185q0 -12 -1 -18q2 -2 3 -2q15 -18 -6 -32q-6 -35 -18 -65q12 7 24 -2q8 -10 3.5 -21t-15 -12.5t-18.5 8.5q-3 2 -4 7q-26 -49 -71 -85q-102 -84 -272 -84q-178 0 -292 60q-5 -9 -17 -12h-38q-10 -43 -63 -43q-64 0 -65 63 q13 0 19 15q8 44 6 73t-10 83t-9 76q-2 6 -5 8q8 54 61 54q37 0 56 -34q-10 3 -21 -5q-12 -12 -12 -45q3 -13 12 -18t18 0.5t10 19.5v15q0 1 2 3q2 1 2 3q25 -82 96 -127q0 -7 3 -13q5 -11 15.5 -21t27 -21.5t21.5 -15.5q16 -7 26.5 4t-1.5 26q-1 0 -2 1q66 -19 160 -19 q110 0 173 42q-5 -13 8 -21q12 -9 21.5 -1t7.5 21l1 1v-4q5 -25 23 -20q-13 1 -16 20q0 2 0.5 3t0.5 3q1 8 5 12v2q2 11 9.5 15.5t16.5 1.5q5 5 6 8q9 -1 15 5t7 18v6q-3 6 -7 10q-16 0 -20 21q5 21 22 26q3 0 11 -2q3 24 -8 44q-5 10 -26 22.5t-27 23.5q-9 10 -18 10 q-1 1 -3.5 2.5t-3.5 2.5q-70 45 -267 45q-29 0 -79 2q9 20 -14 28q-71 -3 -93 -16q-59 11 -93 29q-115 58 -115 211q0 135 109 208q57 38 136 54q-6 -6 -7 -16q2 -17 14 -20.5t21 8.5l1 1q0 1 1 2v-1q9 6 9 16t-8 16q3 1 10 1t11 1q-15 -8 -12 -21.5t20 -16.5q8 0 23.5 2.5 t23.5 3.5q14 3 17.5 15.5t-6.5 20.5h4q182 0 301 -95v25q0 12 1 17q18 8 24 39q15 9 40 9q21 0 35 -8q-3 -4 -8.5 -10.5t-8.5 -11t-6.5 -11.5t-4.5 -15q5 -26 25 -20q0 -2 -3.5 -19.5t-3.5 -24v-19.5t4.5 -20.5t13.5 -12.5q6 -3 12 -3q0 -1 -0.5 -3t-0.5 -3q0 -3 2 -9 q-13 -4 -16 -18v-13q1 -12 7 -16q-2 -9 4 -16q6 -9 14 -9v-4q0 -75 -58 -75q-37 0 -63 41q-105 175 -310 175q-156 0 -210 -63q0 6 1 8q0 1 2 11q7 9 4 19t-12 12q-1 -7 -6 -13q-31 -39 -31 -73q-13 -20 -16 -44.5t11 -46.5q8 -12 28 -27q-2 -19 -18.5 -18.5t-20.5 20.5 q-2 16 -3 23q-7 -31 9.5 -47.5t74.5 -22.5q14 3 17 13q57 -19 188 -19q10 -35 59 -41q18 4 18.5 19t-16.5 21q162 -8 256 -54q-6 -20 20 -25zM278 616l6 -3q-3 12 -8.5 33t-7.5 30.5t-1.5 24.5t6.5 30q-7 -7 -8 -10q-13 -5 -14 -16.5t10 -18.5q-6 -6 -9 -13q6 -50 11 -75 q9 3 15 15v3zM309 37v-7h9zM885 144l-4 -4q1 2 1 2.5t1 2.5q1 -1 2 -1zM457 875h2q-3 -1 -4 -1z" />
<glyph unicode="t" d="M160 779h19q15 3 17.5 16t-8.5 21l20 1q17 1 37 1q23 5 17 26h86v20q9 -1 15 5t7 18q-1 39 -6 80q-4 13 -16 16v99q0 64 63 65q11 -8 21 -2q13 -3 25 -11l2 -8q-1 -2 -1 -3q-1 -1 -1 -2q-1 -1 -1 -3v-7q-8 -80 2 -115q-13 -4 -16 -18q0 -2 -0.5 -13.5t0 -16t2.5 -12 t7 -12t13 -6.5q6 -1 14 2v-72q-8 -14 6 -26q10 -10 24 -14q8 -1 18 4q4 4 5 7q13 -12 20 -17q8 -5 19 -2q9 4 14 16q-6 8 0 17.5t20 11.5h159q22 -7 15 -27h29q23 5 17 26h100q65 0 65 -65t-65 -65h-26l-2 1q-1 1 -3.5 2.5t-4.5 2.5q-12 1 -15 2q-34 10 -51 11 q-21 -1 -23 -19h-24q7 8 3.5 18t-15.5 14h-132q-14 -2 -19.5 -10.5t-1.5 -17.5l-72 2q-11 -1 -16 -6h-22q-12 -22 -22 -36v-84q-9 0 -19.5 -15t-13.5 -39q-7 -25 4.5 -77t12.5 -60q1 -14 16 -20v-41q-2 16 -2 24q-6 17 -21 16.5t-19 -18.5q2 -26 7.5 -56t5.5 -43q1 -9 7 -15 v-71q2 -14 12 -19t18 1q4 -22 14 -44q-12 4 -19.5 -6t-1.5 -24q15 -18 57 -31q0 -1 1 -4t2 -4q13 -30 54.5 -42.5t87.5 -6.5h1q5 -12 19 -13q3 0 9.5 1t10.5 2q53 -8 125 25q9 -18 42 -10.5t64.5 22t44.5 24.5q13 17 -2 30q13 13 20 18.5t23.5 12t39.5 7.5q23 5 18 24 q8 -6 11 -10q19 -19 19 -47q0 -33 -30 -52l-122 -63q-148 -63 -290 -63q-91 0 -160 26q17 4 17 19t-16 21h-46q-11 -1 -16 -6q-99 73 -112 231q10 0 15.5 8t1.5 20q-4 6 -6 12q2 6 2 9q0 9 4 56.5t5 76t-4.5 67.5t-20.5 61v132q3 14 -9 25q-10 3 -20 19t-19 20q-2 18 -2 28 q-10 -2 -21 0q-8 17 -24 12.5t-14 -23.5q0 -1 2 -7h-100q-65 0 -65 65v9l3 2q8 10 30 14q2 0 3 1q0 -15 21 -20q8 0 11 1q8 -6 16 -7zM348 714h-7q1 -5 3 -13l4 -12v25z" />
<glyph unicode="u" d="M774 135h7q12 3 16.5 13.5t-2.5 18.5q51 56 62 153q9 -1 15 5t7 18q0 45 -3 135t-4 136q-5 11 -12 14v116h-68q0 9 -6 14.5t-17 4.5q-28 -7 -33 -7q-10 -5 -14 -12h-26q-65 0 -65 65t65 65h24q1 -16 21 -19q16 1 46.5 7t45.5 6q7 2 12 6h80q26 0 45.5 -19.5t19.5 -45.5 v-21q-16 0 -19 -18v-139q3 -20 19 -21v-13q-16 0 -19 -18q-1 -30 -7 -89.5t-6 -89.5q2 -14 13 -18.5t19 2.5v-91q-17 5 -24 -11q-13 -36 -8 -100q2 -14 13 -18.5t19 2.5v-86h85q65 0 65 -65t-65 -65h-51q-9 7 -17.5 10.5t-14.5 5t-15 0t-12.5 -3t-14.5 -6.5t-14 -6h-11 q-26 0 -45.5 19.5t-19.5 45.5v37q-120 -102 -319 -102q-321 0 -321 324v209q30 107 0 139v122h-90q-65 0 -65 65t65 65h55q21 -32 93 -32q12 3 16 13t-2 18q20 -1 38 -19q20 -20 20 -45v-87q-16 0 -20 -18q-1 -33 -5.5 -90.5t-6.5 -91.5t1.5 -80.5t14.5 -84.5q-8 6 -18 1 t-12 -17q7 -52 11 -64q0 -2 1 -3v-2q-9 -5 -12 -17v-46q2 -20 18.5 -20.5t20.5 15.5v-2q4 -19 18 -21q11 -35 33 -57q1 -2 4 -5q-10 6 -19.5 -1t-7.5 -21q2 -9 8 -15.5t10 -9t15.5 -4t14 -1.5h17.5q7 -7 15 -21t16.5 -23t22.5 -13q12 -3 19 6h34q7 2 12 6h1q21 2 60 13.5 t59 13.5q11 2 15.5 10.5t0.5 17.5q9 6 23 11v-4l-1 -1v-6q3 -13 12 -18t18 0.5t10 19.5v6q-4 13 -16 16q1 0 1 2q13 -6 23 7t-1 26l1 1q1 1 2 1q9 -3 11 -3zM978 129q-13 11 -27 0.5t-3 -25.5q7 -11 18.5 -8.5t15 12.5t-3.5 21zM350 313v-17q-3 9 -5 27q1 -2 2 -5t3 -5z M409 107q-1 3 -4 6q7 -5 8 -5q-3 0 -4 -1zM398 119q2 -1 7 -6zM488 55v1h1z" />
<glyph unicode="v" d="M1158 854q0 -2 -4 -5.5t-11.5 -6.5t-16.5 -3q-14 -1 -19.5 -10t-0.5 -18t18 -12q40 2 61 26q-13 -31 -58 -31h-74l-243 -552l3 18q0 7 -1 9q-1 -1 -2.5 -3t-2.5 -4l-1 -1q-6 -22 -17 -73q-1 -1 -2 -3.5t-1 -3.5q-3 -3 -8 -9.5t-7 -10.5q-37 -55 -66 -124q-8 -17 -9 -35 l-9 -6q-20 -14 -33 -14h-100q-12 0 -34 14t-26 25l-71 165q10 -1 16 7.5t2 20.5q-12 21 -37.5 57.5t-43.5 68t-26 63.5q1 4 3 10v2h1l-2 2q-6 74 -27 110q-4 4 -9.5 13t-8.5 13q-7 7 -16 13q2 6 2 10q-1 1 -2 4t-2 5q-1 0 -1 1q-3 12 1 19q-8 30 -35.5 69t-32.5 62 q-6 18 -23 16l-18 42h-59q-65 0 -65 65v13h1q10 1 26 10t26 10l6 2q36 -16 60 3q14 -13 27 2q2 0 4 -1h3h19q11 2 15 10q4 -8 18 -10q18 1 66 7q18 3 18 19h108q65 0 65 -65t-65 -65h-131l32 -77q-14 7 -22 -3t-2 -25q58 -63 62 -113q2 -14 12 -19t18 1l15 -37 q-14 -2 -18 -18q0 -16 3 -31q0 -1 2 -3q55 -90 84 -182q7 -4 18 -1q11 -29 12 -54q2 -14 12.5 -19t18.5 2l44 -103h15l93 213q1 1 3.5 2.5t4.5 3t4 3.5q9 13 16 28t17 41.5t11 30.5t3.5 10.5t3.5 9.5q9 -19 31 -7q41 50 47 104q1 16 -11.5 21.5t-21.5 -3.5l14 32 q20 41 36 63q4 12 0 19l49 111h-154q-28 0 -44 12q4 4 5 11q0 -4 5 -9q7 -11 18.5 -8.5t15 12.5t-3.5 21q-11 7 -22 3t-13 -14q-1 8 -13 16q-5 11 -13 12v9q0 65 65 65h46q22 -30 63.5 -32.5t70.5 18.5q4 6 6 14h1q-2 -18 11 -24t24 7q6 6 8 7q4 2 9 3.5t8 2.5q4 2 24 4h98 q65 0 65 -65v-2q-6 9 -17 8.5t-17 -11.5zM483 362q-22 38 -34 94l37 -87q0 -1 -1.5 -3t-1.5 -4zM722 120q-3 -9 0 -15q7 11 11 22l10 40q-12 -22 -16 -31q-3 -6 -5 -16zM805 552l1 1q-5 -35 -25 -64z" />
<glyph unicode="w" d="M971 565q0 7 6 15q9 12 4.5 22.5t-16.5 11.5l51 180h-133q-65 0 -65 65t65 65h27q40 -32 155 -32q12 3 16.5 13.5t-2.5 18.5h91q65 0 65 -65q0 -10 -1 -14q-1 -1 -2 -1t-1.5 -0.5t-1.5 -0.5q-8 -2 -9 -2q-2 0 -4 -1h-1q-1 0 -2 -1h-14q-14 -1 -19.5 -10t-0.5 -18t18 -12 h4q-15 -5 -31 -5h-19l-59 -207q-17 2 -22 -18q-5 -56 -40 -164.5t-39 -172.5v-1l-57 -202q-5 -16 -25.5 -31.5t-37.5 -15.5h-68q-18 0 -38 16q-20 15 -24 31l-8 27q17 -4 24 15q1 2 2 5.5t1 5.5q0 16 -11 21q-6 23 -9 45q-5 14 -18 15.5t-19 -8.5l-71 243q-16 5 -32 23 l-108 -391q-5 -17 -25.5 -32.5t-37.5 -15.5h-67q-16 0 -36.5 15t-25.5 31l-61 197q8 10 4 22q-10 28 -6.5 85.5t-5.5 85.5q-10 28 -53.5 94.5t-56.5 96.5l-15 47v14q1 13 -11 21l-31 103h-19q-65 0 -65 65q0 13 3 23q13 -7 37 -6t42.5 5.5t42 10t35.5 6.5q23 5 17 26h16 q-3 -9 2.5 -16.5t17.5 -9.5h26q23 5 17 26h116q65 0 65 -65t-65 -65h-9l12 9q12 10 7 23t-22 13q-24 -7 -30 -22q-17 -9 -12 -23h-86q-2 -22 -4 -27l8 -29q-20 6 -25 -17q2 -12 10.5 -30.5t9.5 -27.5q-12 -3 -15 -17q0 -16 12 -25q0 -2 3 -32q3 -13 12 -18t18 0.5t10 19.5 q-1 3 -1 18q2 -1 3.5 -1h3.5l65 -212q-14 -2 -18 -18q2 -14 13 -37t13 -36q2 -12 9.5 -17.5t16.5 -2.5l38 -121l19 69q7 -10 18.5 -8.5t17.5 15.5q20 92 80 251q0 18 -15 23t-23 -11q-2 -5 -13 -35l38 137q5 17 25.5 32.5t37.5 15.5h65q18 0 37 -16q21 -15 25 -31l50 -171 q-13 -4 -16 -18q3 -45 21 -88t18 -51q2 -14 11.5 -19t17.5 1l29 -97l14 49q7 0 14 4q56 61 60 124q-5 14 -17 16t-19 -9l56 196q9 -3 16.5 2.5t9.5 19.5zM188 419q10 -24 10 -60l-30 96q5 -7 11.5 -19.5t8.5 -16.5zM9 916q14 8 36 8h25q-42 -9 -61 -8zM876 302l7 26 q-1 -10 -7 -26zM612 465l-1 -4l3 -3zM883 328l1 2q0 -1 -1 -2z" />
<glyph unicode="x" d="M1012 892h6q12 3 16.5 13.5t-2.5 18.5h48q65 0 65 -65t-65 -65h-54l-68 -71q-10 6 -24 -3q-7 -7 -9 -8q-18 -16 -52.5 -47.5t-51.5 -47.5l-2 -1l-4 -4l-23 -23q-10 9 -22 2.5t-9 -21.5q7 -22 27 -24l-59 -61l59 -57q-3 -11 7 -21q17 -18 52 -82.5t60 -82.5q21 -16 45 -20 t49 -12t53 -36l4 -4l2 -1l41 -39q64 -1 64 -65q0 -65 -65 -65h-64q0 14 -16 20h-13q-23 -2 -23 -20h-15q7 20 -15 27q-5 1 -25 4.5t-29 5t-26 1.5t-26 -3.5t-18.5 -12t-13.5 -22.5h-18q-65 0 -65 65t65 65h115l-187 178q1 7 -5 16q-5 6 -12 17t-11.5 17t-13 11.5t-20.5 7.5 q-2 -1 -4 -1t-4 -1l-17 16l-45 -47q3 12 -6 20.5t-23 2.5q-30 -16 -78 -70q-9 -16 1.5 -26.5t26.5 -1.5q4 5 14.5 16t16.5 17.5t16 14.5t19 14l-77 -80q-7 7 -19 7q-24 -4 -54 -33t-52 -33q-17 -8 -15 -22.5t20 -17.5q25 4 40 16l-36 -38h74q65 0 65 -65t-65 -65h-245 q1 1 1 7v4q-1 5 -4 8l-2 2q-2 2 -3 2q-1 2 -7 4h-114q-4 7 -6 17q18 25 -1 39v1q54 16 82 46h45l194 202q8 -2 9 -2q14 3 26 10.5t18 14t17.5 20.5t16.5 20q12 16 0 28l56 58l-78 74q1 7 0 16q-24 44 -81 96.5t-113 90.5q-10 3 -18 -1l-38 37h-49q-65 0 -65 65q0 40 25 56 q25 -8 42.5 -7.5t49.5 3.5t49 2q4 -6 16 -8h21q1 -1 3 -2t4 -1q14 -6 23 0.5t7 18.5v3h124q65 0 65 -65t-65 -65h-62l230 -219l102 106q9 2 13 9q0 3 21.5 24.5t27.5 23.5q5 8 5 13l42 43h-70q-65 0 -65 65q0 60 56 65q-3 -9 2.5 -16.5t17.5 -9.5q21 0 63 -3t63 -3 q15 3 18 16q0 -8 9 -12q14 -11 24.5 2t1.5 26h30q-7 -8 -2.5 -19t18.5 -13zM932 273q-17 14 -47 63l80 -77q-24 6 -33 14zM927 924h9q-5 -8 -5 -10q-1 2 -2.5 5.5t-1.5 4.5z" />
<glyph unicode="y" d="M694 326q2 18 10 38t14.5 30.5t23.5 34.5t21 30q6 14 -3 23l158 312h-38q7 8 3.5 18t-15.5 14h-22v9q-6 17 -21 16.5t-19 -18.5q2 -30 18 -39h-18q-65 0 -65 65q0 56 46 63q8 -15 20.5 -23t30.5 -9t31.5 -0.5t37 4t32.5 4.5q23 5 17 26h144q65 0 65 -65q0 -35 -18 -51 q-5 8 -14 11h-60q-17 -2 -21.5 -15t7.5 -21l-35 -70q-2 0 -10 -2q-22 -12 -43.5 -41.5t-34 -54t-30.5 -67t-23 -52.5q-6 -13 -29.5 -39t-27.5 -46q3 -18 17.5 -20t22.5 15q1 10 14 23l-223 -441l21 42q8 17 -5 25t-27 -2q-6 -10 -25.5 -51t-38 -68.5t-37.5 -35.5 q-14 -12 -7 -26t25 -10q31 16 58 55l-93 -185h108q65 0 65 -65t-65 -65h-135q0 8 -1 11q-10 17 -17 21q-12 10 -50 6.5t-66 -10t-65 -16t-48 -11.5q-2 0 -3 -1h-103q-65 0 -65 65q0 13 1 19q1 0 2.5 -1t3 -1.5t3.5 -0.5q39 3 112.5 23t112.5 23q2 1 4.5 2t3.5 1h56l169 335 l-37 72q-11 65 -38 121q-15 23 -32 52.5t-26 47.5t-28 57.5t-25 51.5q-4 6 -10 18.5t-9 18.5q-12 16 -38 48q-8 8 -8 46q-7 14 -17.5 40.5t-14.5 34.5q-11 3 -24 -1l-60 120h-64q-65 0 -65 65q0 52 40 62q28 -15 68.5 -22t63.5 -7.5t79.5 3t64.5 3.5q23 5 17 26h61 q65 0 65 -65t-65 -65h-119l1 -2q-15 0 -19.5 -12t7.5 -23q14 -9 31 -44q3 -4 25 -31q5 -32 19 -52q11 -18 35 -47.5t29 -35.5v-1q2 -3 5 -8.5t5 -9.5q1 -2 1 -25q5 -23 22 -21q3 -7 9 -17q5 -18 -8 -25.5t-26 5.5q-3 5 -12.5 24t-15.5 30q28 -71 66 -92q10 -5 21 0l99 -196 l50 99q13 0 20 16zM376 589q8 -9 18 -8q-11 20 -37 58q7 -28 19 -50zM110 -276l20 4q-1 0 -5 -1t-7.5 -2t-7.5 -1zM151 -269l-21 -3zM157 -268l-6 -1q1 1 6 1z" />
<glyph unicode="z" d="M734 86h27q18 4 18.5 19t-16.5 21h-27q-7 -1 -13 -4q-3 5 -8 8h188v62q2 0 3 1q24 9 42.5 53.5t18.5 85.5h1q65 0 65 -65v-202q0 -26 -19.5 -45.5t-45.5 -19.5h-388q-3 8 -15 13q-46 -1 -136 -7t-135 -6h-29q-26 0 -45.5 19.5t-19.5 45.5v39q0 27 19 46l13 13 q4 -15 16 -17.5t20 10.5q2 2 8 12l2 6q0 16 -13 22l261 262q-2 -6 -2 -7q-6 -20 12 -26t26 14q18 60 84 139l92 93q30 24 50 31q19 11 9 28l64 64h-202q6 18 -15 25q-6 0 -35 -1.5t-40.5 -2.5t-34 -3t-39.5 -6.5t-33 -11.5h-102v-90l-9 -9q-8 -8 -17 -15.5t-11.5 -9t-5.5 -8 t-3 -13.5v-25q-8 6 -18 1.5t-12 -16.5q2 -11 8 -17q-62 2 -62 65v202q0 26 19.5 45.5t45.5 19.5h145q13 -45 70 -46q20 5 18 22q6 -2 8 -2h119q23 5 17 26h42q-3 -9 2.5 -16.5t17.5 -9.5h40q23 5 17 26h187q26 0 45.5 -19.5t19.5 -45.5v-41q0 -27 -19 -46l-139 -139 q-7 0 -15 -6q-12 -11 -45.5 -33.5t-54.5 -43.5t-28 -47q-2 -5 0 -14l-281 -281q9 26 30.5 53t35.5 40.5t51.5 44.5t42.5 35q12 17 0.5 28.5t-28.5 -0.5q-35 -28 -45.5 -37t-40 -36t-42.5 -44.5t-28 -44.5t-21 -54q2 -15 12 -19l-44 -44h102q-7 -8 -2 -18.5t19 -12.5 q34 -1 102.5 -4t102.5 -3l9 3q6 -7 17 -9zM512 918q-17 0 -26 6h30q-1 -2 -1 -7q-2 0 -3 1zM360 651l-6 -27v24z" />
<glyph unicode="{" d="M512 335q-10 5 -6 13q-15 13 -29 21q7 3 6 10.5t-8 9.5q-78 10 -97 23q-11 2 -14 -5q-31 18 -53 22q0 13 -6 23q-4 5 -11 5q-8 -4 -10 -7v12q0 65 68 65q88 0 154 72q54 57 65 131q-5 -2 -8 2q-7 5 -2.5 12.5t12.5 4.5v205q0 120 39 196q-30 -79 -30 -266 q1 -10 8.5 -10.5t11.5 7.5q1 51 2 79t7 87.5t21 98t38 54.5q5 4 18 7t15 4q8 5 6 12t-12 7q-3 -1 -15 -4.5t-18 -6.5q76 72 221 72q65 0 65 -65q0 -36 -19 -52q-3 3 -3 8q-5 5 -11 5q-28 -4 -58 -27q-79 -5 -110 -36q-46 -45 -46 -170v-56q-6 0 -8 -8q0 -73 8 -132 q-2 -106 -54 -188q1 -7 -6 -10t-11 3q-5 7 1.5 12.5t13.5 0.5q1 12 0 25q-5 13 -15 7q-13 -8 -23 -29.5t-19 -23.5q-9 -5 -7 -13t13 -6q14 3 30 31q-2 -12 -10 -41q-23 -27 -56 -54q143 -95 143 -307v-197q0 -125 47 -169q19 -17 48 -26q-8 -4 -7.5 -11.5t10.5 -8.5h7 q3 -5 10 -6q20 -2 32 -8.5t15.5 -12t9.5 -7.5t16.5 4.5t33.5 24.5q1 0 1 2t1 2q23 -17 23 -55q0 -65 -65 -65q-55 0 -98 10q-20 58 -121 60q-49 43 -72 115q0 1 1 1l1 2q1 16 10.5 67.5t14.5 101t0 86.5q4 16 5 24q0 6 -4.5 9.5t-9.5 1.5q-9 23 -20 34q-7 5 -19 9v12 q0 94 -38 150q-6 -11 -16 -1q-6 8 -7 21zM582 -137q-9 47 -9 102q22 37 29 54q-2 -43 -20 -156zM578 129q18 -15 23 -54q-9 -34 -28 -69v2q4 13 6 26q0 8 -6 10v88q1 0 2.5 -1t2.5 -2zM763 -351q-37 10 -70 32q53 -5 70 -32zM520 262q8 6 14 -0.5t0 -13.5l-6 -6 q-8 -5 -13.5 0.5t-0.5 13.5zM898 -247q-10 -7 -15.5 -9t-8 -1t-8 6t-10.5 8q30 0 42 -4zM700 457q4 -5 2 -10.5t-7.5 -6.5t-9.5 4q-5 7 1.5 12.5t13.5 0.5zM540 303q4 -5 2 -10.5t-7.5 -6.5t-9.5 4q-5 7 1.5 12.5t13.5 0.5zM339 397l-11 2q-4 2 -9 7q2 -1 9 -4t11 -5z" />
<glyph unicode="|" d="M591 -41q-1 -8 -2.5 -23t-2.5 -23q3 -2 5 -7q2 -46 4 -69q15 91 19 161q0 8 -6 10q-1 20 -13 56q-6 7 -12.5 4t-5.5 -12q25 -74 -12 -87q-10 0 -14 -1v176q7 2 10 8q22 50 32 99q-10 0 -11 11v49q-4 -49 -31 -131v472q4 105 15 298t14 257q0 7 3 59.5t4.5 100.5t0.5 67 q0 3 -0.5 11.5t-1 11t-1.5 9t-2 9t-3 7t-4.5 6.5t-6 4.5t-8 4t-10.5 2.5v22q0 65 65 65q46 0 59 -33q-8 8 -20 3q-12 -6 -16 -25q-2 -8 3 -17t6 -12q1 -8 1 -16.5t-0.5 -18.5t-0.5 -15q1 -10 9.5 -11t10.5 8v3v50q-1 3 -5 9t-4 11q-1 2 0 8.5t4 6.5q11 -41 13 -46q1 -4 5 -6 v-301q-28 -50 -39 -89q6 -31 7 -44q4 1 7 7q3 38 25 83q-2 -9 -15 -58t-13 -75q1 -10 8.5 -10.5t11.5 7.5q0 25 8 54v-240q-4 2 -9 0t-6 -8q0 -3 -0.5 -8t-0.5 -8q2 -9 8 -11q5 -30 8 -66v-67q-2 -17 -4 -24q-2 9 -8.5 33t-9.5 38q-4 -5 -10 -2.5t-7 10.5v52q-5 -1 -7 -8 q-1 -16 2 -33.5t9 -40.5t8 -33q6 -43 19 -49q5 -3 8 -2v-268q0 -2 1.5 -7t2.5 -8q0 -7 -4 -9v-50q4 -4 4 -9q0 -8 1 -44t0 -60.5t-5 -46.5v-245q-3 -37 -12 -73q-2 10 -4 28q-2 12 -2 16q9 45 -1 78v4h-2q-4 6 -10.5 4.5t-7.5 -9.5v-70q-2 -8 -6 -25.5t-7.5 -34t-4.5 -32.5 q-6 -52 -6 -211q1 -6 6 -8.5t9.5 0t4.5 9.5v30q-3 3 0 10q-2 105 6 167q1 19 6 37l6 -30q-17 -46 -1 -73q6 -4 12 -3q1 0 3 1q0 4 0.5 10.5t0.5 9.5q1 8 8 10q1 18 -2 41q1 1 2 4t2 5v-50q10 0 10 -12q-2 -41 -10 -73v-46q0 -65 -65 -65q-64 0 -65 61q3 3 4 5q3 76 26 203 q-3 26 -7 78q-17 -99 -23 -137v242q14 2 20 3h5q6 2 7 5q1 0 8 5zM560 1209q-3 -58 -9 -172v443q14 -2 15 -9q5 -57 5 -84.5t-5 -93.5t-6 -84zM566 423q13 -33 16 -72q1 7 8.5 7t10.5 -6q-3 43 -17 79q-6 7 -12.5 4t-5.5 -12zM537 388q-10 -2 -13 5t4 12q0 1 1 2l1 5v5 q0 4 -0.5 13.5t-0.5 14.5q1 10 10.5 8.5t9.5 -11.5q0 -3 0.5 -14t0.5 -16.5t-3 -13t-10 -10.5zM689 208q1 10 10.5 8.5t9.5 -11.5v-9q0 -7 -4.5 -9.5t-9.5 0t-6 9.5v12zM707 -326q1 10 10.5 9.5t9.5 -11.5v-3q0 -7 -4.5 -9.5t-9.5 0t-6 8.5v6zM712 848q4 -5 2 -10.5 t-7.5 -6.5t-9.5 4q-5 7 1.5 12.5t13.5 0.5zM667 740q-4 6 -5 8v-23q7 3 5 15z" />
<glyph unicode="}" d="M722 335q-1 -13 -7 -21q-10 -10 -16 1q-38 -56 -38 -150v-12q-12 -4 -19 -9q-11 -11 -20 -34q-5 2 -9.5 -1.5t-4.5 -9.5q1 -8 5 -24q-5 -37 0 -86.5t14.5 -101t10.5 -67.5l1 -1q1 -1 1 -2q-23 -72 -72 -115q-101 -2 -121 -60q-43 -10 -98 -10q-65 0 -65 65q0 38 23 55 q1 0 1 -2t1 -2q28 -22 39.5 -27t14.5 0t16.5 14t36.5 12q7 1 10 6h7q10 1 10.5 8.5t-7.5 11.5q29 9 48 26q47 44 47 169v197q0 212 143 307q-33 27 -56 54q-8 29 -10 41q16 -28 30 -31q11 -2 13 6t-7 13q-9 2 -19 23.5t-23 29.5q-10 6 -15 -7q-1 -13 0 -25q7 5 13.5 -0.5 t1.5 -12.5q-4 -6 -11 -3t-6 10q-52 82 -54 188q8 59 8 132q-2 8 -8 8v56q0 125 -46 170q-31 31 -110 36q-30 23 -58 27q-6 0 -11 -5q0 -5 -3 -8q-19 16 -19 52q0 65 65 65q145 0 221 -72q-6 3 -18 6.5t-15 4.5q-10 0 -12 -7t6 -12q2 -1 15 -4t18 -7q23 -16 38 -54.5t21 -98 t7 -87.5t2 -79q4 -8 11.5 -7.5t8.5 10.5q0 187 -30 266q39 -76 39 -196v-205q8 3 12.5 -4.5t-2.5 -12.5q-3 -4 -8 -2q11 -74 65 -131q66 -72 154 -72q68 0 68 -65v-12q-2 3 -10 7q-7 0 -11 -5q-6 -11 -6 -23q-22 -4 -53 -22q-3 7 -14 5q-19 -13 -97 -23q-7 -2 -8 -9.5 t6 -10.5q-14 -8 -29 -21q4 -8 -6 -13zM652 -137q-18 113 -20 156q7 -17 29 -54q0 -55 -9 -102zM656 129q1 1 2.5 2t2.5 1v-88q-6 -2 -6 -10q2 -13 6 -26v-2q-19 35 -28 69q5 39 23 54zM471 -351q17 27 70 32q-33 -22 -70 -32zM714 262l6 -6q5 -8 -0.5 -13.5t-13.5 -0.5l-6 6 q-6 7 0 13.5t14 0.5zM336 -247q12 4 42 4q-5 -3 -10.5 -8t-8 -6t-8 1t-15.5 9zM534 457q7 5 13.5 -0.5t1.5 -12.5q-4 -5 -9.5 -4t-7.5 6t2 11zM694 303q7 5 13.5 -0.5t1.5 -12.5q-4 -5 -9.5 -4t-7.5 6t2 11zM906 399l-11 -2q4 2 11 5t9 4q-5 -5 -9 -7z" />
<glyph unicode="~" d="M964 691q-2 -1 -4 -1q19 11 42 29q20 15 40 15q27 0 46.5 -20t19.5 -47q0 -30 -26 -50l-78 -49q-85 -43 -167 -48q4 -5 0.5 -10.5t-11.5 -3.5q-2 0 -24.5 8t-31.5 7q-5 -8 -15 -22q-8 -12 -16 -2q0 3 -3 8q0 15 5 23l-20 4q-6 17 -6 64q0 10 -9.5 11.5t-10.5 -8.5 q0 -42 4 -62q-5 2 -15 4.5l-14 3.5q-24 26 -29 31q-8 7 -14.5 0t1.5 -15l3 -3q-4 2 -12 4.5t-11 3.5q-136 47 -204 47q-42 0 -81 -14q-77 -6 -105 -29q-5 -8 0.5 -13.5t13.5 -0.5q11 9 36 14q-16 -12 -33 -27q-19 -19 -44 -19q-27 0 -48 21t-21 47q0 25 23 45q5 5 21 18 q77 59 158 78q4 -7 10 -12t14 -7t15 -3.5t17.5 0l17.5 2.5t19 5l18 6t19 6.5t17 5.5q13 -4 23 -5q1 1 5 3l14 -1q11 0 11 -10q7 -2 24.5 -7.5t27.5 -8.5q-2 2 -3 4q-4 8 2 13.5t13 -0.5q5 -5 7 -8q2 -8 -4 -14l20 -6q134 -46 205 -46q23 0 51 5q28 -20 56.5 -26t51.5 9 t30 53q0 10 -9.5 11.5t-10.5 -8.5q-6 -39 -35 -45.5t-56 12.5q16 5 33 12q-2 -8 3.5 -12t12.5 1q13 7 27 10q8 4 6 11.5t-12 7.5zM890 458l3 1q-11 -2 -13 6t7 13q9 0 9 15q2 10 11 8.5t9 -11.5q-4 -28 -26 -32zM404 743q14 0 21 -1q-69 -20 -83 -5q31 6 62 6zM729 478 q-1 0 -2.5 0.5t-2.5 1.5l-2 2q-12 17 -28 36q6 -2 13 -5q4 -9 14 -21q5 -5 10.5 -4t7.5 7h1q8 -7 3.5 -14t-14.5 -3zM582 534q5 -7 -0.5 -13.5t-12.5 -1.5q-5 4 -4 9.5t6 7.5t11 -2z" />
<glyph unicode="&#xa0;" />
<glyph unicode="&#xa1;" horiz-adv-x="601" d="M420 302q-7 38 -11 48q-2 9 -8 25t-7 19v1q16 19 20 35l20 -296q4 -4 5 -13q0 -3 -3 -6v-5q7 -6 1 -14l1 -25q5 9 14 3q5 -4 4 -9.5t-6 -7t-11 1.5l5 -86q4 -51 -31 -83q-30 -26 -72 -27v-1q0 -1 1 -2q5 -8 -1.5 -13t-13.5 0q-3 5 -2 9l-4 -4q-25 -15 -53 -15q-6 0 -16 2 q-11 28 -24 50q17 9 18 22.5t-7 24.5t-19 27.5t-13 27.5q-1 1 -2 4t-2 4q20 60 19 79q0 14 -15 27q24 94 24 138q17 158 12 406q13 7 26 3v3q5 65 65 65t65 -65l7 -100q-19 -2 -20 -23q0 -14 1 -28.5t1.5 -20t-2 -14.5t-9.5 -21q-2 -5 -9 -14t-11 -17.5t-4 -16.5 q-2 -18 11.5 -52.5t15.5 -47.5q6 -17 21 -16.5t19 18.5zM247 877v3q0 2 -1 3v1q-4 17 -22 28q-4 4 -9.5 8t-7.5 6q-5 20 -5 63q-2 11 -8 16q2 17 -11 23.5t-25 -8.5q-2 -4 -13 -19l-3 18q4 38 35 43v6q23 -10 45 12t5 48q1 0 2.5 1t2.5 1q11 5 14 13q1 -2 1 -5q10 1 13 -5 l6 3t6 4q8 3 17 4.5t19.5 2.5t16.5 2q15 -2 25 -10q20 -1 39 -6l2 -2l6 -3q2 -5 4 -15.5t5 -17.5q9 -16 30 -25q-1 -20 13 -82q-12 -8 -13.5 -30.5t-8.5 -29.5q-15 -19 -38.5 -29t-41.5 -26q-2 -2 -2 -3l-21 -6q-1 1 -5 1q-59 6 -72 11v1zM297 1268l3 -2q-8 -8 -17 -14 q-11 5 -21 -2.5t-7 -19.5q-11 -9 -16 -11q-3 10 -2 18q2 24 19.5 35t40.5 -4zM477 1065q7 1 10 6q2 -1 9 -14q-8 -33 -13 -46q-12 41 -6 54zM204 498q0 9 1 14v-30q-1 5 -1 16zM229 1169l1 -1h-5v1h4z" />
<glyph unicode="&#xa2;" d="M1005 960l1 -1v-1v-9q-13 -40 -15 -64q3 -28 24 -37.5t39 4.5v-61q0 -67 -65 -67t-65 67q0 60 -68 113q-73 58 -187 72v-328q-2 0 -5.5 2t-5.5 2q-26 7 -42.5 -6.5t-13.5 -34.5t27 -33q1 -1 2 -1t1.5 -0.5t1.5 -0.5q25 -35 25 -65q1 -16 10 -26v-190q150 18 275 138 q19 19 45 19t46 -20t20 -46t-21 -46q-136 -133 -305 -168q-3 9 -7 17q-24 15 -45.5 6t-23.5 -29t16 -37v-109q0 -65 -65 -65t-65 65v146q-3 0 -10 1t-11 1q-8 14 -27 20h-54h-1l-2 -1q-92 30 -160 91q18 17 11 48q-1 2 -11 17q-1 0 -5 4q-12 17 -30 17q14 22 -3 50 q-34 26 -83 28q-26 64 -34 141q1 10 2.5 29.5t1.5 28.5q1 17 2 51.5t2 51.5q23 117 102 207q115 131 310 154v81q18 -10 37.5 1t20.5 38q-1 3 -1.5 15.5t-0.5 17.5q15 12 18 28t-7 28q63 -2 63 -65v-143q149 -15 255 -90v28q0 65 65 65t65 -65v-26q-25 12 -45 -8.5t-4 -49.5 zM247 639q0 -41 8 -84q12 7 23 4q27 4 41 -13q8 -9 13 -23v-2q1 -2 1 -3q12 -10 48 -50q-1 3 -4 13q-3 3 -7 9q-36 26 -41 71q-11 27 -17 48q-14 42 -16.5 74.5t8 63.5t27.5 57t48 63q17 14 35 12q2 55 -5 78q-34 -12 -53 -26.5t-27 -43.5q-3 -11 6 -13l-13 -15 q-75 -90 -75 -220zM250 411q16 -2 22 -4q-4 10 -5 16q-1 1 -1 3t-1 3q-3 1 -8 1t-7 1q-7 0 -9.5 -4.5t0 -9.5t9.5 -6zM403 449h-2l1 -1q2 0 2 -1q0 1 -0.5 1t-0.5 1z" />
<glyph unicode="&#xa3;" d="M805 147q12 -20 7 -40q60 0 101 41q19 19 45 19q27 0 48 -20t21 -46t-22 -45l-16 -14q-80 -65 -178 -65q-47 0 -127 19q0 4 -1 5q-9 -12 -29 -17q-51 3 -110 19q-21 -28 -52 -6q-14 11 -17 23q-21 2 -25 9q-29 19 -53 1.5t-11 -48.5q-7 -4 -19 -14q-22 -17 -44 -17 q-27 0 -46 19.5t-19 45.5q0 30 27 52l98 82q-7 10 -8 24v12q2 8 4 13q-15 13 -16 34v6q5 28 29 35t40 -12q12 20 29 33q0 40 -4 73q-8 -15 -22 -18t-32 9q-30 22 -12 51t52 16q-7 18 -20 32q-11 47 -17 66h-90q-65 0 -65 65q0 44 29 58q5 -6 11 -10q20 -14 36 -8t22 25h18 q-51 172 -51 273q0 107 51 185q19 16 56 21q26 5 34 27t-7 37q79 55 187 55q69 0 176 -35q132 -45 132 -107v-46q-16 17 -39 9.5t-28 -34.5q1 -9 3.5 -17t5 -12t9 -13t8.5 -13q8 -10 20 -13q-16 -12 -44 -12q-65 0 -65 65v49q-89 49 -178 49q-81 0 -134 -50 q-57 -53 -57 -145v-1q13 -23 2 -46q9 -93 52 -226h34q-12 -14 -10 -30t16 -27q0 23 21.5 34.5t48.5 -4.5q6 -11 8 -22q23 22 7 49h233q65 0 65 -65t-65 -65h-207l3 3q21 26 6.5 50t-42.5 17q-2 -15 -11.5 -26t-22.5 -12q-3 -19 10 -32h-54q34 -120 34 -207v-2 q-24 -9 -28 -35v-6q3 -29 23 -37v-3l-1 1h-6q-19 -1 -30.5 -12t-13 -24t6.5 -26t25 -17q-1 -1 -1 -2t-0.5 -1.5t-0.5 -1.5q21 -1 70 -11q3 1 34 8.5t46 9.5q17 8 34 0q14 -2 26 -6q23 11 47 -5z" />
<glyph unicode="&#xa4;" d="M1282 233q0 -1 1 -2.5t2 -2.5q0 1 2 3q11 -17 11 -35q0 -27 -23 -47q-91 -80 -199 -123h-273q-14 -1 -19.5 -10t-0.5 -18.5t18 -11.5h112q-33 -4 -77 -4q-229 0 -409 141q-176 138 -234 355h-118q-41 0 -56 25q12 5 33.5 25.5t46.5 37t50 18.5q20 4 18 24q7 -14 21.5 -11 t15.5 22v53q-4 13 -15.5 16t-18.5 -6q0 3 0.5 8.5t1.5 8.5h-97q-56 0 -64 47q29 7 72.5 22.5t51.5 23.5q18 26 -11 36q-3 0 -5 1h74q2 7 5.5 19t4.5 16q33 9 52.5 42.5t17.5 68.5q-1 10 -5 30q62 101 160 178q150 117 338 137q-17 -13 -6 -28q-8 3 -18 -1q-3 -2 -36.5 -22 t-39 -23.5t-35 -22t-38 -25.5t-32.5 -24t-35 -28t-29 -28t-31 -33.5t-25 -34.5q-10 -17 3 -28q-78 -84 -115 -193h11q13 15 29 2q8 -9 4 -20q4 -2 7 -2h202q18 3 18 20h66q-8 8 -3 19.5t21 12.5h12q12 -4 15.5 -14.5t-3.5 -17.5h8q5 -13 20 -14q10 -1 19 -5q5 -6 16 -7 q4 -3 17.5 -14.5t26.5 -18t33 -8.5q17 4 18.5 18.5t-14.5 20.5q16 12 4 28h261q65 0 65 -65t-65 -65h-49q-1 1 -2.5 1t-2.5 1q-4 0 -38 -2h-51q-30 2 -35 11q-5 7 -7 33q-5 17 -20.5 16t-19.5 -18q1 -23 10 -42h-7q-5 6 -19 16q-23 12 -82 0q-11 -3 -30 -8.5t-27 -7.5h-61 q10 4 12 14t-4.5 17.5t-18.5 6.5q-26 -2 -74.5 -18t-73.5 -18l-4 -2h-211q-2 -30 -2 -46q0 -15 2 -45h108q-4 -1 -11 -3.5t-9 -3.5q-17 -7 -15.5 -22t20.5 -17q3 -1 9 -1q8 1 12 6q35 8 109.5 11t111.5 12q35 8 69 18h315q65 0 65 -65t-65 -65h-96q2 16 -16 22 q-52 13 -104.5 14t-85.5 -4t-89 -16.5t-85 -15.5h-107q-7 9 -18 9t-16 -9h-8q0 -1 1 -3.5t2 -3.5v-6q-1 -14 -10 -19.5t-18.5 -0.5t-11.5 18v6l3 9h-33q4 -14 7 -21q-6 1 -19 1q-14 -1 -19.5 -10t-0.5 -18.5t18 -11.5q3 0 10 0.5t10.5 0.5t8 -2t7.5 -7q5 -5 8 -7 q57 -113 163 -189q64 -48 139 -74q-11 0 -33 2t-33 2q-14 -1 -19.5 -10t-0.5 -18.5t18 -11.5q19 0 56.5 -3t56.5 -3q10 2 14.5 9.5t2.5 15.5q58 -11 113 -11q75 0 147 20q-4 -9 1 -18t18 -10q54 2 130 30t125 68q-4 2 -5 6q-11 15 3 25.5t27 -0.5zM1181 1186 q5 -11 26.5 -21.5t26.5 -20.5q12 -13 25 -6t9 24q1 -1 26 -23l21 -47q0 -8 -1 -11q-32 13 -140 47q-70 42 -97 32q-13 -6 -16 -16q-102 49 -225 49q-168 0 -304 -95q19 19 40 36t50 36.5t43 28.5t53 32t47 28q10 13 3 26q4 -2 9 -2q52 3 73 3t72.5 -4t73.5 -5q20 5 18 23 q99 -27 184 -84q-11 1 -17 -8.5t0 -21.5zM256 342h1q34 -48 50 -69.5t45.5 -53.5t54 -46t62 -27t83.5 -18q17 4 18 19.5t-16 20.5q-114 10 -188 94q-9 10 -28.5 40.5t-38 52.5t-35.5 26q-18 -2 -22 -16.5t14 -22.5zM797 1347h22h2q16 11 27.5 -1t-0.5 -28q-14 -11 -53 -11 q-13 2 -18 11.5t0.5 18.5t19.5 10zM844 488q17 -5 16 -20.5t-18 -19.5q-1 0 -5.5 -0.5t-6.5 -0.5q-16 -9 -26.5 1.5t-1.5 26.5q15 13 42 13zM878 647q-15 14 -3.5 28.5t27.5 2.5h1q17 -5 16 -20.5t-18 -19.5q-14 0 -23 9zM857 1352q4 17 19.5 18t20.5 -16v-12 q-1 -14 -10 -19.5t-18.5 -0.5t-11.5 18v12zM1027 146q45 18 88 45q4 -2 5 -2q12 -5 29 -5q-66 -30 -122 -38zM1092 -4q8 -10 3.5 -21t-15 -12.5t-18.5 7.5q-11 15 3 26t27 0zM429 387q11 -13 0.5 -27t-25.5 -3q-11 7 -8.5 18.5t12.5 15t21 -3.5zM1204 1045l-63 51l18 -6 q44 -25 62 -59q-9 5 -17 14zM820 1346q-1 0 -3 -2q1 0 1 1z" />
<glyph unicode="&#xa5;" d="M972 1170q34 -21 73 -25q18 4 28 15.5t9 26.5h1q61 0 65 -57q-23 13 -47 -8l-60 -60q-18 20 -48 10q-35 -15 -46 -55.5t17 -62.5l-55 -92h160q49 0 61 -37q-67 -20 -112 -27q-8 -1 -29 -2.5t-31 -3.5h-11q-28 -1 -39 -22t1 -38h-78l-33 -56q-8 15 -25 19t-36 -9 q-19 -7 -32 -20q-3 -5 -5 -10q-2 0 -5 -0.5t-4 -0.5q-22 -8 -29 -26t4 -34t35 -19q38 5 36 8q1 0 4 0.5t4 1.5l-3 -4h41q-12 -23 3.5 -43t45.5 -13q109 44 272 49q30 -13 30 -58v-3q-13 11 -34 11q-40 -3 -115.5 -24t-115.5 -24q-21 -9 -28 -25h-166v-32q-27 -3 -40 -25 q-6 -11 -6 -49q2 -22 15.5 -32.5t30.5 -7.5v-176h42q-11 -23 5 -42t45 -12q29 15 88 11.5t96 17.5q10 -14 10 -40q0 -53 -43 -63q-7 19 -30 26h-125q-33 -1 -42 -28h-85q0 16 -12.5 28t-33.5 11q-29 -3 -43.5 -10t-21.5 -8q-17 -7 -26 -21h-23q2 14 -6.5 27t-26.5 19h-148 q-19 -2 -30 -12q-5 15 -5 31q0 19 6 33q8 -22 38 -25q28 1 83 14t83 15q27 6 34 28h33q18 -7 35.5 4t18.5 37q-6 146 -6 148q-11 34 -40 34v99h-88q20 9 37 22q24 28 6 52.5t-52 12.5q-17 -12 -38.5 -19.5t-34.5 -9.5t-44 -4.5t-39 -3.5h-38q-24 -1 -36 -16.5t-7 -33.5h-62 q-65 0 -65 65q0 22 7 35q8 0 37.5 2.5t48.5 1t37 -7.5q20 -3 33.5 7.5t15.5 26.5h216l-88 150h-116q-10 13 -27 19h-16h-18t-16 -0.5t-17.5 -1.5t-15.5 -3t-16 -5.5t-14 -7.5q-51 6 -51 64q0 17 5 32q11 -4 27 -1q23 7 39.5 5t49.5 -10.5t46 -9.5q20 4 30 18.5t6 30.5h27 l-34 58h6q34 6 36.5 36.5t-29.5 42.5q-12 16 -30.5 16.5t-30.5 -13.5l-32 55h-62q-65 0 -65 65q13 2 89 17t118 18q30 6 35 30h50q4 -23 27 -34q34 -15 40 -12h1q3 -3 13 -5h-38q-26 -1 -37.5 -19t-3.5 -36.5t32 -23.5h-48l50 -86q-8 -12 -9 -21v-48q3 -30 26.5 -38.5 t39.5 8.5l19 -31q-16 -6 -21.5 -21.5t4.5 -36.5q9 -12 25 -38.5t31 -44t36 -27.5q15 -2 23 2l35 -59l92 154q28 -9 50 16q9 12 25.5 47.5t33 63t33.5 32.5q25 16 23.5 40.5t-26.5 32.5l33 55h-78q-64 0 -65 63q7 -3 15.5 -4t15.5 -1t18 2t17 3t18 5t15.5 5t15.5 6l13 4 q6 2 18 6.5t18 6.5q15 -11 33.5 -5.5t25.5 25.5q1 1 3.5 1h4.5q3 0 5 1q2 -3 5 -5zM514 1136h-48q15 4 23 18t4 30q38 -11 40 -58q-5 4 -19 10z" />
<glyph unicode="&#xa6;" d="M679 57v-386q0 -59 -65 -59q-63 1 -46 24l-10 208q16 -35 18 -122q1 -6 6 -8.5t9.5 0t4.5 9.5q-1 40 -3.5 62.5t-11.5 50.5t-25 48l-7 141q4 28 6 63t2 54.5t-1 66.5t-1 59q-2 5 -6 7v108q0 58 65 58t65 -58v-42q-44 -79 -55 -180t26 -179q7 -7 13 -2.5t4 12.5 q-30 64 -24.5 145.5t36.5 156.5v-45q-2 -4 -2 -5q-2 -31 -9.5 -92.5t-8.5 -91.5q1 -10 8.5 -10.5t11.5 7.5zM677 777q-3 -63 -14 -125q-17 -15 -49 -15q-65 0 -65 59v88q12 -2 12 11q0 47 -3 95q6 2 9 8q0 20 1 31q2 -30 16 -46q2 -2 6 -4h5q0 1 1 1h1q5 5 5 8v2 q-1 29 -9 85q2 16 8.5 43.5t9.5 47.5t2 34q-6 58 -64 158v150q0 58 65 58t65 -58v-80q-6 -8 -10 -19t-6 -20t-3 -24t-1 -21.5v-22.5v-18q1 -10 9.5 -11t10.5 8v-54q-6 0 -8 -8q1 -22 8 -51v-305q-2 -4 -2 -5zM586 1087q-9 2 -14 15q-2 20 -4 28q0 2 -0.5 4t-0.5 4h-1 q-4 9 -13 5v3q-1 4 -4 7v67q38 -71 44 -122q1 -22 -10 -72l-9 36v8h2l2 -1q9 -1 12 5.5t-4 12.5zM549 1078q1 -2 1 -5t1 -5v-53q-2 42 -2 63zM572 973q-1 -2 -1 -6v8q0 -1 0.5 -1t0.5 -1z" />
<glyph unicode="&#xa8;" d="M480 1215q-13 16 -14 42q-2 8 -10 8.5t-10 -8.5q2 -40 31 -67q-7 -32 -33 -57q-35 -35 -85 -35h-9v2q-1 1 -1 2q-12 22 -19 26q-13 6 -27.5 7.5t-25.5 -6.5l-4 4q-35 37 -35 86q0 50 35 85q36 36 86 36q51 0 85 -36q36 -34 36 -85v-4zM990 1219q0 -13 -3 -27q-1 14 -5 42 q-3 6 -9 9q-3 0 -4 1q-11 0 -11 -10q0 -4 -1 -12.5t-1 -12.5q2 -11 10 -11q2 -25 -1 -47q-9 5 -14 -4q-15 -27 -20 -33q-28 -16 -62 -16h-3q-4 1 -12 4t-11 4q-20 6 -37 9q-13 8 -23 18q-35 37 -35 86q0 9 2 25q4 -40 40 -40q6 1 8 5l3 6q1 -6 1 -12q1 -7 6 -9.5t9.5 0 t4.5 9.5q0 3 -0.5 21.5t-1.5 26.5t-4 22.5t-8.5 24t-13.5 16.5q34 26 75 26q25 0 46 -9h7q11 0 11 -10q14 -10 21 -17q36 -34 36 -85zM457 1341h-3q-35 5 -42 23q-5 -8 -12.5 -5.5t-5.5 13.5q6 37 35 25q25 -11 35 -38l1 -3v-3q4 -10 -8 -12zM796 1265q-6 -2 -6 -8 q-2 -26 -6 -33q-15 0 -13.5 32t14.5 41q6 -2 11 -32zM380 1334q-5 4 -10.5 2t-6.5 -7.5t4 -9.5q7 -5 12.5 1.5t0.5 13.5zM919 1061q4 -5 2 -10.5t-7.5 -6.5t-9.5 4q-5 7 1.5 12.5t13.5 0.5zM416 1381q-2 -2 -2 -7q6 9 16 -1q0 -1 -1 -1q6 -4 8 -5q-12 14 -21 14z" />
<glyph unicode="&#xa9;" d="M1223 595q0 -252 -178 -430t-430 -178t-430 178t-178 430t178 430t430 178t430 -178t178 -430zM1093 595q0 198 -140 338t-338 140t-338 -140t-140 -338t140 -338t338 -140t338 140t140 338zM864 874v-155q0 -64 -57 -64q-53 0 -60 58q-1 3 -2.5 11t-2.5 11 q-29 80 -126 80q-87 0 -136.5 -60.5t-49.5 -166.5q0 -104 53 -163t144 -59q97 0 147 56q18 21 44 21q24 0 43.5 -17.5t19.5 -40.5q0 -21 -17 -38l-18 -18q-89 -80 -219 -80q-145 0 -231 98q-83 95 -83 241q0 144 74 239q83 105 229 105q78 0 136 -34q13 34 54 34 q58 0 58 -58z" />
<glyph unicode="&#xad;" d="M244 542h1h34.5h39.5t35 1t40 2.5t34.5 4.5t37.5 8l7 -3.5l7 -3.5q13 -10 18 -22h512q65 0 65 -65t-65 -65h-108q0 -1 -2 -9q-2 -3 -15 -17q-27 -17 -49 -1q19 -30 -2.5 -56.5t-50.5 -3.5q-23 17 -16 41q-15 5 -23 23q-2 0 -2 1q-5 2 -7 7q-6 -9 -15.5 -9.5t-15.5 10.5 q-5 8 -4 14h-240q-1 1 -3.5 2t-4.5 2q-13 1 -56.5 2t-72.5 3.5t-56 7.5q-17 -1 -23 -17h-25q-65 0 -65 65t65 65h17q7 12 8 13zM709 290h-13q-20 2 -30.5 14.5t-10 26.5t12 26t31.5 13h13q35 -10 33.5 -42t-36.5 -38zM817 381q2 -2 7 -3.5t7 -2.5q-9 7 -11 18q-2 -7 -3 -12z " />
<glyph unicode="&#xae;" d="M1202 582v-86q2 -14 11 -18q-33 -178 -168 -313q-178 -178 -430 -178t-430 178t-178 430q0 165 76 298q2 1 9 4q22 13 27 37q0 7 -2 11q30 42 68 80q178 178 430 178t430 -178q177 -177 178 -425q-16 2 -21 -18zM919 966v-3q-130 110 -304 110q-198 0 -338 -140 t-140 -338q0 -78 21 -147q-14 0 -19 -18q12 -116 74 -139q18 -3 23 11q26 -30 41 -45q140 -140 338 -140t338 140t140 338q0 174 -110 304q13 4 15 22q-3 14 -21 29t-19 24q-6 20 -23.5 16t-15.5 -24zM602 878h7q20 5 18 22h3q94 0 153 -50q47 -39 59 -98q-13 -4 -16 -18 v-59q2 -16 14 -20q-20 -68 -94 -106q8 -11 10 -14l39 -58q-7 -6 -9 -14q-6 -26 -0.5 -45t34.5 -22q13 3 18 17l13 -19h8q59 0 59 -59q0 -58 -59 -58h-39q-38 0 -100 90q-21 35 -61 103q-34 52 -82 52h-13v-128h25q59 0 59 -59q0 -58 -59 -58h-95q6 14 -9 25q-12 9 -25 10 t-34.5 -3.5t-26.5 -4.5q-13 -4 -15 -18q-21 14 -21 49q0 59 59 59h25v89q15 6 16 22q-1 23 -4 69.5t-3 69.5q-4 9 -9 13v126h-28q-58 0 -58 58q0 47 36 56q-6 -20 20 -25q2 0 16 -0.5t18.5 0.5t14.5 3t15 8.5t8 16.5h42q12 -15 32 -15q14 3 17 15h1q-2 -17 21 -22zM933 154 q17 7 34 22.5t27.5 29.5t27 38t22.5 32q12 16 0 28t-28 0q-2 -2 -18.5 -26t-26 -36t-24.5 -28t-26 -22q-20 -8 -14 -26t26 -12zM73 595l-25 -30q15 -11 25.5 3t-0.5 27zM822 436h-1l1 1l1 -2q-1 0 -1 1z" />
<glyph unicode="&#xaf;" d="M673 1198v-6q2 -10 5 -13q-13 -15 3 -27h-141q-2 13 -16 17q-6 0 -22.5 -0.5l-33 -1t-31.5 -2.5q-4 7 -13 8.5t-18 -5.5q-4 -3 -12 -11q-2 -1 -6.5 -2.5t-6.5 -2.5h-62q-65 0 -65 65t65 65h64q5 2 17 4q1 2 1 6q3 12 12.5 16.5t18.5 -1t9 -17.5h14q-1 12 9.5 18t23.5 -3 l14 -14q1 -1 2.5 -3t2.5 -3l2 -2t2 -1h284q-13 -2 -18.5 -11t0 -18t18.5 -11q23 0 68 -6t68 -6q17 4 18 19.5t-16 20.5q-23 1 -64 6t-56 6h95q65 0 65 -65t-65 -65h-121q-2 3 -8 9q-24 18 -68 24q2 6 2 9v6q-5 17 -20.5 16t-19.5 -18zM371 1257q1 -16 9 -23.5t16.5 -8.5 t25.5 -1q17 4 18 19.5t-16 20.5q-3 0 -8 -0.5t-7 -0.5q-4 9 -12.5 11.5t-16 -2.5t-9.5 -15zM642 1134q11 -13 0.5 -27t-25.5 -3q-11 7 -8.5 18.5t12.5 15t21 -3.5z" />
<glyph unicode="&#xb0;" d="M513 835q-4 10 3 14.5t14 -3.5v-1l1 -1q21 3 55.5 26.5t45.5 28.5q10 0 12 -7.5t-6 -11.5q-10 -4 -48.5 -29t-63.5 -27q-5 0 -8 4q-1 1 -2.5 3.5t-2.5 3.5zM194 925q0 -9 -8 -11q0 -10 9.5 -17.5t25 -15.5t23.5 -15q6 -7 0.5 -13t-13.5 -2q-5 4 -29.5 19t-33 29t0.5 34 q2 3 8 6q3 0 4 1q9 0 12 -9q0 -1 0.5 -3t0.5 -3zM608 804q10 0 11.5 -9t-8.5 -11h-6q-7 1 -9.5 6t0 9.5t9.5 4.5h3zM404 919q5 -7 -0.5 -13.5t-12.5 -1.5q-5 4 -4 9.5t6 7.5t11 -2zM351 1275q4 -5 2 -10.5t-7.5 -6.5t-9.5 4q-5 7 1.5 12.5t13.5 0.5zM445 1346q4 -5 2 -10.5 t-7.5 -6.5t-9.5 4q-5 7 1.5 12.5t13.5 0.5zM173 927q29 -30 65 -53q19 -8 27.5 6.5t-7.5 27.5q-38 27 -60 49q-13 10 -24.5 2t-7.5 -22q-5 13 -8 23q-8 -2 -15.5 3.5t-8.5 16.5v6q3 15 15 18q-1 11 -1 33q0 83 43 144q-2 3 -4 12q7 36 37 27q72 72 174 72q88 0 152 -52 q-12 -5 -12.5 -18t14.5 -19q9 -3 17 -14t16 -29t9 -20q9 -9 18.5 -8.5t14.5 9.5q21 -47 21 -104q0 -107 -73 -181l-20 -18q-1 0 -3.5 0.5t-4.5 0.5q-54 -7 -105 -54q-21 -3 -44 -3q-103 0 -177 74q-33 33 -53 75q3 -3 5 -4zM470 1034q-27 -5 -46 -25t-37 -22 q-11 -5 -14.5 -14.5t2.5 -16.5q-20 -4 -34 -4q-14 -1 -19.5 -10t-0.5 -18.5t18 -11.5q21 0 55 6q-1 -1 -4 -7l-1 -1q-8 -16 2.5 -26.5t26.5 -1.5q1 1 3 3.5t3 3.5q6 -11 24 -6q24 6 40 45l6 3q9 4 11 14q33 13 40 30q0 12 -11 22q-26 8 -48 2q11 8 6 22t-22 13zM304 1133 q-30 -31 -37 -71q12 4 22.5 -3.5t27.5 -27t30 -30.5h6q1 0 3 0.5t3 0.5q-3 34 32 115q8 13 20.5 11t17.5 -16q0 -12 -12 -53q3 1 10 1q26 -3 31 -29q9 9 13 14q7 5 11 5q7 7 17 19l-101 104q-55 0 -94 -40zM560 962q-11 -13 -11 -24q1 -12 9 -17.5t16.5 -2.5t12.5 13 q1 0 2 1.5t1.5 3.5t1.5 3q7 18 -5.5 26t-26.5 -3zM400 1010v-2l18 3v6q-15 -6 -18 -7z" />
<glyph unicode="&#xb1;" d="M474 127q1 -1 5 -3h-318q-65 0 -65 65q0 25 9 40q17 -16 37 -31q8 -3 13 1q40 33 57 38q27 8 64 9.5t67.5 -1.5t72.5 -8t65 -6q9 2 8.5 10t-8.5 10q-21 0 -40 3h621q65 0 65 -65t-65 -65h-119q-10 2 -30 8q-7 2 -25.5 11t-27.5 10q-21 1 -56 -7t-46 -9q-38 -4 -113 -2 q-2 0 -42 -0.5t-75 1.5t-43 8q-9 2 -13.5 -4t2.5 -13zM119 243l42 11h37q-17 -8 -50 -35q-17 12 -29 24zM860 133q15 -7 18 -9h-87q49 15 69 9zM388 761h-48q0 10 -12 15h-21q-15 -3 -17 -15q-8 -2 -11 -6h-4q-49 0 -49 49q0 50 49 50h147q0 18 23 26q5 8 11 12q19 17 61 15 q7 10 20 12.5t23 -5.5q-3 6 1.5 11.5t11.5 7.5l-1 224q0 50 50 50q49 0 49 -50v-71l3 -2q5 -5 11.5 -18.5t7.5 -14.5q17 -1 25 -16t-2 -32q1 0 -0.5 -2t-3.5 -4.5t-2 -3.5q-1 -4 -1 -11.5t-2 -11.5l6 -3q6 -8 2.5 -16t-10.5 -9.5t-13 4.5q-9 -6 -20 -3v-10q0 -2 1 -3 q0 -9 3 -17q17 -11 20 -26q21 -11 15 -33h119q6 4 13 5q10 0 35 -2.5t39 -2.5h52q50 0 50 -50q0 -49 -50 -49h-103q-1 -7 -12 -10q-9 1 -26 3t-26 2q-9 1 -11 5h-66q-5 -6 -16.5 -14t-15.5 -12q-13 -13 -21 -25l-1 -141h5v3q4 13 14.5 13t15.5 -12v-1l2 -1q6 -9 1 -20 q0 -1 1 -4v-6q-1 -10 -7.5 -15t-13.5 -2t-8 12q-6 -1 -10 0v-82q0 -49 -49 -49q-50 0 -50 49v51q-9 -3 -15 7q-5 7 -2.5 12.5t9.5 8.5q-2 12 8 17l1 167q-30 21 -44 44h-96q-1 -3 -6 -6q-12 -3 -19 -7q-4 -3 -9 -3q9 15 -11 22zM550 947q6 -8 2 -16t-11.5 -9t-13.5 6 q-9 11 2 19.5t21 -0.5z" />
<glyph unicode="&#xb2;" d="M694 488q67 0 78 -1h-301q-5 2 -8 6q-6 4 -11 2t-6 -8h-21q2 30 14.5 56t34.5 12q10 -4 14.5 3t-3.5 14q-26 18 -43.5 2t-26 -39.5t-10.5 -47.5h-27q-32 0 -60 39q-27 39 -27 81q0 36 23 53l56 38q-6 -5 -12.5 -11.5t-14.5 -15t-12 -12.5q-5 -8 0.5 -13.5t13.5 -0.5 q32 33 52 52t51.5 40.5t64.5 35.5q7 4 5.5 11t-10.5 8l18 12q136 104 183 175q-20 -48 -70 -101q-5 -8 0.5 -13.5t13.5 -0.5q85 90 92 177q0 9 -9 11q-2 116 -126 116q-87 0 -188 -62q-17 -11 -35 -11q-27 0 -46 20.5t-19 47.5q0 33 32 53q11 7 79 41l20 8q-5 -8 7 -13 q10 -5 39 -6q9 2 8.5 10t-8.5 10h-3q53 19 115 32q95 -2 158 -47q15 -18 28.5 -45.5t19.5 -43.5t18.5 -55t14.5 -44q7 -15 16 -4v-8q0 -88 -74 -179q-35 -44 -97 -96q-4 4 -10 4q-12 -3 -22.5 -7t-19.5 -11t-15.5 -12t-14 -14.5t-11 -14t-11.5 -16t-10 -14.5l-107 -74h307 q18 96 73 96q28 0 48 -24.5t15 -52.5q-5 -30 -17 -90q-20 -59 -65 -59h-1q-32 19 -92 21q4 4 1.5 10.5t-10.5 6.5h-163q-7 0 -9.5 -4.5t0 -9.5t9.5 -6h116q-5 -4 -2.5 -10t10.5 -7zM827 620q-33 -2 -55.5 -15.5t-49.5 -40.5q-5 -8 0.5 -13.5t13.5 -0.5q25 25 44.5 36.5 t49.5 13.5q10 2 8.5 11t-11.5 9zM814 1209q22 -44 50 -128z" />
<glyph unicode="&#xb3;" d="M863 1032q-1 25 -3 76t-2 77q28 -44 28 -105q0 -27 -6 -51q-8 -12 -27 -27.5t-32.5 -32.5t-17.5 -41q-1 -7 2 -11t8 -3q-4 -4 -6 -5q56 -33 83 -77v-2q1 -23 6.5 -68.5t5.5 -67.5q1 -7 6 -9.5t9.5 0t4.5 9.5q-1 29 -9 87q11 -35 11 -73q0 -110 -79 -179q-23 -8 -63 -33 t-61 -33q-34 -10 -73 -15q-191 2 -237 41q-3 2 -4.5 5.5t-3.5 8t-3 6.5q-7 8 -14 3.5t-3 -14.5q1 -3 3.5 -9t4.5 -8q-35 15 -69 43q-26 20 -26 50q0 7 2 17q7 -21 52 -26q9 2 8.5 10t-8.5 10q-25 2 -32 8q-1 11 9.5 21.5t23.5 16.5h1q6 -1 9.5 2t2.5 8q20 -2 38 -15 q125 -52 179 -52q100 0 156 37q2 1 4 2.5t3 1.5q-13 -12 -34 -33q-5 -8 0.5 -13.5t13.5 -0.5q6 6 32.5 31t42.5 42.5t28 36.5q4 7 -4 14q-6 4 -12 4.5t-12 3.5q-3 0 -5 2v6q0 122 -198 122q-68 0 -68 65t67 65q68 0 114 37q47 38 47 83q0 85 -134 85q-84 0 -175 -68 q-20 -14 -40 -14q-26 0 -45.5 20.5t-19.5 47.5q0 31 27 50q12 9 74 45q-5 -5 -8 -16q-2 -11 6 -13t13 7q5 18 28.5 19t46.5 -5.5t41 1.5q11 5 17 13.5t10.5 22.5t7.5 19q6 1 17 1q103 0 177 -50q20 -13 38 -33q1 -21 2.5 -57t2.5 -66t1 -57q1 -7 6 -9.5t9.5 0t4.5 9.5z M475 1261l112 32q-14 -33 -23 -35q-10 -5 -44.5 -0.5t-44.5 3.5zM684 953q-3 10 -13.5 11.5t-21 -2.5t-23.5 -9.5t-18 -6.5q-9 -5 -7 -13t13 -6q6 1 24.5 9.5t27.5 8.5q5 -10 13 -6t5 14zM614 567q-10 -1 -29.5 -3t-29.5 -3q-8 -4 -7.5 -11.5t10.5 -8.5q9 0 29 2.5t30 3.5 t8.5 10.5t-11.5 9.5zM860 857q-14 1 -15 15q-2 8 -10 8.5t-10 -8.5q3 -32 35 -35q9 2 8.5 10t-8.5 10zM804 678q-15 -21 -40 -44q19 21 27 47q1 -1 13 -3z" />
<glyph unicode="&#xb4;" d="M872 1175q-8 1 -10.5 7t2.5 10l-200 -76q-3 -4 -7 -17t-11 -16q-30 -11 -40 11l-147 -55q-9 -3 -18 -3q-43 0 -43 35q0 18 19 28l102 59q74 16 128 61q5 7 0 13l171 98q9 -4 15 7l1 2l10 6q8 1 22 1q13 2 7 14q15 6 27 6q18 0 25 -13q11 -17 18 -30q-11 -13 -11 -37 q1 -7 6 -9.5t9.5 0t4.5 9.5q0 14 2 18q23 -38 23 -47q0 -21 -11 -26l-95 -36h1q38 -3 44 -5q12 -10 -1 -18q-7 -3 -31 -3q-7 1 -10 6h-2zM741 1246q29 3 54 26q6 8 0 14t-14 0q-20 -19 -43 -20q-8 -4 -7.5 -11.5t10.5 -8.5zM513 1212q10 0 11.5 -9t-8.5 -11h-6q-7 1 -9.5 6 t0 9.5t9.5 4.5h3zM637 1102q0 1 2 5l-14 -5v-1q9 0 12 1z" />
<glyph unicode="&#xb7;" d="M811 630l-24 -87q-16 -10 -24 -17q3 -6 3 -14q-6 -23 -24 -29q-12 -3 -13 -3t-2 -1q-9 -13 -22 -9q-41 -19 -91 -19q-82 0 -140 52q-57 53 -57 127q0 32 10 59q13 49 44 64l3 3q59 53 140 53q43 0 79 -15q-6 12 2.5 22t23.5 5q9 -6 22 -26v3q5 -7 8 -8q16 -13 26 5 q3 -6 9 -9v-2q-1 -2 -1 -3q2 -13 6 -21q2 -9 6 -13q-17 -8 -33 2q49 -50 49 -119zM730 485q-1 -3 -3 -5l4 8q-1 -1 -1 -3zM722 478q2 0 4 1q-1 -1 -4 -1z" />
<glyph unicode="&#xb8;" d="M513 -432q2 3 4 9q-12 5 -32 18.5t-31 17.5q0 -14 5 -29q-1 1 -2 1q-2 1 -3 1q-92 35 -92 76q0 37 48 37q13 0 85 -25l27 -9h-4q-14 -1 -19.5 -10t-0.5 -18.5t18 -11.5q4 0 36.5 -2t53 -2t47 4t39.5 13q37 11 32 59q7 15 7 39q0 54 -48 73q8 10 4 22q-15 26 -67 41.5 t-61 20.5v135h100v-129q33 3 43 3h2q2 -14 20 -17q61 -3 106 -44q7 -3 15 -1q34 -43 34 -108q0 -110 -86 -154q4 -7 1 -15.5t-12 -12.5q-4 -9 -12.5 -12t-16.5 2.5t-9 16.5q0 1 -1 1t-1 2q-40 -9 -91 -9q-70 0 -138 17zM574 -183l-15 33q10 -3 32 -8t35 -10.5t22 -14.5 q-9 1 -27 1zM466 -283q4 17 19.5 18t20.5 -17v-6q-2 -21 -19.5 -21.5t-20.5 20.5v6zM677 -300q8 -10 3.5 -21t-15 -12.5t-18.5 7.5q-11 15 3 26t27 0zM494 -365q-4 12 -13 16t-16 -1q4 -2 29 -17v2z" />
<glyph unicode="&#xb9;" d="M898 561q-41 -8 -76 -56q-4 -5 -2 -11h-101q-16 4 -32.5 7t-36 4.5t-33.5 2.5t-36.5 0t-33.5 -1t-37 -2.5t-34 -3t-37 -3.5t-34 -4h-8q-65 0 -65 65q0 41 26 56q-5 -7 -7 -16q1 -10 8.5 -10.5t11.5 7.5q1 15 37 22q-5 -9 0 -16t19 -8q7 1 8.5 7t-3.5 10q3 3 7 3 q47 -2 60 3q5 3 5 7h70v151q14 53 17 83q6 -4 17 -2q4 2 6 7q13 41 9.5 155t-15.5 138q-21 37 -69 26t-65 -50l-47 -9q-10 -2 -15 -2q-63 0 -63 67q0 52 52 62l54 13q-3 -2 -16 -9.5t-18.5 -10.5t-16 -8t-20 -7.5t-19.5 -3.5q-8 -4 -7.5 -11.5t10.5 -8.5q31 4 75.5 30 t69.5 31q10 5 4 14q73 18 111 18q76 0 76 -64v-459q-1 3 -1 9q-2 8 -10 8.5t-10 -8.5q1 -15 10.5 -38.5t10.5 -27.5v-63q-6 3 -11 -0.5t-3 -10.5q10 -57 99 -61q9 2 8.5 10t-8.5 10q-48 0 -69 22h165q65 0 65 -65t-65 -65h-47q27 39 66 48q8 4 6 11.5t-12 7.5zM596 993 q0 10 6 32q2 -107 -6 -148q-2 2 -2 5q0 31 -3 46v3q-2 7 -7.5 8.5t-9.5 -3.5v217l-73 -15q19 21 46 25.5t43 -17.5q7 -13 10 -77q-10 4 -12 -8q0 -10 -5.5 -29.5t-6.5 -35.5q1 -10 8.5 -10.5t11.5 7.5zM677 1055v-59q1 -7 6 -9.5t9.5 0t4.5 9.5v56q0 10 -9.5 11.5 t-10.5 -8.5z" />
<glyph unicode="&#xbc;" d="M1009 -38h-51v-87q0 -65 -65 -65t-65 65v71q3 2 11 7t13 7q3 -12 3 -25q1 -6 6 -8.5t9.5 0t4.5 9.5q-1 20 -3.5 30t-8.5 12t-11 0.5t-16.5 -7t-20.5 -8.5q-1 0 -2 -1h-16q-2 5 -8 7q-43 0 -130 5.5t-131 5.5q-9 0 -10.5 -7t4.5 -11q-26 0 -45.5 19.5t-19.5 45.5v72 q0 23 15 41l29 35h7q13 7 25.5 18.5t20.5 20.5t19 26t16 25.5t16.5 30t15.5 27.5l84 103q14 10 28 15q6 4 5.5 10t-6.5 8l47 58q17 21 55 21q44 0 84 -25q40 -24 40 -58v-363h51q65 0 65 -65t-65 -65zM516 720q-13 -9 -28.5 -12.5t-25.5 -3.5t-19.5 -7t-13.5 -24h-231 q-44 0 -57 28q51 0 72 -16q10 -4 14.5 3t-3.5 14q-4 3 -8.5 6t-10 5t-9 3.5t-10.5 2t-9.5 1.5t-10.5 1h-10h-11.5h-10.5q-1 5 -1 17q0 65 65 65h125v245q4 -45 5 -70q0 -7 5 -9q-5 -100 -5 -180q1 -10 8.5 -10.5t11.5 7.5q0 63 5 189.5t6 189.5q0 10 -9.5 11.5t-10.5 -8.5 q0 -25 -2 -77q-6 61 -7 89q-2 6 -7 8v10q2 4 0 7v52l-70 -9q-5 9 -6 21q-2 7 -7.5 8.5t-9 -2t-2.5 -10.5q1 -9 5 -20q-27 -1 -47 19q-19 19 -19 48q0 55 54 62q1 -6 7 -8q2 -1 6 -1q6 -1 10 2.5t2 9.5q1 1 4 2.5t4 2.5q9 1 25 5q3 0 4 1h17q-14 -8 -41 -10q-8 -4 -7.5 -11.5 t10.5 -8.5q16 2 27.5 4t25.5 11t11 22q26 2 36 2q91 0 91 -66v-356q-29 -62 -31 -85q1 -10 8.5 -10.5t11.5 7.5q1 14 11 42v-126h114q65 0 65 -65t-65 -65h-116q5 14 32.5 17t44.5 14q5 6 0.5 13t-12.5 3zM653 671q24 3 65 24t65 24q10 1 8.5 10.5t-11.5 9.5l-15 -3l25 13 q6 -2 11 2q28 24 127 52q5 3 6 8.5t-4 8.5l81 41q16 8 31 8q26 0 45 -20.5t19 -47.5q0 -17 -7 -30q-25 -5 -47 -15q-8 -4 -8 -11t8 -9l-397 -201q-158 -8 -187 -95l-256 -129q-16 -8 -31 -8q-26 0 -45 20.5t-19 47.5q0 7 2 19q14 15 48 26t79 19.5t55 11.5q6 1 37 15t36 14 q10 2 8.5 11t-11.5 9t-24 -9.5t-20 -11.5q-2 -1 -32 -9q-14 -4 -51.5 -11t-56.5 -11l457 231q4 -4 9 -4zM838 141q-8 13 -10 30v25q2 14 8.5 43t8.5 43q0 8 -6.5 10.5t-10.5 -1.5v81l-228 -280h201q-5 -3 -15 -5q-9 -5 -7 -13t13 -6q8 1 15 4.5t15 10t12.5 10.5t13.5 12.5 t12 11.5q6 8 0 14t-14 0l-18 -18v13q5 -1 8 3.5t2 11.5zM932 392v-172q1 -7 6 -9.5t9.5 0t4.5 9.5v169q0 10 -9 11.5t-11 -8.5zM497 455q30 44 109 55zM868 654q-2 5 -5 8.5t-8.5 4.5t-9.5 1.5t-11.5 0t-9.5 -0.5q-7 0 -9.5 -4.5t0 -9.5t9.5 -6q5 0 10 0.5t7.5 0.5t4.5 0.5 t3 0.5t1 -1q4 -9 12 -6.5t6 11.5zM869 653l-1 2v-1z" />
<glyph unicode="&#xbd;" d="M968 477q20 -71 42 -103q3 -5 11 -3q2 0 6 2q3 2 6 8q1 3 1.5 10t0.5 10q0 10 -9.5 11.5t-10.5 -8.5l-1 -1q-12 21 -27 79q75 -66 75 -170q0 -118 -105 -222l-198 -160q39 7 107 12q-4 -4 0 -13q20 -19 53 -18.5t56 14.5q5 4 5.5 10t-4 8.5t-10.5 -0.5q-28 -15 -58 -12h5 q12 2 8 13q28 1 93 1q65 5 65 -63q0 -67 -65 -67h-111q0 11 -11 11l-61 2q-61 2 -100 -0.5t-63 -12.5h-4q-32 0 -55 35q-21 32 -21 71t22 55l217 177q-6 -8 -43 -57.5t-64 -74.5t-59 -35q-9 -5 -7 -13t13 -7q36 12 66.5 40.5t66.5 78t48 62.5q4 6 0.5 12t-9.5 4l22 18 q71 59 71 131v6q4 -9 7 -25q4 -8 11.5 -6.5t7.5 10.5q-10 58 -57.5 90t-111.5 38q-9 0 -10.5 -7t4.5 -11q-45 -11 -93 -42q-18 -12 -37 -12h-2q3 7 12.5 12.5t26 10.5t19.5 6q8 4 6 11.5t-12 7.5q-57 -20 -69 -37q-2 -4 -3 -8q-13 6 -24 17q-19 20 -19 48q0 33 30 52 q12 8 64 34q78 35 145 35q86 0 151 -53q-5 1 -8 -2.5t-2 -9.5zM140 744q2 9 13 22.5t20 10.5l2 -4q5 -10 13 -6t5 14q-10 29 -38 10q17 12 43 12h125v258q6 -16 11 -53q1 -7 6 -9.5t9.5 0t4.5 9.5q-7 57 -19 75q-6 6 -12 4v157q0 6 1 10q0 10 -9 11.5t-11 -8.5v-3l-64 -8 q-33 -4 -54 18q-19 19 -19 48q0 16 5 29h54q10 1 8.5 10.5t-11.5 9.5h-36q14 11 37 14q36 8 55 12q47 10 83 10q91 0 91 -66v-154q-1 -7 -1 -18q-2 -24 -9 -80.5t-11 -95t-4 -87t7 -82.5q3 -7 9.5 -7t8.5 6v-10h114q65 0 65 -65t-65 -65h-282q77 31 111 24q1 -4 5 -10 q7 -7 13 -2.5t4 13.5q-7 12 -19 17.5t-24 5.5t-30 -4.5t-28.5 -8.5t-28.5 -12t-22 -9q-9 -4 -27 -14h-41q-65 0 -65 64q5 2 7 7zM839 759q-3 9 -7 11l179 91q16 8 31 8q26 0 45 -20.5t19 -47.5q0 -38 -37 -56l-114 -58q-3 5 -8 4t-8 -6q-3 -6 -7 -10l-29 -14 q-38 -11 -117 -11q-8 -4 -7.5 -11.5t10.5 -8.5h54l-631 -319q-16 -8 -31 -8q-26 0 -45 20.5t-19 47.5q0 18 8 32q5 -3 14.5 -9.5t15 -10t14 -6.5t16.5 -2q1 0 24 20t35 21q10 2 8.5 11t-11.5 9q-9 -1 -16 -3.5t-13.5 -7.5t-10 -8t-11 -11t-10.5 -11q-8 0 -43 22q16 9 17 10 l359 182q-3 -6 0.5 -11t11.5 -3q26 6 55.5 19.5t50 26.5t52.5 34.5t47 30.5q68 46 89 50l1 -1q4 -8 11.5 -6.5t7.5 10.5zM386 464q38 3 112 26t113 27q10 1 8.5 10.5t-11.5 9.5q-39 -4 -112.5 -27t-112.5 -26q-8 -4 -7.5 -11.5t10.5 -8.5zM804 -73q-47 -3 -59 -16 q-5 -7 0.5 -12.5t13.5 -1.5q7 8 48 10q10 1 8.5 10.5t-11.5 9.5zM546 677q10 1 26 9t24 10q8 4 6 11.5t-12 7.5q-8 -1 -23 -9t-24 -9q-8 -4 -7.5 -11.5t10.5 -8.5zM670 688q-84 -58 -144 -73zM453 822q-11 58 0 168v-168z" />
<glyph unicode="&#xbe;" d="M961 19q-1 -6 -5.5 -22.5t-5.5 -26.5q1 -7 8 -9v-86q0 -65 -65 -65t-65 65v87h-98q16 8 61 7.5t54 -11.5q8 -8 15 -1.5t0 14.5q-15 18 -69 18.5t-73 -11.5q-12 -8 0 -16h-121q-71 14 -90 28q2 5 -1 9.5t-10 4.5q-1 0 -3 -1t-3 -1q-12 -6 -6 -16q7 -12 27 -23 q-19 3 -35 19q-19 19 -19 45v72q0 23 15 41l289 355q-8 -11 -21.5 -33.5t-18.5 -28.5q-20 -24 -59.5 -68t-68.5 -80.5t-51 -73.5q-2 -9 5 -12.5t13 3.5q21 37 46.5 70t72 84t56.5 63q17 20 31 41q10 14 14 22.5t4 10.5t1.5 3t6.5 4q8 4 6 11.5t-12 7.5q-8 -4 -12 -8l5 6 q17 21 55 21q44 0 84 -25q40 -24 40 -58v-153q-2 -60 -2 -88q0 -2 2 -6v-116h51q65 0 65 -65t-65 -65h-44q4 4 5 6q1 9 5.5 24.5t5.5 23.5q0 10 -9.5 11.5t-10.5 -8.5zM214 780q-10 1 -15 2.5t-9.5 6t-5.5 13.5q-2 4 -4 5q9 4 22 4q17 0 36 -11q105 -35 146 -35 q116 0 138 76q1 -4 1 -11q1 -7 6 -9.5t9.5 0t4.5 9.5q-1 18 -2.5 32t-7.5 27t-9 20.5t-14 20.5t-15.5 17.5t-21 20.5t-22.5 22q-8 7 -14.5 0t1.5 -15q0 -1 0.5 -2.5t1.5 -2.5q-20 7 -40 7q-68 0 -68 65t68 65q45 0 74 29l9 9q-1 -13 -1 -36q1 -10 8.5 -10.5t11.5 7.5 q3 64 8 77q1 -7 1 -39q1 -7 6 -9.5t9.5 0t4.5 9.5v17t-0.5 19.5t-3.5 15.5t-8 16q-7 6 -14 0l-4 -4q-5 22 -26 38q-27 21 -66 21q-63 0 -103 -15q-11 10 -23 15q-8 4 -15.5 5t-9.5 2t-3 5.5t-2 18.5q-2 8 -10 8.5t-10 -8.5q1 -19 5.5 -29t8.5 -13t16.5 -7t19.5 -7 q-1 -1 -3.5 -2.5t-3.5 -2.5q-19 -13 -39 -13q-26 0 -45.5 20.5t-19.5 47.5q0 17 9 32q14 4 86 42q49 16 82 23q15 1 43.5 0t37.5 -1q2 -13 -3 -37t1 -33.5t35 -6.5q10 1 8.5 10.5t-11.5 9.5q-3 0 -7.5 -0.5t-6.5 -0.5q-1 9 2.5 30t0.5 33q52 -7 100 -40q83 -56 83 -153 q0 -89 -63 -154q89 -71 89 -165q0 -115 -83 -183q-62 -52 -152 -61q17 4 28 5q10 2 8.5 11t-11.5 9q-14 -2 -51 -13t-56 -13l-34 4l-6 3q-5 1 -9 -1q-72 14 -124 48q-17 11 -24 23q10 -2 14 8q1 12 17 52q10 -10 35 -12q7 -1 10.5 2.5t2 9t-8.5 7.5zM489 540q8 10 17 19.5 t21 18.5l20 15t23.5 15.5t21.5 13.5t24.5 14.5t22.5 12.5q84 47 126 70t116 56t136 51q8 4 6 11.5t-12 7.5q-55 -17 -99 -34l99 50q16 8 31 8q26 0 45 -20.5t19 -47.5q0 -38 -37 -56l-170 -86q-33 -11 -102 -45.5t-112 -46.5q-7 -4 -7.5 -10t4.5 -8l-470 -238q-16 -8 -31 -8 q-26 0 -45 20.5t-19 47.5q0 38 37 56l481 243q-1 -1 -4 -3q-2 -1 -17 -9.5t-18.5 -10.5t-16.5 -9.5t-17.5 -10.5t-16 -10.5t-16.5 -11.5t-14.5 -11.5t-15.5 -13t-13 -13t-13 -15.5q-6 -9 1.5 -14.5t14.5 2.5zM600 92h228v15q39 19 53 70.5t-7 88.5q-7 8 -14 3.5t-3 -14.5 q15 -25 6 -66t-35 -59v242zM179 384q53 45 136 50q10 2 8.5 11t-11.5 9q-85 -4 -147 -56q-5 -8 0.5 -13.5t13.5 -0.5zM156 790l-19 -47q0 28 19 47zM653 680l4 2q-2 -2 -4 -2zM661 684q-2 -2 -4 -2zM638 671l9 5q-1 -1 -4 -2.5z" />
<glyph unicode="&#xbf;" d="M962 101q-7 -20 -28 -39q-9 13 -24.5 15.5t-33.5 -8.5q-3 -3 -10.5 -11t-9.5 -10l-7.5 -7.5t-7.5 -6t-7 -4t-8 -4t-8 -2.5t-10 -2t-11.5 -1t-14.5 -1q-19 -4 -28.5 -17t-7.5 -27q-62 -9 -123 -9q-162 0 -265 92q-93 84 -102 220q14 0 25.5 9.5t15.5 27.5q1 28 9 83t8 82 v2q26 34 63 62q31 26 177 101v1q3 3 14 13t15.5 14t12 12t13 15t9.5 15v58q0 65 65 65t65 -65v-134q0 -35 -56 -70q-17 28 -51 13h-1q-22 -4 -31 -20.5t-3 -33.5l-18 -9q-54 -27 -90 -48q3 -7 1 -21q18 8 38 -6q21 -15 17 -37t-23.5 -29.5t-45.5 5.5q-11 17 -8 34l-12 -12 q-9 -9 -14 -13q-24 -19 -46 -9q-20 -35 -20 -77q0 -98 62.5 -154t175.5 -56q85 0 146 13q-5 12 0 24q11 -34 41.5 -32.5t37.5 36.5v6q-1 20 -13 30q7 1 13 0v51q0 65 65 65t65 -65v-5q-20 -11 -21 -38v-47q4 -14 16 -24q-2 -1 -11 -10zM684 1245q26 -3 37 -23q51 -7 92 -41 q17 -12 27 -27q-5 -8 -7 -24q5 -62 4 -72q0 -9 -2 -12q-1 0 -3 -0.5t-3 -0.5q-33 -7 -36 -35.5t24 -39.5q-1 -1 -4 -3q-55 -44 -130 -44t-130 44q-51 42 -54 100q-11 14 -11 34q8 80 58.5 110.5t137.5 33.5zM538 800q19 37 32 52t20 9q21 -15 17 -37t-23.5 -29.5t-45.5 5.5z M626 574q1 1 5 3q-1 -1 -5 -3z" />
<glyph unicode="&#xc0;" d="M264 278v-11q-16 -23 -20 -48q5 -25 24 -20q5 -20 19 -26q19 -8 29 7q2 1 3 4t2 5q15 -13 15 -38q-2 -8 -3 -11l-4 -10h87q65 0 65 -65t-65 -65h-102q-3 9 -15 13q-65 0 -145 -5q-43 6 -72 23q-15 5 -24 -5.5t-2 -23.5h-12q-44 9 -44 63q0 65 65 65h62l198 539 q51 85 63 127q6 20 9 39q0 9 -5 17l54 147q-8 7 -16.5 11t-20 5.5t-17 2t-21 0t-19.5 -0.5q-20 2 -30.5 13.5t-10.5 26.5h-40q-65 0 -65 65q0 33 16 49q6 -7 17 -9h4q11 -24 37 -29q23 -6 64 8t53 15q7 2 12 6q86 0 154 -4q82 -12 146 -8h1q1 1 4 1q2 -4 3 -5l259 -648 q-2 16 11 30t33 12q-18 -55 -5 -79q-11 0 -21 9q-8 6 -9 7l139 -347h51q65 0 65 -65t-65 -65h-139q1 9 -5.5 15t-17.5 5q-21 -2 -54 -7t-57 -9t-27 -4h-49q-65 0 -65 65t65 65h1q-1 1 -4 3q-16 12 -18 30q55 -2 65 34q2 -2 5 -3q11 -19 8 -36.5t-16 -27.5h65q0 13 9 28 q14 16 22 23l-68 171q-7 -1 -14 0q-8 1 -20 6q-17 8 -23 22h-481l-12 -31l-2 2l-2 2t-2 1l-3 1q-9 3 -17 -2l-6 -6l-1 -3l-2 -6q-2 -12 -24 -42q-17 2 -22 -18zM572 975l21 -12q-3 -3 -5 -11v-3q-1 -3 -2.5 -7t-1.5 -6q0 10 1 13q0 10 -9 11.5t-11 -7.5q-12 0 -19 -10v-1 q0 -1 -1 -1q-60 -109 -84 -205q-3 -6 -16 -36l-10 -20t-16.5 -35t-12.5 -38t-1 -32q5 -16 19 -28t35.5 -17.5t42.5 -8.5t50 -2t47 2t43.5 3.5t30.5 2.5h18q58 -5 74 16q21 -17 34 -22q15 -2 22 9.5t-3 23.5l-15 15t-17 18.5t-11 17.5q-5 10 -17 54.5t-13 46.5q-1 0 -1 1 t-1 2q-6 36 -32 112.5t-30 119.5q-5 16 -19.5 16t-19.5 -14q-28 34 -62 50q-11 3 -14.5 -5t6.5 -13zM504 733q2 4 5 12t5 12q0 -2 1 -4.5t1 -3.5q-10 -12 -12 -16zM580 638l3 -3l1 -1q0 -2 1 -2l-1 -2v-2l-6 3v4q0 1 1 1zM492 642l3 -2q-1 -2 -3 -3.5t-4 -2.5q2 2 4 8z M832 510l-13 1v-1h13zM620 1581q11 -19 7.5 -38t-18.5 -28q0 -9 -5 -21l171 -98q18 -10 18 -28q0 -35 -42 -35q-9 0 -18 3l-241 91q-14 -9 -31 -6q-66 15 -138 66l-6 6l-91 35q-12 4 -12 26q0 14 52 96q9 13 26 13q18 0 46 -16l150 -87q32 17 65 7q9 17 26.5 22t40.5 -8z " />
<glyph unicode="&#xc1;" d="M264 267v11q5 20 22 18q22 30 24 42l2 6l1 3l6 6q8 5 17 2l3 -1q1 0 2 -1l2 -2l2 -2l12 31h481q6 -14 23 -22q12 -5 20 -6q7 -1 14 0l68 -171q-8 -7 -22 -23q-9 -15 -9 -28h-65q13 10 16 27.5t-8 36.5q-3 1 -5 3q-10 -36 -65 -34q2 -18 18 -30q1 -1 4 -3h-1 q-65 0 -65 -65t65 -65h49q3 0 27 4t57 9t54 7q11 1 17.5 -5t5.5 -15h139q65 0 65 65t-65 65h-51l-139 347q1 -1 9 -7q10 -9 21 -9q-13 24 5 79q-20 2 -33 -12t-11 -30l-259 648q-1 1 -3 5q-3 0 -4 -1h-1q-64 -4 -146 8q-68 4 -154 4q-5 -4 -12 -6q-12 -1 -53 -15t-64 -8 q-26 5 -37 29h-4q-11 2 -17 9q-16 -16 -16 -49q0 -65 65 -65h40q0 -15 10.5 -26.5t30.5 -13.5q4 0 19.5 0.5t21 0t17 -2t20 -5.5t16.5 -11l-54 -147q5 -8 5 -17q-8 -60 -66 -156q-1 -2 -2 -3.5l-2 -3t-2 -3.5l-198 -539h-62q-65 0 -65 -65q0 -54 44 -63h12q-7 13 2 23.5 t24 5.5q29 -17 72 -23q80 5 145 5q12 -4 15 -13h102q65 0 65 65t-65 65h-87l4 10q1 3 3 11q0 25 -15 38q-1 -2 -2 -5t-3 -4q-10 -15 -29 -7q-14 6 -19 26q-19 -5 -24 20q4 25 20 48zM572 975q-10 5 -6.5 13t14.5 5q34 -16 62 -50q5 14 19.5 14t19.5 -16q4 -43 30 -119.5 t32 -112.5l1 -1q0 -2 1 -2q1 -2 13 -46.5t17 -54.5q4 -9 11 -17.5t17 -18.5l15 -15q10 -12 3 -23.5t-22 -9.5q-13 5 -34 22q-16 -21 -74 -16h-18q-5 0 -30.5 -2.5t-43.5 -3.5t-47 -2t-50 2t-42.5 8.5t-35.5 17.5t-19 28q-4 11 1 32t12.5 38t16.5 35l10 20q13 30 16 36 q24 96 84 205q1 0 1 1v1q7 10 19 10q2 9 11 7.5t9 -11.5q-1 -3 -1 -13q0 2 1.5 6t2.5 7v3q2 8 5 11zM504 733q2 4 12 16q0 1 -1 3.5t-1 4.5q-2 -4 -5 -12t-5 -12zM583 635l-3 3l-1 -1q-1 -1 -1 -2v-4l6 -3v2l1 2q-1 0 -1 1t-1 2zM495 640l-3 2q-2 -6 -4 -8q2 1 4 2.5t3 3.5z M819 511l13 -1h-13v1zM835 1445q-8 1 -10.5 7t2.5 10l-200 -76q-3 -4 -7 -17t-11 -16q-30 -11 -40 11l-147 -55q-9 -3 -18 -3q-43 0 -43 35q0 18 19 28l102 59q74 16 128 61q5 7 0 13l171 98q9 -4 15 7l1 2l10 6q8 1 22 1q13 2 7 14q15 6 27 6q18 0 25 -13q10 -17 18 -30 q-11 -13 -11 -37q1 -7 6 -9.5t9.5 0t4.5 9.5q0 14 2 18q23 -38 23 -47q0 -21 -11 -26l-95 -36h1q38 -3 44 -5q12 -10 -1 -18q-7 -3 -31 -3q-7 1 -10 6h-2zM704 1516q29 3 54 26q6 8 0 14t-14 0q-20 -19 -43 -20q-8 -4 -7.5 -11.5t10.5 -8.5zM476 1482q10 0 11.5 -9t-8.5 -11 h-6q-7 1 -9.5 6t0 9.5t9.5 4.5h3zM600 1372q0 1 2 5l-14 -5v-1q9 0 12 1z" />
<glyph unicode="&#xc2;" d="M264 267v11q5 20 22 18q22 30 24 42l2 6l1 3l6 6q8 5 17 2l3 -1q1 0 2 -1l2 -2l2 -2l12 31h481q6 -14 23 -22q12 -5 20 -6q7 -1 14 0l68 -171q-8 -7 -22 -23q-9 -15 -9 -28h-65q13 10 16 27.5t-8 36.5q-3 1 -5 3q-10 -36 -65 -34q2 -18 18 -30q1 -1 4 -3h-1 q-65 0 -65 -65t65 -65h49q3 0 27 4t57 9t54 7q11 1 17.5 -5t5.5 -15h139q65 0 65 65t-65 65h-51l-139 347q1 -1 9 -7q10 -9 21 -9q-13 24 5 79q-20 2 -33 -12t-11 -30l-259 648q-1 1 -3 5q-3 0 -4 -1h-1q-64 -4 -146 8q-68 4 -154 4q-5 -4 -12 -6q-12 -1 -53 -15t-64 -8 q-26 5 -37 29h-4q-11 2 -17 9q-16 -16 -16 -49q0 -65 65 -65h40q0 -15 10.5 -26.5t30.5 -13.5q4 0 19.5 0.5t21 0t17 -2t20 -5.5t16.5 -11l-54 -147q5 -8 5 -17q-8 -60 -66 -156q-1 -2 -2 -3.5l-2 -3t-2 -3.5l-198 -539h-62q-65 0 -65 -65q0 -54 44 -63h12q-7 13 2 23.5 t24 5.5q29 -17 72 -23q80 5 145 5q12 -4 15 -13h102q65 0 65 65t-65 65h-87l4 10q1 3 3 11q0 25 -15 38q-1 -2 -2 -5t-3 -4q-10 -15 -29 -7q-14 6 -19 26q-19 -5 -24 20q4 25 20 48zM572 975q-10 5 -6.5 13t14.5 5q34 -16 62 -50q5 14 19.5 14t19.5 -16q4 -43 30 -119.5 t32 -112.5l1 -1q0 -2 1 -2q1 -2 13 -46.5t17 -54.5q4 -9 11 -17.5t17 -18.5l15 -15q10 -12 3 -23.5t-22 -9.5q-13 5 -34 22q-16 -21 -74 -16h-18q-5 0 -30.5 -2.5t-43.5 -3.5t-47 -2t-50 2t-42.5 8.5t-35.5 17.5t-19 28q-4 11 1 32t12.5 38t16.5 35l10 20q13 30 16 36 q24 96 84 205q1 0 1 1v1q7 10 19 10q2 9 11 7.5t9 -11.5q-1 -3 -1 -13q0 2 1.5 6t2.5 7v3q2 8 5 11zM504 733q2 4 12 16q0 1 -1 3.5t-1 4.5q-2 -4 -5 -12t-5 -12zM583 635l-3 3l-1 -1q-1 -1 -1 -2v-4l6 -3v2l1 2q-1 0 -1 1t-1 2zM495 640l-3 2q-2 -6 -4 -8q2 1 4 2.5t3 3.5z M819 511l13 -1h-13v1zM767 1515q9 -29 50 -64q18 -8 27 5l37 -28q7 4 15 5h6q13 -4 15.5 -16t-6.5 -19q11 -16 11 -30q0 -28 -33 -28q-19 0 -45 14l-267 144l-67 -36q8 -2 12 -5q11 -13 0.5 -27t-25.5 -3q-15 9 -7 24l-180 -97q-26 -14 -45 -14q-33 0 -33 28q0 29 38 58 l31 25q15 3 26 7q-3 -4 -3 -7q-5 -21 12.5 -26.5t25.5 14.5q2 6 11 8q13 3 17 15t-4 19q27 14 43 28q18 25 -9 35l80 63q-9 8 -4 20.5t21 13.5h12q5 -1 9 -5q17 10 31 10h16q20 0 50 -24l131 -104v-1q1 -1 1 -2z" />
<glyph unicode="&#xc3;" d="M264 267v11q5 20 22 18q22 30 24 42l2 6l1 3l6 6q8 5 17 2l3 -1q1 0 2 -1l2 -2l2 -2l12 31h481q6 -14 23 -22q12 -5 20 -6q7 -1 14 0l68 -171q-8 -7 -22 -23q-9 -15 -9 -28h-65q13 10 16 27.5t-8 36.5q-3 1 -5 3q-10 -36 -65 -34q2 -18 18 -30q1 -1 4 -3h-1 q-65 0 -65 -65t65 -65h49q3 0 27 4t57 9t54 7q11 1 17.5 -5t5.5 -15h139q65 0 65 65t-65 65h-51l-139 347q1 -1 9 -7q10 -9 21 -9q-13 24 5 79q-20 2 -33 -12t-11 -30l-259 648q-1 1 -3 5q-3 0 -4 -1h-1q-64 -4 -146 8q-68 4 -154 4q-5 -4 -12 -6q-12 -1 -53 -15t-64 -8 q-26 5 -37 29h-4q-11 2 -17 9q-16 -16 -16 -49q0 -65 65 -65h40q0 -15 10.5 -26.5t30.5 -13.5q4 0 19.5 0.5t21 0t17 -2t20 -5.5t16.5 -11l-54 -147q5 -8 5 -17q-8 -60 -66 -156q-1 -2 -2 -3.5l-2 -3t-2 -3.5l-198 -539h-62q-65 0 -65 -65q0 -54 44 -63h12q-7 13 2 23.5 t24 5.5q29 -17 72 -23q80 5 145 5q12 -4 15 -13h102q65 0 65 65t-65 65h-87l4 10q1 3 3 11q0 25 -15 38q-1 -2 -2 -5t-3 -4q-10 -15 -29 -7q-14 6 -19 26q-19 -5 -24 20q4 25 20 48zM572 975q-10 5 -6.5 13t14.5 5q34 -16 62 -50q5 14 19.5 14t19.5 -16q4 -43 30 -119.5 t32 -112.5l1 -1q0 -2 1 -2q1 -2 13 -46.5t17 -54.5q4 -9 11 -17.5t17 -18.5l15 -15q10 -12 3 -23.5t-22 -9.5q-13 5 -34 22q-16 -21 -74 -16h-18q-5 0 -30.5 -2.5t-43.5 -3.5t-47 -2t-50 2t-42.5 8.5t-35.5 17.5t-19 28q-4 11 1 32t12.5 38t16.5 35l10 20q13 30 16 36 q24 96 84 205q1 0 1 1v1q7 10 19 10q2 9 11 7.5t9 -11.5q-1 -3 -1 -13q0 2 1.5 6t2.5 7v3q2 8 5 11zM504 733q2 4 12 16q0 1 -1 3.5t-1 4.5q-2 -4 -5 -12t-5 -12zM583 635l-3 3l-1 -1q-1 -1 -1 -2v-4l6 -3v2l1 2q-1 0 -1 1t-1 2zM495 640l-3 2q-2 -6 -4 -8q2 1 4 2.5t3 3.5z M819 511l13 -1h-13v1zM468 1429q-14 2 -19 12.5t2 18.5q-19 3 -35 3q-70 0 -109 -30t-55 -30q-38 0 -38 36q0 55 85 107q6 4 17 9.5t12 6.5q-4 -7 -6 -17q3 -18 17.5 -20t22.5 15q0 3 1 5q8 8 23 16q19 9 9 27q23 5 41 5q50 0 134 -22q-4 0 -15 -0.5t-16.5 0t-13.5 2.5 t-14 6q-18 5 -26 -8t6 -26q16 -10 48 -9.5t47 -7.5q18 -8 27 6t-6 27q5 -1 13.5 -3.5t15 -4.5t12.5 -3v6q4 17 19.5 18t20.5 -16v-6q0 -2 -0.5 -5t-1.5 -5q41 -7 72 -7q58 0 90 29q32 30 53 30q38 0 38 -36q0 -62 -81 -106q-7 5 -16 5q-6 -2 -28 -10t-33 -11.5t-34 -8 t-30 0.5h-1q-13 16 -27.5 7.5t-6.5 -27.5q-54 4 -131 27l-21 6q20 -11 34 -14q20 -6 16 -24t-24 -15q-16 3 -43.5 21t-44.5 20zM486 1409q11 -13 0.5 -27t-25.5 -3q-11 7 -8.5 18.5t12.5 15t21 -3.5zM836 1599q11 -13 0.5 -27t-25.5 -3q-11 7 -8.5 18.5t12.5 15t21 -3.5z " />
<glyph unicode="&#xc4;" d="M264 267v11q5 20 22 18q22 30 24 42l2 6l1 3l6 6q8 5 17 2l3 -1q1 0 2 -1l2 -2l2 -2l12 31h481q6 -14 23 -22q12 -5 20 -6q7 -1 14 0l68 -171q-8 -7 -22 -23q-9 -15 -9 -28h-65q13 10 16 27.5t-8 36.5q-3 1 -5 3q-10 -36 -65 -34q2 -18 18 -30q1 -1 4 -3h-1 q-65 0 -65 -65t65 -65h49q3 0 27 4t57 9t54 7q11 1 17.5 -5t5.5 -15h139q65 0 65 65t-65 65h-51l-139 347q1 -1 9 -7q10 -9 21 -9q-13 24 5 79q-20 2 -33 -12t-11 -30l-259 648q-1 1 -3 5q-3 0 -4 -1h-1q-64 -4 -146 8q-68 4 -154 4q-5 -4 -12 -6q-12 -1 -53 -15t-64 -8 q-26 5 -37 29h-4q-11 2 -17 9q-16 -16 -16 -49q0 -65 65 -65h40q0 -15 10.5 -26.5t30.5 -13.5q4 0 19.5 0.5t21 0t17 -2t20 -5.5t16.5 -11l-54 -147q5 -8 5 -17q-8 -60 -66 -156q-1 -2 -2 -3.5l-2 -3t-2 -3.5l-198 -539h-62q-65 0 -65 -65q0 -54 44 -63h12q-7 13 2 23.5 t24 5.5q29 -17 72 -23q80 5 145 5q12 -4 15 -13h102q65 0 65 65t-65 65h-87l4 10q1 3 3 11q0 25 -15 38q-1 -2 -2 -5t-3 -4q-10 -15 -29 -7q-14 6 -19 26q-19 -5 -24 20q4 25 20 48zM572 975q-10 5 -6.5 13t14.5 5q34 -16 62 -50q5 14 19.5 14t19.5 -16q4 -43 30 -119.5 t32 -112.5l1 -1q0 -2 1 -2q1 -2 13 -46.5t17 -54.5q4 -9 11 -17.5t17 -18.5l15 -15q10 -12 3 -23.5t-22 -9.5q-13 5 -34 22q-16 -21 -74 -16h-18q-5 0 -30.5 -2.5t-43.5 -3.5t-47 -2t-50 2t-42.5 8.5t-35.5 17.5t-19 28q-4 11 1 32t12.5 38t16.5 35l10 20q13 30 16 36 q24 96 84 205q1 0 1 1v1q7 10 19 10q2 9 11 7.5t9 -11.5q-1 -3 -1 -13q0 2 1.5 6t2.5 7v3q2 8 5 11zM504 733q2 4 12 16q0 1 -1 3.5t-1 4.5q-2 -4 -5 -12t-5 -12zM583 635l-3 3l-1 -1q-1 -1 -1 -2v-4l6 -3v2l1 2q-1 0 -1 1t-1 2zM495 640l-3 2q-2 -6 -4 -8q2 1 4 2.5t3 3.5z M819 511l13 -1h-13v1zM443 1485q-13 16 -14 42q-2 8 -10 8.5t-10 -8.5q2 -40 31 -67q-8 -32 -33 -57q-35 -35 -85 -35h-9l-1 2v2q-12 22 -19 26q-13 6 -27.5 7.5t-25.5 -6.5l-4 4q-35 37 -35 86q0 50 35 85q36 36 86 36t85 -36q36 -34 36 -85v-4zM953 1489q0 -13 -3 -27 q-1 14 -5 42q-3 6 -9 9q-3 0 -4 1q-11 0 -11 -10q-1 -4 -1 -12.5t-1 -12.5q2 -11 10 -11q2 -25 -1 -47q-9 5 -14 -4q-15 -27 -20 -33q-28 -16 -62 -16h-3q-4 1 -11.5 4t-11.5 4q-20 6 -37 9q-13 8 -23 18q-35 37 -35 86q0 9 2 25q4 -40 40 -40q6 1 8 5l3 6q1 -6 1 -12 q1 -7 6 -9.5t9.5 0t4.5 9.5q0 3 -0.5 21.5t-1.5 26.5t-4 22.5t-8.5 24t-13.5 16.5q34 26 75 26q25 0 46 -9h7q11 0 11 -10q14 -10 21 -17q36 -34 36 -85zM420 1611h-3q-35 5 -42 23q-5 -8 -12.5 -5.5t-5.5 13.5q6 37 35 25q25 -11 35 -38l1 -3v-3q4 -10 -8 -12zM759 1535 q-6 -2 -6 -8q-2 -26 -6 -33q-15 0 -13.5 32t14.5 41q6 -2 11 -32zM343 1604q-5 4 -10.5 2t-6.5 -7.5t4 -9.5q7 -5 12.5 1.5t0.5 13.5zM882 1331q4 -5 2 -10.5t-7.5 -6.5t-9.5 4q-5 7 1.5 12.5t13.5 0.5zM379 1651q-2 -2 -2 -7q6 9 16 -1q0 -1 -1 -1q6 -4 8 -5q-12 14 -21 14 z" />
<glyph unicode="&#xc5;" d="M264 267v11q5 20 22 18q22 30 24 42l2 6l1 3l6 6q8 5 17 2l3 -1q1 0 2 -1l2 -2l2 -2l12 31h481q6 -14 23 -22q12 -5 20 -6q7 -1 14 0l68 -171q-8 -7 -22 -23q-9 -15 -9 -28h-65q13 10 16 27.5t-8 36.5q-3 1 -5 3q-10 -36 -65 -34q2 -18 18 -30q1 -1 4 -3h-1 q-65 0 -65 -65t65 -65h49q3 0 27 4t57 9t54 7q11 1 17.5 -5t5.5 -15h139q65 0 65 65t-65 65h-51l-139 347q1 -1 9 -7q10 -9 21 -9q-13 24 5 79q-20 2 -33 -12t-11 -30l-259 648q-1 1 -3 5q-3 0 -4 -1h-1q-64 -4 -146 8q-68 4 -154 4q-5 -4 -12 -6q-12 -1 -53 -15t-64 -8 q-26 5 -37 29h-4q-11 2 -17 9q-16 -16 -16 -49q0 -65 65 -65h40q0 -15 10.5 -26.5t30.5 -13.5q4 0 19.5 0.5t21 0t17 -2t20 -5.5t16.5 -11l-54 -147q5 -8 5 -17q-8 -60 -66 -156q-1 -2 -2 -3.5l-2 -3t-2 -3.5l-198 -539h-62q-65 0 -65 -65q0 -54 44 -63h12q-7 13 2 23.5 t24 5.5q29 -17 72 -23q80 5 145 5q12 -4 15 -13h102q65 0 65 65t-65 65h-87l4 10q1 3 3 11q0 25 -15 38q-1 -2 -2 -5t-3 -4q-10 -15 -29 -7q-14 6 -19 26q-19 -5 -24 20q4 25 20 48zM572 975q-10 5 -6.5 13t14.5 5q34 -16 62 -50q5 14 19.5 14t19.5 -16q4 -43 30 -119.5 t32 -112.5l1 -1q0 -2 1 -2q1 -2 13 -46.5t17 -54.5q4 -9 11 -17.5t17 -18.5l15 -15q10 -12 3 -23.5t-22 -9.5q-13 5 -34 22q-16 -21 -74 -16h-18q-5 0 -30.5 -2.5t-43.5 -3.5t-47 -2t-50 2t-42.5 8.5t-35.5 17.5t-19 28q-4 11 1 32t12.5 38t16.5 35l10 20q13 30 16 36 q24 96 84 205q1 0 1 1v1q7 10 19 10q2 9 11 7.5t9 -11.5q-1 -3 -1 -13q0 2 1.5 6t2.5 7v3q2 8 5 11zM504 733q2 4 12 16q0 1 -1 3.5t-1 4.5q-2 -4 -5 -12t-5 -12zM583 635l-3 3l-1 -1q-1 -1 -1 -2v-4l6 -3v2l1 2q-1 0 -1 1t-1 2zM495 640l-3 2q-2 -6 -4 -8q2 1 4 2.5t3 3.5z M819 511l13 -1h-13v1zM355 1392q29 -30 65 -53q19 -8 27.5 6.5t-7.5 27.5q-38 27 -60 49q-13 10 -24.5 2t-7.5 -22q-5 13 -8 23q-8 -2 -15.5 3.5t-8.5 16.5v6q3 15 15 18q-1 11 -1 33q0 83 43 144q-2 3 -4 12q7 36 37 27q72 72 174 72q88 0 152 -52q-12 -5 -12.5 -18 t14.5 -19q9 -3 17 -14t16 -29t9 -20q9 -9 18.5 -8.5t14.5 9.5q21 -46 21 -104q0 -107 -73 -181l-20 -18q-1 0 -3.5 0.5t-4.5 0.5q-54 -7 -105 -54q-21 -3 -44 -3q-103 0 -177 74q-33 33 -53 75q3 -3 5 -4zM652 1499q-27 -5 -46 -25t-37 -22q-11 -5 -14.5 -14.5t2.5 -16.5 q-20 -4 -34 -4q-14 -1 -19.5 -10t-0.5 -18.5t18 -11.5q21 0 55 6q-1 -1 -4 -7l-1 -1q-8 -16 2.5 -26.5t26.5 -1.5q1 1 3 3.5t3 3.5q6 -11 24 -6q24 6 40 45l6 3q9 4 11 14q33 13 40 30q0 12 -11 22q-26 8 -48 2q11 8 6 22t-22 13zM486 1598q-30 -31 -37 -71q12 4 22.5 -3.5 t27.5 -27t30 -30.5h6q1 0 3 0.5t3 0.5q-3 34 32 115q8 13 20.5 11t17.5 -16q0 -12 -12 -53q3 1 10 1q26 -3 31 -29q9 9 13 14q7 5 11 5q7 7 17 19l-101 104q-55 0 -94 -40zM742 1427q-11 -13 -11 -24q1 -12 9 -17.5t16.5 -2.5t12.5 13q1 0 2 1.5t1.5 3.5t1.5 3q7 18 -5.5 26 t-26.5 -3zM582 1475v-2l18 3v6q-15 -6 -18 -7z" />
<glyph unicode="&#xc7;" d="M310 805q-13 -35 -46 -30q-28 -87 -28 -194v-3q6 -8 9 -18q5 -36 16 -64q-3 -27 14 -94q21 -89 120 -196q0 -1 -0.5 -3.5t-0.5 -4.5q15 -14 35 -27q12 -13 16 -15q6 -3 13 -3q82 -43 187 -43q44 0 89 5q1 16 19 32q5 3 20 12.5t22.5 13.5t20 10.5t24.5 10t24 4.5 q27 0 39 -17q45 29 95 63q18 12 37 12q26 0 45.5 -20.5t19.5 -47.5q0 -32 -30 -52q-138 -94 -191 -116q-93 -40 -234 -40q-245 0 -396 181q-69 81 -105 181q-14 -2 -28 9q-21 16 -17.5 37t24.5 30q-17 79 -17 163q0 247 140 429q153 198 399 198q125 0 215 -43q7 26 43 31 h60l44 12q65 0 65 -65v-1q-7 -16 -11 -35.5t-7 -48.5t-4 -35q-2 -14 -14 -76t-18 -104.5t-7 -78.5h-4q-65 0 -65 68q0 62 -22 107q-6 2 -12 7q-22 15 -17 39q-14 16 -22 23q-79 70 -224 70q-127 0 -221 -73q-1 -2 -3.5 -5.5t-4.5 -5.5q-49 -49 -76 -91.5t-30 -97.5zM736 993 q11 -20 8 -36q-4 1 -41 1q-12 -1 -18 -8t-4 -16q-19 15 -14 36.5t24.5 28.5t44.5 -6zM315 402v-5q-1 1 -3 8zM513 -432q2 3 4 9q-12 5 -32 18.5t-31 17.5q0 -14 5 -29q-1 1 -2 1q-2 1 -3 1q-92 35 -92 76q0 37 48 37q13 0 85 -25l27 -9h-4q-14 -1 -19.5 -10t-0.5 -18.5 t18 -11.5q4 0 36.5 -2t53 -2t47 4t39.5 13q37 11 32 59q7 15 7 39q0 54 -48 73q8 10 4 22q-15 26 -67 41.5t-61 20.5v135h100v-129q33 3 43 3h2q2 -14 20 -17q61 -3 106 -44q7 -3 15 -1q34 -43 34 -108q0 -110 -86 -154q4 -7 1 -15.5t-12 -12.5q-4 -9 -12.5 -12t-16.5 2.5 t-9 16.5q0 1 -1 1t-1 2q-40 -9 -91 -9q-70 0 -138 17zM574 -183l-15 33q10 -3 32 -8t35 -10.5t22 -14.5q-9 1 -27 1zM466 -283q4 17 19.5 18t20.5 -17v-6q-2 -21 -19.5 -21.5t-20.5 20.5v6zM677 -300q8 -10 3.5 -21t-15 -12.5t-18.5 7.5q-11 15 3 26t27 0zM494 -365 q-4 12 -13 16t-16 -1q4 -2 29 -17v2z" />
<glyph unicode="&#xc8;" d="M529 106q31 -1 93 -7q49 -5 81 -4q24 0 37 1q55 7 66 32q3 9 3 17q4 2 13.5 8.5t13.5 9t12.5 8t14 7.5t14 5.5t16.5 5t17 2.5h8v3q6 28 27 34v131q0 65 65 65t65 -65v-294q0 -26 -19.5 -45.5t-45.5 -19.5h-661l1 1v2q-3 15 -11.5 21.5t-21 4t-24 -7t-25.5 -11t-20 -8.5 q-1 0 -3 -1t-3 -1h-118q-65 0 -65 65t65 65h75q19 43 63 69v94q8 -6 17.5 0t11.5 20q2 279 -6 420q-1 8 -2.5 35.5t-3 40t-6 33.5t-11.5 36v127q-15 -2 -27 7.5t-16 27.5v-2q0 -3 -1 0q-1 2 -3 7l-1 3h-83q-65 0 -65 65t65 65h177q5 -6 16 -9h1q104 0 164 13q9 2 27.5 9.5 t29.5 9.5h3q12 -9 17 -23h186q-2 24 20 37t50 -4q10 -15 8 -33h180q26 0 45.5 -19.5t19.5 -45.5v-272q0 -65 -65 -65t-65 65v118q-5 7 -5 8q-6 21 -37 45q-8 0 -14 3q-14 0 -27 10q-12 8 -17 23h-82q-2 1 -6 2.5t-5 1.5q-29 28 -49 31q-13 2 -49 0q-116 25 -147 -6 q-7 -12 -2 -23l-2 -6h-56q-7 -9 -10 -11q-5 -10 -11 -26q-12 -36 -17 -81q-2 -21 -2.5 -45.5t0.5 -40t3.5 -46t3.5 -42.5q24 -10 45 -44q0 -2 1 -4v-3h99q40 88 115 115q12 37 61 37q65 0 65 -65v-298q0 -65 -65 -65t-65 65v30q-25 -2 -41 27q-3 5 -8 13.5t-6 10.5h-186 q1 -2 1 -8q-1 -32 -26 -41q-2 -14 -2 -19q-4 -11 -10 -17v-93q16 5 25 4q-14 -38 -10 -89t21 -87q-7 -22 -11 -26q9 -10 32.5 -34.5t31.5 -34.5h28q-5 -19 20 -24zM684 199q-33 22 -11 52l3 -6q7 -5 8 -5q6 -2 8 -2h4q8 -30 24 -46q-19 -7 -36 7zM449 296q-3 15 -3 32 q8 -6 17 -2q-3 -19 -14 -30zM450 373l2 -6l-2 -1h-2q0 2 1 3.5t1 3.5zM392 301v-4l1 -1h2l-1 2q-2 2 -2 3zM657 1581q11 -19 7.5 -38t-18.5 -28q0 -9 -5 -21l171 -98q18 -10 18 -28q0 -35 -42 -35q-9 0 -18 3l-241 91q-14 -9 -31 -6q-66 15 -138 66l-6 6l-91 35 q-12 4 -12 26q0 14 52 96q9 13 26 13q18 0 46 -16l150 -87q32 17 65 7q9 17 26.5 22t40.5 -8z" />
<glyph unicode="&#xc9;" d="M529 106q-25 5 -20 24h-28q-8 10 -31.5 34.5t-32.5 34.5q4 4 11 26q-17 36 -21 87t10 89q-9 1 -25 -4v93q6 6 10 17q0 5 2 19q25 9 26 41q0 6 -1 8h186q1 -2 6 -10.5t8 -13.5q16 -29 41 -27v-30q0 -65 65 -65t65 65v298q0 65 -65 65q-49 0 -61 -37q-75 -27 -115 -115h-99 q0 1 -0.5 3t-0.5 4q-21 34 -45 44q-1 12 -3.5 42.5t-3.5 46t-0.5 40t2.5 45.5q5 45 17 81q6 16 11 26q3 2 10 11h56l2 6q-5 11 2 23q31 31 147 6q36 2 49 0q20 -3 49 -31q1 0 5 -1.5t6 -2.5h82q5 -15 17 -23q13 -10 27 -10q6 -3 14 -3q31 -24 37 -45q0 -1 5 -8v-118 q0 -65 65 -65t65 65v272q0 26 -19.5 45.5t-45.5 19.5h-180q2 18 -8 33q-28 17 -50 4t-20 -37h-186q-5 14 -17 23h-3q-11 -2 -29.5 -9.5t-27.5 -9.5q-60 -13 -164 -13h-1q-11 3 -16 9h-177q-65 0 -65 -65t65 -65h83q0 -1 1 -3l4 -8v1v2q4 -18 16 -27.5t27 -7.5v-127 q7 -15 11.5 -36t6 -33.5t3 -40t2.5 -35.5q8 -141 6 -420q-2 -14 -11.5 -20t-17.5 0v-94q-44 -26 -63 -69h-75q-65 0 -65 -65t65 -65h118q1 0 3 1t3 1q6 2 20 8.5t25.5 11t24 7t21 -4t11.5 -21.5v-1l-1 -2h661q26 0 45.5 19.5t19.5 45.5v294q0 65 -65 65t-65 -65v-131 q-21 -6 -27 -34v-3h-8q-10 -1 -20.5 -3.5t-17 -5t-17.5 -8.5t-14.5 -8.5t-16 -10.5t-15.5 -10q0 -8 -3 -17q-11 -25 -66 -32q-13 -1 -37 -1q-32 -1 -81 4q-62 6 -93 7zM684 199q17 -14 36 -7q-16 16 -24 46h-4q-2 0 -8 2q-1 0 -8 5l-3 6q-22 -30 11 -52zM449 296 q11 11 14 30q-9 -4 -17 2q0 -17 3 -32zM450 373q0 -2 -1 -3.5t-1 -3.5h2l2 1zM392 297v4q0 -1 1 -2t2 -3h-1zM872 1445q-8 1 -10.5 7t2.5 10l-200 -76q-3 -4 -7 -17t-11 -16q-30 -11 -40 11l-147 -55q-9 -3 -18 -3q-43 0 -43 35q0 18 19 28l102 59q74 16 128 61q5 7 0 13 l171 98q9 -4 15 7l1 2l10 6q8 1 22 1q13 2 7 14q15 6 27 6q18 0 25 -13q11 -17 18 -30q-11 -13 -11 -37q1 -7 6 -9.5t9.5 0t4.5 9.5q0 14 2 18q23 -38 23 -47q0 -21 -11 -26l-95 -36h1q38 -3 44 -5q12 -10 -1 -18q-7 -3 -31 -3q-7 1 -10 6h-2zM741 1516q29 3 54 26q6 8 0 14 t-14 0q-20 -19 -43 -20q-8 -4 -7.5 -11.5t10.5 -8.5zM513 1482q10 0 11.5 -9t-8.5 -11h-6q-7 1 -9.5 6t0 9.5t9.5 4.5h3zM637 1372q0 1 2 5l-14 -5v-1q9 0 12 1z" />
<glyph unicode="&#xca;" d="M529 106q-25 5 -20 24h-28q-8 10 -31.5 34.5t-32.5 34.5q4 4 11 26q-17 36 -21 87t10 89q-9 1 -25 -4v93q6 6 10 17q0 5 2 19q25 9 26 41q0 6 -1 8h186q1 -2 6 -10.5t8 -13.5q16 -29 41 -27v-30q0 -65 65 -65t65 65v298q0 65 -65 65q-49 0 -61 -37q-75 -27 -115 -115h-99 q0 1 -0.5 3t-0.5 4q-21 34 -45 44q-1 12 -3.5 42.5t-3.5 46t-0.5 40t2.5 45.5q5 45 17 81q6 16 11 26q3 2 10 11h56l2 6q-5 11 2 23q31 31 147 6q36 2 49 0q20 -3 49 -31q1 0 5 -1.5t6 -2.5h82q5 -15 17 -23q13 -10 27 -10q6 -3 14 -3q31 -24 37 -45q0 -1 5 -8v-118 q0 -65 65 -65t65 65v272q0 26 -19.5 45.5t-45.5 19.5h-180q2 18 -8 33q-28 17 -50 4t-20 -37h-186q-5 14 -17 23h-3q-11 -2 -29.5 -9.5t-27.5 -9.5q-60 -13 -164 -13h-1q-11 3 -16 9h-177q-65 0 -65 -65t65 -65h83q0 -1 1 -3l4 -8v1v2q4 -18 16 -27.5t27 -7.5v-127 q7 -15 11.5 -36t6 -33.5t3 -40t2.5 -35.5q8 -141 6 -420q-2 -14 -11.5 -20t-17.5 0v-94q-44 -26 -63 -69h-75q-65 0 -65 -65t65 -65h118q1 0 3 1t3 1q6 2 20 8.5t25.5 11t24 7t21 -4t11.5 -21.5v-1l-1 -2h661q26 0 45.5 19.5t19.5 45.5v294q0 65 -65 65t-65 -65v-131 q-21 -6 -27 -34v-3h-8q-10 -1 -20.5 -3.5t-17 -5t-17.5 -8.5t-14.5 -8.5t-16 -10.5t-15.5 -10q0 -8 -3 -17q-11 -25 -66 -32q-13 -1 -37 -1q-32 -1 -81 4q-62 6 -93 7zM684 199q17 -14 36 -7q-16 16 -24 46h-4q-2 0 -8 2q-1 0 -8 5l-3 6q-22 -30 11 -52zM449 296 q11 11 14 30q-9 -4 -17 2q0 -17 3 -32zM450 373q0 -2 -1 -3.5t-1 -3.5h2l2 1zM392 297v4q0 -1 1 -2t2 -3h-1zM804 1515q9 -29 50 -64q18 -8 27 5l37 -28q7 4 15 5h6q13 -4 15.5 -16t-6.5 -19q11 -16 11 -30q0 -28 -33 -28q-19 0 -45 14l-267 144l-67 -36q8 -2 12 -5 q11 -13 0.5 -27t-25.5 -3q-15 9 -7 24l-180 -97q-26 -14 -45 -14q-33 0 -33 28q0 29 38 58l31 25q15 3 26 7q-3 -4 -3 -7q-5 -21 12.5 -26.5t25.5 14.5q2 6 11 8q13 3 17 15t-4 19q27 14 43 28q18 25 -9 35l80 63q-9 8 -4 20.5t21 13.5h12q5 -1 9 -5q17 10 31 10h16 q20 0 50 -24l131 -104l1 -1v-2z" />
<glyph unicode="&#xcb;" d="M529 106q-25 5 -20 24h-28q-8 10 -31.5 34.5t-32.5 34.5q4 4 11 26q-17 36 -21 87t10 89q-9 1 -25 -4v93q6 6 10 17q0 5 2 19q25 9 26 41q0 6 -1 8h186q1 -2 6 -10.5t8 -13.5q16 -29 41 -27v-30q0 -65 65 -65t65 65v298q0 65 -65 65q-49 0 -61 -37q-75 -27 -115 -115h-99 q0 1 -0.5 3t-0.5 4q-21 34 -45 44q-1 12 -3.5 42.5t-3.5 46t-0.5 40t2.5 45.5q5 45 17 81q6 16 11 26q3 2 10 11h56l2 6q-5 11 2 23q31 31 147 6q36 2 49 0q20 -3 49 -31q1 0 5 -1.5t6 -2.5h82q5 -15 17 -23q13 -10 27 -10q6 -3 14 -3q31 -24 37 -45q0 -1 5 -8v-118 q0 -65 65 -65t65 65v272q0 26 -19.5 45.5t-45.5 19.5h-180q2 18 -8 33q-28 17 -50 4t-20 -37h-186q-5 14 -17 23h-3q-11 -2 -29.5 -9.5t-27.5 -9.5q-60 -13 -164 -13h-1q-11 3 -16 9h-177q-65 0 -65 -65t65 -65h83q0 -1 1 -3l4 -8v1v2q4 -18 16 -27.5t27 -7.5v-127 q7 -15 11.5 -36t6 -33.5t3 -40t2.5 -35.5q8 -141 6 -420q-2 -14 -11.5 -20t-17.5 0v-94q-44 -26 -63 -69h-75q-65 0 -65 -65t65 -65h118q1 0 3 1t3 1q6 2 20 8.5t25.5 11t24 7t21 -4t11.5 -21.5v-1l-1 -2h661q26 0 45.5 19.5t19.5 45.5v294q0 65 -65 65t-65 -65v-131 q-21 -6 -27 -34v-3h-8q-10 -1 -20.5 -3.5t-17 -5t-17.5 -8.5t-14.5 -8.5t-16 -10.5t-15.5 -10q0 -8 -3 -17q-11 -25 -66 -32q-13 -1 -37 -1q-32 -1 -81 4q-62 6 -93 7zM684 199q17 -14 36 -7q-16 16 -24 46h-4q-2 0 -8 2q-1 0 -8 5l-3 6q-22 -30 11 -52zM449 296 q11 11 14 30q-9 -4 -17 2q0 -17 3 -32zM450 373q0 -2 -1 -3.5t-1 -3.5h2l2 1zM392 297v4q0 -1 1 -2t2 -3h-1zM480 1485q-13 16 -14 42q-2 8 -10 8.5t-10 -8.5q2 -40 31 -67q-7 -32 -33 -57q-35 -35 -85 -35h-9v2q-1 1 -1 2q-12 22 -19 26q-13 6 -27.5 7.5t-25.5 -6.5l-4 4 q-35 37 -35 86q0 50 35 85q36 36 86 36q51 0 85 -36q36 -34 36 -85v-4zM990 1489q0 -13 -3 -27q-1 14 -5 42q-3 6 -9 9q-3 0 -4 1q-11 0 -11 -10q0 -4 -1 -12.5t-1 -12.5q2 -11 10 -11q2 -25 -1 -47q-9 5 -14 -4q-15 -27 -20 -33q-28 -16 -62 -16h-3q-4 1 -12 4t-11 4 q-20 6 -37 9q-13 8 -23 18q-35 37 -35 86q0 9 2 25q4 -40 40 -40q6 1 8 5l3 6q1 -6 1 -12q1 -7 6 -9.5t9.5 0t4.5 9.5q0 3 -0.5 21.5t-1.5 26.5t-4 22.5t-8.5 24t-13.5 16.5q34 26 75 26q25 0 46 -9h7q11 0 11 -10q14 -10 21 -17q36 -34 36 -85zM457 1611h-3q-35 5 -42 23 q-5 -8 -12.5 -5.5t-5.5 13.5q6 37 35 25q25 -11 35 -38l1 -3v-3q4 -10 -8 -12zM796 1535q-6 -2 -6 -8q-2 -26 -6 -33q-15 0 -13.5 32t14.5 41q6 -2 11 -32zM380 1604q-5 4 -10.5 2t-6.5 -7.5t4 -9.5q7 -5 12.5 1.5t0.5 13.5zM919 1331q4 -5 2 -10.5t-7.5 -6.5t-9.5 4 q-5 7 1.5 12.5t13.5 0.5zM416 1651q-2 -2 -2 -7q6 9 16 -1q0 -1 -1 -1q6 -4 8 -5q-12 14 -21 14z" />
<glyph unicode="&#xcc;" d="M548 327q-1 1 -1 4v666q-35 -10 -63 33q-12 8 -17 19h-218q-65 0 -65 65t65 65h64q3 14 18 23q17 -17 53 -20q16 4 18 18q15 -4 32 -4q15 -4 26 -17h45q1 -3 11 -8q-7 -7 -7 -16q27 -1 80 -2t79 -2h1q20 12 8 28h301q65 0 65 -65t-65 -65h-264q-10 -20 -37 -47v-106 q6 8 10 12q-9 -25 3 -61q-9 5 -13 14v-148q-14 -5 -17 -18q0 -51 -2.5 -168.5t-2 -204.5t4.5 -169q3 -13 12 -18t18 0.5t10 19.5q0 2 -0.5 6t-0.5 6q8 -10 12 -13q10 -12 25 -6l3 -18h1q2 -15 21 -18q25 -5 61.5 -3t52.5 21h103q65 0 65 -65t-65 -65h-132q-13 -16 -31 -20 h-27q-24 3 -35 20h-6q-2 0 -5 -2t-4 -2v-1h-1v1l-1 -1h1q-1 -1 -3.5 -1t-4.5 -1l-1 1q-14 -3 -24 0q-2 1 -6 2.5t-6 3.5h-290q-19 14 -38.5 16.5t-52.5 -3t-44 -6.5t-17 -7h-1q-65 0 -65 65t65 65h211q25 48 87 59v22q-5 0 -10 3q-23 10 -28 31q-6 3 -10 7q-1 0 -2 1l-2 2 q12 28 2 49l-4 4l-2 1q8 8 18 11v-1q6 -15 18.5 -15t17.5 13q1 -1 2 -1v6l1 2v3zM426 173q-13 7 -16 20l16 3q16 2 24 6q16 6 31 27q16 -31 -5 -54t-50 -2zM732 843q-13 29 -7 55l1 1q0 -17 21 -21h3q0 -24 -18 -35zM611 1179h23q-10 -4 -20 -6zM711 233q1 -3 4.5 -12.5 t5.5 -15.5q-7 11 -10 28zM421 232q6 6 15 9l-3 -3q-5 -4 -12 -6zM657 1581q11 -19 7.5 -38t-18.5 -28q0 -9 -5 -21l171 -98q18 -10 18 -28q0 -35 -42 -35q-9 0 -18 3l-241 91q-14 -9 -31 -6q-66 15 -138 66l-6 6l-91 35q-12 4 -12 26q0 14 52 96q9 13 26 13q18 0 46 -16 l150 -87q32 17 65 7q9 17 26.5 22t40.5 -8z" />
<glyph unicode="&#xcd;" d="M548 327v-3l-1 -2v-6q-1 0 -2 1q-5 -13 -17.5 -13t-18.5 15v1q-10 -3 -18 -11l2 -1l4 -4q10 -21 -2 -49l2 -2t2 -1q4 -4 10 -7q5 -21 28 -31q5 -3 10 -3v-22q-62 -11 -87 -59h-211q-65 0 -65 -65t65 -65h1q6 6 17 7t44 6.5t52.5 3t38.5 -16.5h290q2 -2 6 -3.5t6 -2.5 q10 -3 24 0l1 -1q2 1 4.5 1t3.5 1h-1l1 1v-1h1v1q1 0 4 2t5 2h6q11 -17 35 -20h27q18 4 31 20h132q65 0 65 65t-65 65h-103q-16 -19 -52.5 -21t-61.5 3q-19 3 -21 18h-1l-3 18q-15 -6 -25 6q-4 3 -12 13q0 -2 0.5 -6t0.5 -6q-1 -14 -10 -19.5t-18 -0.5t-12 18 q-4 82 -4.5 169t2 204.5t2.5 168.5q3 13 17 18v148q4 -9 13 -14q-12 36 -3 61q-4 -4 -10 -12v106q27 27 37 47h264q65 0 65 65t-65 65h-301q12 -16 -8 -28h-1q-26 1 -79 2t-80 2q0 9 7 16q-10 5 -11 8h-45q-11 13 -26 17q-17 0 -32 4q-2 -14 -18 -18q-36 3 -53 20 q-15 -9 -18 -23h-64q-65 0 -65 -65t65 -65h218q5 -11 17 -19q28 -43 63 -33v-666q0 -3 1 -4zM426 173q29 -21 50 2t5 54q-15 -21 -31 -27q-6 -3 -12.5 -4.5t-15 -2.5t-12.5 -2q3 -13 16 -20zM732 843q18 11 18 35h-3q-21 4 -21 21l-1 -1q-6 -26 7 -55zM634 1179h-23l3 -6 q10 2 20 6zM711 233q3 -17 10 -28q-2 6 -5.5 15.5t-4.5 12.5zM421 232q7 2 12 6l3 3q-9 -3 -15 -9zM872 1445q-8 1 -10.5 7t2.5 10l-200 -76q-3 -4 -7 -17t-11 -16q-30 -11 -40 11l-147 -55q-9 -3 -18 -3q-43 0 -43 35q0 18 19 28l102 59q74 16 128 61q5 7 0 13l171 98 q9 -4 15 7l1 2l10 6q8 1 22 1q13 2 7 14q15 6 27 6q18 0 25 -13q11 -17 18 -30q-11 -13 -11 -37q1 -7 6 -9.5t9.5 0t4.5 9.5q0 14 2 18q23 -38 23 -47q0 -21 -11 -26l-95 -36h1q38 -3 44 -5q12 -10 -1 -18q-7 -3 -31 -3q-7 1 -10 6h-2zM741 1516q29 3 54 26q6 8 0 14t-14 0 q-20 -19 -43 -20q-8 -4 -7.5 -11.5t10.5 -8.5zM513 1482q10 0 11.5 -9t-8.5 -11h-6q-7 1 -9.5 6t0 9.5t9.5 4.5h3zM637 1372q0 1 2 5l-14 -5v-1q9 0 12 1z" />
<glyph unicode="&#xce;" d="M548 327v-3l-1 -2v-6q-1 0 -2 1q-5 -13 -17.5 -13t-18.5 15v1q-10 -3 -18 -11l2 -1l4 -4q10 -21 -2 -49l2 -2t2 -1q4 -4 10 -7q5 -21 28 -31q5 -3 10 -3v-22q-62 -11 -87 -59h-211q-65 0 -65 -65t65 -65h1q6 6 17 7t44 6.5t52.5 3t38.5 -16.5h290q2 -2 6 -3.5t6 -2.5 q10 -3 24 0l1 -1q2 1 4.5 1t3.5 1h-1l1 1v-1h1v1q1 0 4 2t5 2h6q11 -17 35 -20h27q18 4 31 20h132q65 0 65 65t-65 65h-103q-16 -19 -52.5 -21t-61.5 3q-19 3 -21 18h-1l-3 18q-15 -6 -25 6q-4 3 -12 13q0 -2 0.5 -6t0.5 -6q-1 -14 -10 -19.5t-18 -0.5t-12 18 q-4 82 -4.5 169t2 204.5t2.5 168.5q3 13 17 18v148q4 -9 13 -14q-12 36 -3 61q-4 -4 -10 -12v106q27 27 37 47h264q65 0 65 65t-65 65h-301q12 -16 -8 -28h-1q-26 1 -79 2t-80 2q0 9 7 16q-10 5 -11 8h-45q-11 13 -26 17q-17 0 -32 4q-2 -14 -18 -18q-36 3 -53 20 q-15 -9 -18 -23h-64q-65 0 -65 -65t65 -65h218q5 -11 17 -19q28 -43 63 -33v-666q0 -3 1 -4zM426 173q29 -21 50 2t5 54q-15 -21 -31 -27q-6 -3 -12.5 -4.5t-15 -2.5t-12.5 -2q3 -13 16 -20zM732 843q18 11 18 35h-3q-21 4 -21 21l-1 -1q-6 -26 7 -55zM634 1179h-23l3 -6 q10 2 20 6zM711 233q3 -17 10 -28q-2 6 -5.5 15.5t-4.5 12.5zM421 232q7 2 12 6l3 3q-9 -3 -15 -9zM804 1515q9 -29 50 -64q18 -8 27 5l37 -28q7 4 15 5h6q13 -4 15.5 -16t-6.5 -19q11 -16 11 -30q0 -28 -33 -28q-19 0 -45 14l-267 144l-67 -36q8 -2 12 -5q11 -13 0.5 -27 t-25.5 -3q-15 9 -7 24l-180 -97q-26 -14 -45 -14q-33 0 -33 28q0 29 38 58l31 25q15 3 26 7q-3 -4 -3 -7q-5 -21 12.5 -26.5t25.5 14.5q2 6 11 8q13 3 17 15t-4 19q27 14 43 28q18 25 -9 35l80 63q-9 8 -4 20.5t21 13.5h12q5 -1 9 -5q17 10 31 10h16q20 0 50 -24l131 -104 l1 -1v-2z" />
<glyph unicode="&#xcf;" d="M548 327v-3l-1 -2v-6q-1 0 -2 1q-5 -13 -17.5 -13t-18.5 15v1q-10 -3 -18 -11l2 -1l4 -4q10 -21 -2 -49l2 -2t2 -1q4 -4 10 -7q5 -21 28 -31q5 -3 10 -3v-22q-62 -11 -87 -59h-211q-65 0 -65 -65t65 -65h1q6 6 17 7t44 6.5t52.5 3t38.5 -16.5h290q2 -2 6 -3.5t6 -2.5 q10 -3 24 0l1 -1q2 1 4.5 1t3.5 1h-1l1 1v-1h1v1q1 0 4 2t5 2h6q11 -17 35 -20h27q18 4 31 20h132q65 0 65 65t-65 65h-103q-16 -19 -52.5 -21t-61.5 3q-19 3 -21 18h-1l-3 18q-15 -6 -25 6q-4 3 -12 13q0 -2 0.5 -6t0.5 -6q-1 -14 -10 -19.5t-18 -0.5t-12 18 q-4 82 -4.5 169t2 204.5t2.5 168.5q3 13 17 18v148q4 -9 13 -14q-12 36 -3 61q-4 -4 -10 -12v106q27 27 37 47h264q65 0 65 65t-65 65h-301q12 -16 -8 -28h-1q-26 1 -79 2t-80 2q0 9 7 16q-10 5 -11 8h-45q-11 13 -26 17q-17 0 -32 4q-2 -14 -18 -18q-36 3 -53 20 q-15 -9 -18 -23h-64q-65 0 -65 -65t65 -65h218q5 -11 17 -19q28 -43 63 -33v-666q0 -3 1 -4zM426 173q29 -21 50 2t5 54q-15 -21 -31 -27q-6 -3 -12.5 -4.5t-15 -2.5t-12.5 -2q3 -13 16 -20zM732 843q18 11 18 35h-3q-21 4 -21 21l-1 -1q-6 -26 7 -55zM634 1179h-23l3 -6 q10 2 20 6zM711 233q3 -17 10 -28q-2 6 -5.5 15.5t-4.5 12.5zM421 232q7 2 12 6l3 3q-9 -3 -15 -9zM480 1485q-13 16 -14 42q-2 8 -10 8.5t-10 -8.5q2 -40 31 -67q-7 -32 -33 -57q-35 -35 -85 -35h-9v2q-1 1 -1 2q-12 22 -19 26q-13 6 -27.5 7.5t-25.5 -6.5l-4 4 q-35 37 -35 86q0 50 35 85q36 36 86 36q51 0 85 -36q36 -34 36 -85v-4zM990 1489q0 -13 -3 -27q-1 14 -5 42q-3 6 -9 9q-3 0 -4 1q-11 0 -11 -10q0 -4 -1 -12.5t-1 -12.5q2 -11 10 -11q2 -25 -1 -47q-9 5 -14 -4q-15 -27 -20 -33q-28 -16 -62 -16h-3q-4 1 -12 4t-11 4 q-20 6 -37 9q-13 8 -23 18q-35 37 -35 86q0 9 2 25q4 -40 40 -40q6 1 8 5l3 6q1 -6 1 -12q1 -7 6 -9.5t9.5 0t4.5 9.5q0 3 -0.5 21.5t-1.5 26.5t-4 22.5t-8.5 24t-13.5 16.5q34 26 75 26q25 0 46 -9h7q11 0 11 -10q14 -10 21 -17q36 -34 36 -85zM457 1611h-3q-35 5 -42 23 q-5 -8 -12.5 -5.5t-5.5 13.5q6 37 35 25q25 -11 35 -38l1 -3v-3q4 -10 -8 -12zM796 1535q-6 -2 -6 -8q-2 -26 -6 -33q-15 0 -13.5 32t14.5 41q6 -2 11 -32zM380 1604q-5 4 -10.5 2t-6.5 -7.5t4 -9.5q7 -5 12.5 1.5t0.5 13.5zM919 1331q4 -5 2 -10.5t-7.5 -6.5t-9.5 4 q-5 7 1.5 12.5t13.5 0.5zM416 1651q-2 -2 -2 -7q6 9 16 -1q0 -1 -1 -1q6 -4 8 -5q-12 14 -21 14z" />
<glyph unicode="&#xd1;" d="M343 239q2 6 5 10q-2 2 -6 5.5t-6 5.5v389q28 -12 44.5 13.5t-1.5 53.5q-21 14 -43 7v188h16q10 2 15 5l516 -884q4 -8 25 -21q22 -11 31 -11h40q26 0 45.5 19.5t19.5 45.5v973q20 15 41 19h16q65 0 65 65t-65 65h-78q-3 -3 -11 -5q-111 5 -193 -14q-5 -4 -12 -6 q-7 0 -9 1q-25 5 -20 24h-30q-65 0 -65 -65t65 -65h62q6 -8 13 -14t19 -14.5t17 -12.5v-1q1 -12 10 -22.5t20 -13.5q9 -4 25 -2v-93q17 6 24 -16q1 -21 9 -91.5t9 -101.5t-5 -87q-5 -25 -19 -54.5t-18 -56.5v-27q-51 -44 -68 -85l-41 69q-14 -14 -28 4q-23 41 -79.5 132.5 t-97 168t-61.5 145.5l-160 271q-5 9 -26 20q-19 12 -30 12h-109q6 -8 1.5 -18.5t-16.5 -12.5q-74 8 -104 24l-2 2q-2 3 -4 5q-62 -2 -62 -65q0 -65 65 -65h48q2 -2 4 -3l4 -2l4 -2q34 -34 54 -38v-6q8 7 18 3.5t14 -15.5q0 -151 -6 -301q9 -9 3 -23q-3 -4 -4 -8 q-1 -14 -2 -42t-2 -42q-1 -10 -2.5 -29.5t-3.5 -29.5q0 -4 0.5 -12.5t1.5 -12.5q8 9 19 7t16 -16q-12 -268 -41 -318q-4 -6 -11 -9v-28h-73q-65 0 -65 -65t65 -65h379q65 0 65 65t-65 65h-17q-2 -14 -18 -18q-25 2 -44 8q-8 1 -14 5q-25 9 -55 14q-19 2 -20 17t13 21 q-11 19 -14 62zM208 342q1 10 2.5 28t1.5 26q-4 0 -5 1q-1 -18 1 -55zM914 251l-9 15q2 -1 9 -1v-14zM340 130h-4v6q1 -3 4 -6zM505 1429q-14 2 -19 12.5t2 18.5q-19 3 -35 3q-70 0 -109 -30t-55 -30q-38 0 -38 36q0 55 85 107q6 4 17 9.5t12 6.5q-4 -7 -6 -17 q3 -18 17.5 -20t22.5 15q0 3 1 5q8 8 23 16q19 9 9 27q23 5 41 5q50 0 134 -22q-4 0 -15 -0.5t-16.5 0t-13.5 2.5t-14 6q-18 5 -26 -8t6 -26q16 -10 48 -9.5t47 -7.5q18 -8 27 6t-6 27q5 -1 13.5 -3.5t15 -4.5t12.5 -3v6q4 17 19.5 18t20.5 -16v-6q0 -2 -0.5 -5t-1.5 -5 q41 -7 72 -7q58 0 90 29q31 30 53 30q38 0 38 -36q0 -62 -81 -106q-7 5 -16 5q-6 -2 -28 -10t-33 -11.5t-34 -8t-30 0.5h-1q-13 16 -27.5 7.5t-6.5 -27.5q-54 4 -131 27l-21 6q20 -11 34 -14q20 -6 16 -24t-24 -15q-16 3 -43.5 21t-44.5 20zM523 1409q11 -13 0.5 -27 t-25.5 -3q-11 7 -8.5 18.5t12.5 15t21 -3.5zM873 1599q11 -13 0.5 -27t-25.5 -3q-11 7 -8.5 18.5t12.5 15t21 -3.5z" />
<glyph unicode="&#xd2;" d="M1004 1075v-6q-2 -20 -11 -29q24 -30 42 -61q97 -166 97 -389q0 -222 -97 -385q-133 -228 -413 -228q-279 0 -419 227q-105 170 -105 395q0 224 103 390q140 221 419 221q194 0 318 -111q15 15 36.5 8t29.5 -32zM938 346v1q27 69 36 158q0 18 -15 22.5t-23 -11.5l-2 -6 q-4 -6 -7 -19q3 18 5 58v9l-3 6q-4 6 -7 7q0 1 -1 1t-2 1q-1 0 -3 0.5t-4 0.5q-5 0 -6 -1q9 61 12 123q4 27 26 34q-6 86 -6 118q2 14 8 20q-10 20 -23 44q-101 168 -303 168q-205 0 -309 -161q-83 -130 -83 -320q0 -193 85 -326q10 -16 15 -23q32 0 42 -34v-15 q47 -45 103 -67q8 3 21 5h64h1q72 7 92 10q-7 -22 19 -27q63 -4 149 55q4 6 6 14q3 1 16 9q53 10 62 88q18 17 33 55q0 1 1 1zM557 313q0 -1 1 -2q-11 0 -14 1q-20 -2 -21.5 -19t18.5 -21q1 0 3 -0.5t4 -0.5q4 -1 14 -4q-6 -18 -22 -23t-35 8q-21 15 -17 37t23.5 29.5 t45.5 -5.5zM1004 30q-16 23 -1 44.5t43 15.5q-5 -11 -42 -60zM1057 31q1 0 3 1q-4 -3 -9 -9.5t-8 -10.5h-7l12 15q2 1 9 4zM657 1581q11 -19 7.5 -38t-18.5 -28q0 -9 -5 -21l171 -98q18 -10 18 -28q0 -35 -42 -35q-9 0 -18 3l-241 91q-14 -9 -31 -6q-66 15 -138 66l-6 6 l-91 35q-12 4 -12 26q0 14 52 96q9 13 26 13q18 0 46 -16l150 -87q32 17 65 7q9 17 26.5 22t40.5 -8z" />
<glyph unicode="&#xd3;" d="M1004 1069v6q-8 25 -29.5 32t-36.5 -8q-124 111 -318 111q-279 0 -419 -221q-103 -166 -103 -390q0 -225 105 -395q140 -227 419 -227q280 0 413 228q97 163 97 385q0 223 -97 389q-18 31 -42 61q9 9 11 29zM938 347v-1l-1 -1q-1 -1 -1 -2q-15 -38 -33 -55 q-9 -78 -62 -88q-13 -8 -16 -9q-2 -8 -6 -14q-86 -59 -149 -55q-26 5 -19 27q-20 -3 -92 -10h-1h-64q-13 -2 -21 -5q-56 22 -103 67v15q-10 34 -42 34q-5 7 -15 23q-85 133 -85 326q0 190 83 320q104 161 309 161q202 0 303 -168q13 -24 23 -44q-6 -6 -8 -20q0 -32 6 -118 q-22 -7 -26 -34q-3 -62 -12 -123q1 1 6 1q2 0 4 -0.5t3 -0.5l1 -1q2 0 2 -1q3 -1 7 -7l3 -6v-9q-2 -39 -5 -58q3 13 7 19l2 6q8 16 23 11.5t15 -22.5q-9 -89 -36 -158zM557 313q-24 15 -45.5 5.5t-23.5 -29.5t17 -37q19 -13 35 -8t22 23q-10 3 -14 4q-2 0 -4 1h-3 q-20 4 -18.5 21t21.5 19q3 -1 14 -1q-1 1 -1 2zM1004 30q37 49 42 60q-28 6 -43 -15.5t1 -44.5zM1057 31q-7 -3 -9 -4l-12 -15h7q3 4 8 10.5t9 9.5h-1q-1 -1 -2 -1zM872 1445q-8 1 -10.5 7t2.5 10l-200 -76q-3 -4 -7 -17t-11 -16q-30 -11 -40 11l-147 -55q-9 -3 -18 -3 q-43 0 -43 35q0 18 19 28l102 59q74 16 128 61q5 7 0 13l171 98q9 -4 15 7l1 2l10 6q8 1 22 1q13 2 7 14q15 6 27 6q18 0 25 -13q11 -17 18 -30q-11 -13 -11 -37q1 -7 6 -9.5t9.5 0t4.5 9.5q0 14 2 18q23 -38 23 -47q0 -21 -11 -26l-95 -36h1q38 -3 44 -5q12 -10 -1 -18 q-7 -3 -31 -3q-7 1 -10 6h-2zM741 1516q29 3 54 26q6 8 0 14t-14 0q-20 -19 -43 -20q-8 -4 -7.5 -11.5t10.5 -8.5zM513 1482q10 0 11.5 -9t-8.5 -11h-6q-7 1 -9.5 6t0 9.5t9.5 4.5h3zM637 1372q0 1 2 5l-14 -5v-1q9 0 12 1z" />
<glyph unicode="&#xd4;" d="M1004 1069v6q-8 25 -29.5 32t-36.5 -8q-124 111 -318 111q-279 0 -419 -221q-103 -166 -103 -390q0 -225 105 -395q140 -227 419 -227q280 0 413 228q97 163 97 385q0 223 -97 389q-18 31 -42 61q9 9 11 29zM938 347v-1l-1 -1q-1 -1 -1 -2q-15 -38 -33 -55 q-9 -78 -62 -88q-13 -8 -16 -9q-2 -8 -6 -14q-86 -59 -149 -55q-26 5 -19 27q-20 -3 -92 -10h-1h-64q-13 -2 -21 -5q-56 22 -103 67v15q-10 34 -42 34q-5 7 -15 23q-85 133 -85 326q0 190 83 320q104 161 309 161q202 0 303 -168q13 -24 23 -44q-6 -6 -8 -20q0 -32 6 -118 q-22 -7 -26 -34q-3 -62 -12 -123q1 1 6 1q2 0 4 -0.5t3 -0.5l1 -1q2 0 2 -1q3 -1 7 -7l3 -6v-9q-2 -39 -5 -58q3 13 7 19l2 6q8 16 23 11.5t15 -22.5q-9 -89 -36 -158zM557 313q-24 15 -45.5 5.5t-23.5 -29.5t17 -37q19 -13 35 -8t22 23q-10 3 -14 4q-2 0 -4 1h-3 q-20 4 -18.5 21t21.5 19q3 -1 14 -1q-1 1 -1 2zM1004 30q37 49 42 60q-28 6 -43 -15.5t1 -44.5zM1057 31q-7 -3 -9 -4l-12 -15h7q3 4 8 10.5t9 9.5h-1q-1 -1 -2 -1zM804 1515q9 -29 50 -64q18 -8 27 5l37 -28q7 4 15 5h6q13 -4 15.5 -16t-6.5 -19q11 -16 11 -30 q0 -28 -33 -28q-19 0 -45 14l-267 144l-67 -36q8 -2 12 -5q11 -13 0.5 -27t-25.5 -3q-15 9 -7 24l-180 -97q-26 -14 -45 -14q-33 0 -33 28q0 29 38 58l31 25q15 3 26 7q-3 -4 -3 -7q-5 -21 12.5 -26.5t25.5 14.5q2 6 11 8q13 3 17 15t-4 19q27 14 43 28q18 25 -9 35l80 63 q-9 8 -4 20.5t21 13.5h12q5 -1 9 -5q17 10 31 10h16q20 0 50 -24l131 -104l1 -1v-2z" />
<glyph unicode="&#xd5;" d="M1004 1069v6q-8 25 -29.5 32t-36.5 -8q-124 111 -318 111q-279 0 -419 -221q-103 -166 -103 -390q0 -225 105 -395q140 -227 419 -227q280 0 413 228q97 163 97 385q0 223 -97 389q-18 31 -42 61q9 9 11 29zM938 347v-1l-1 -1q-1 -1 -1 -2q-15 -38 -33 -55 q-9 -78 -62 -88q-13 -8 -16 -9q-2 -8 -6 -14q-86 -59 -149 -55q-26 5 -19 27q-20 -3 -92 -10h-1h-64q-13 -2 -21 -5q-56 22 -103 67v15q-10 34 -42 34q-5 7 -15 23q-85 133 -85 326q0 190 83 320q104 161 309 161q202 0 303 -168q13 -24 23 -44q-6 -6 -8 -20q0 -32 6 -118 q-22 -7 -26 -34q-3 -62 -12 -123q1 1 6 1q2 0 4 -0.5t3 -0.5l1 -1q2 0 2 -1q3 -1 7 -7l3 -6v-9q-2 -39 -5 -58q3 13 7 19l2 6q8 16 23 11.5t15 -22.5q-9 -89 -36 -158zM557 313q-24 15 -45.5 5.5t-23.5 -29.5t17 -37q19 -13 35 -8t22 23q-10 3 -14 4q-2 0 -4 1h-3 q-20 4 -18.5 21t21.5 19q3 -1 14 -1q-1 1 -1 2zM1004 30q37 49 42 60q-28 6 -43 -15.5t1 -44.5zM1057 31q-7 -3 -9 -4l-12 -15h7q3 4 8 10.5t9 9.5h-1q-1 -1 -2 -1zM505 1429q-14 2 -19 12.5t2 18.5q-19 3 -35 3q-70 0 -109 -30t-55 -30q-38 0 -38 36q0 55 85 107 q6 4 17 9.5t12 6.5q-4 -7 -6 -17q3 -18 17.5 -20t22.5 15q0 3 1 5q8 8 23 16q19 9 9 27q23 5 41 5q50 0 134 -22q-4 0 -15 -0.5t-16.5 0t-13.5 2.5t-14 6q-18 5 -26 -8t6 -26q16 -10 48 -9.5t47 -7.5q18 -8 27 6t-6 27q5 -1 13.5 -3.5t15 -4.5t12.5 -3v6q4 17 19.5 18 t20.5 -16v-6q0 -2 -0.5 -5t-1.5 -5q41 -7 72 -7q58 0 90 29q31 30 53 30q38 0 38 -36q0 -62 -81 -106q-7 5 -16 5q-6 -2 -28 -10t-33 -11.5t-34 -8t-30 0.5h-1q-13 16 -27.5 7.5t-6.5 -27.5q-54 4 -131 27l-21 6q20 -11 34 -14q20 -6 16 -24t-24 -15q-16 3 -43.5 21 t-44.5 20zM523 1409q11 -13 0.5 -27t-25.5 -3q-11 7 -8.5 18.5t12.5 15t21 -3.5zM873 1599q11 -13 0.5 -27t-25.5 -3q-11 7 -8.5 18.5t12.5 15t21 -3.5z" />
<glyph unicode="&#xd6;" d="M1004 1069v6q-8 25 -29.5 32t-36.5 -8q-124 111 -318 111q-279 0 -419 -221q-103 -166 -103 -390q0 -225 105 -395q140 -227 419 -227q280 0 413 228q97 163 97 385q0 223 -97 389q-18 31 -42 61q9 9 11 29zM938 347v-1l-1 -1q-1 -1 -1 -2q-15 -38 -33 -55 q-9 -78 -62 -88q-13 -8 -16 -9q-2 -8 -6 -14q-86 -59 -149 -55q-26 5 -19 27q-20 -3 -92 -10h-1h-64q-13 -2 -21 -5q-56 22 -103 67v15q-10 34 -42 34q-5 7 -15 23q-85 133 -85 326q0 190 83 320q104 161 309 161q202 0 303 -168q13 -24 23 -44q-6 -6 -8 -20q0 -32 6 -118 q-22 -7 -26 -34q-3 -62 -12 -123q1 1 6 1q2 0 4 -0.5t3 -0.5l1 -1q2 0 2 -1q3 -1 7 -7l3 -6v-9q-2 -39 -5 -58q3 13 7 19l2 6q8 16 23 11.5t15 -22.5q-9 -89 -36 -158zM557 313q-24 15 -45.5 5.5t-23.5 -29.5t17 -37q19 -13 35 -8t22 23q-10 3 -14 4q-2 0 -4 1h-3 q-20 4 -18.5 21t21.5 19q3 -1 14 -1q-1 1 -1 2zM1004 30q37 49 42 60q-28 6 -43 -15.5t1 -44.5zM1057 31q-7 -3 -9 -4l-12 -15h7q3 4 8 10.5t9 9.5h-1q-1 -1 -2 -1zM480 1485q-13 16 -14 42q-2 8 -10 8.5t-10 -8.5q2 -40 31 -67q-7 -32 -33 -57q-35 -35 -85 -35h-9v2 q-1 1 -1 2q-12 22 -19 26q-13 6 -27.5 7.5t-25.5 -6.5l-4 4q-35 37 -35 86q0 50 35 85q36 36 86 36q51 0 85 -36q36 -34 36 -85v-4zM990 1489q0 -13 -3 -27q-1 14 -5 42q-3 6 -9 9q-3 0 -4 1q-11 0 -11 -10q0 -4 -1 -12.5t-1 -12.5q2 -11 10 -11q2 -25 -1 -47q-9 5 -14 -4 q-15 -27 -20 -33q-28 -16 -62 -16h-3q-4 1 -12 4t-11 4q-20 6 -37 9q-13 8 -23 18q-35 37 -35 86q0 9 2 25q4 -40 40 -40q6 1 8 5l3 6q1 -6 1 -12q1 -7 6 -9.5t9.5 0t4.5 9.5q0 3 -0.5 21.5t-1.5 26.5t-4 22.5t-8.5 24t-13.5 16.5q34 26 75 26q25 0 46 -9h7q11 0 11 -10 q14 -10 21 -17q36 -34 36 -85zM457 1611h-3q-35 5 -42 23q-5 -8 -12.5 -5.5t-5.5 13.5q6 37 35 25q25 -11 35 -38l1 -3v-3q4 -10 -8 -12zM796 1535q-6 -2 -6 -8q-2 -26 -6 -33q-15 0 -13.5 32t14.5 41q6 -2 11 -32zM380 1604q-5 4 -10.5 2t-6.5 -7.5t4 -9.5q7 -5 12.5 1.5 t0.5 13.5zM919 1331q4 -5 2 -10.5t-7.5 -6.5t-9.5 4q-5 7 1.5 12.5t13.5 0.5zM416 1651q-2 -2 -2 -7q6 9 16 -1q0 -1 -1 -1q6 -4 8 -5q-12 14 -21 14z" />
<glyph unicode="&#xd7;" horiz-adv-x="1024" />
<glyph unicode="&#xd8;" horiz-adv-x="1036" d="M438 1319l4 -2q10 -14 8 -34q35 8 68 8q185 0 302 -207q107 -191 107 -454q0 -264 -107 -455q0 -1 -1 -2l-2 -2q15 -9 17 -26.5t-12 -35.5l-7 -7q-25 -16 -46 -4q-8 -10 -28 -32q16 -31 -4 -55.5t-50 -2.5q-1 1 -3 2.5t-4 2.5l-1 1q-73 -46 -161 -46q-186 0 -303 207 q-107 191 -107 455q0 263 107 454q71 126 170 176q-7 5 -9 11q18 -12 30 13q0 15 14 17q16 4 18 18zM420 130q5 16 21 23l5 -5q23 -15 49 -18q1 -3 1 -12q1 1 7 4.5t10 5.5q18 0 39 7q1 -13 20 -16q36 4 83.5 70t41.5 98q7 9 24.5 32t28.5 35q2 0 3.5 -1t3.5 -1q4 9 5 17 q6 11 6 21q29 108 29 240l-20 31q-1 2 -1 9q-1 8 -3 28t-3.5 32t-6 29t-11.5 29q-20 177 -76 235q-22 22 -74 28q5 16 -3.5 31t-28.5 22q-8 0 -32.5 1.5t-38.5 1t-32.5 -5.5t-28.5 -15q-51 -5 -77 -39q-20 -6 -33 -28q-90 -155 -90 -389v-38q23 -8 30 -32q9 -246 121 -386 q7 -9 9 -25q12 -11 22 -19zM880 178q-11 -16 -4 -40q-1 -1 -9 -11q-1 1 -3.5 3t-4.5 3q-27 20 -14 47t44 23q-2 -14 -2 -21q-5 -2 -7 -4zM737 1271q-8 7 -15 22q2 -4 7 -11.5t8 -10.5zM779 1284q1 -2 6 -7q0 2 2 12q-3 -3 -8 -5zM437 689q15 27 35 72q2 3 11.5 20t14.5 26 q2 1 6.5 3t6.5 4l261 559q18 39 57 39q27 0 47.5 -19t20.5 -45q0 -16 -7 -29l-70 -149q10 4 18 3q-14 -24 -33.5 -62t-21.5 -42q-105 -188 -155 -332q-13 -37 -36 -125q-11 -3 -14 -17q-14 -78 -79 -167q-16 -8 -27 -5l-57 -122q13 0 27 -9q13 -19 7.5 -40.5t-22 -27.5 t-37.5 7q-2 1 -3 2q-2 1 -3 2l-160 -343q-18 -39 -57 -39q-27 0 -47.5 19t-20.5 45q0 16 7 29l74 160q-8 0 -9 1q15 29 39.5 78.5t31.5 63.5q10 18 29 57.5t35 70.5t33 58q8 13 27 42.5t29 46t23.5 42.5t21.5 50q0 12 -8.5 19t-18.5 4q1 3 3 7l2 6q1 2 14 31q2 1 3 3t2 3z M698 787q-3 -6 -10 -15.5t-10 -14.5q30 79 78 177q-9 -20 -58 -147z" />
<glyph unicode="&#xd9;" d="M1011 781q1 -28 5.5 -108.5t4 -135t-9.5 -107.5q2 -14 11.5 -19t18.5 1q-3 -435 -426 -435q-191 0 -305 119q-114 120 -114 321q-17 13 -18 34v5q-17 11 -20 35q0 25 6 75.5t7 76.5q4 25 25 34v258l7 7q25 41 13 66q3 9 8 14q12 16 0 28t-28 0q-5 -5 -11 -17 q-47 22 -57 29q-23 6 -28 -13q-9 5 -14 14q-30 13 -30 59q0 65 65 65h5q3 19 24 30q-2 -15 14 -19q1 -1 3 -1q10 -1 16 3h10q72 -47 132 -51q16 3 18 16.5t-11 21.5h115q65 0 65 -65t-65 -65h-8q-6 -21 -34 -27q-6 0 -15.5 -1t-15.5 -2q-6 11 -18 11q-3 0 -4 -1 q-2 0 -4 -1.5t-3 -1.5l-5 -5q-1 -1 -3 -8q-8 -2 -11 -2v-21q6 3 11 4v-142q2 -12 8 -16q-7 -22 -19 -49v-115q-13 -3 -16 -18v-21q-4 -4 -6 -10v59q-6 17 -21 16.5t-19 -18.5q0 -58 3 -172t4 -171q2 -16 14 -20q2 -9 7.5 -38.5t8.5 -42t11 -36t18 -35.5t27.5 -23.5 t39.5 -16.5q1 -1 4 -1q26 -35 76 -52q18 -2 23 11.5t-9 25.5q-37 11 -63 47q73 -57 187 -57q155 0 226 74q52 55 66 163q9 11 2 23l1 22q-6 -4 -14 -5q-1 2 -5 9q0 1 0.5 3t0.5 3v53q-6 16 -19 16q-1 7 -1 17q-6 17 -22 16q-9 9 -11 29v14q6 29 31 35.5t41 -15.5v429 q-32 26 -32 29q-2 2 -9 6q-10 7 -11 9q-11 8 -16 20h-68q-65 0 -65 65t65 65h331q65 0 65 -65l-60 -65q-2 -6 -52 -99q-9 -10 -18 -15v-147q-8 6 -18 1.5t-12 -16.5zM809 723q14 -23 6 -45t-29 -25q-19 29 -20 63q-6 10 -7 11q24 13 50 -4zM311 356q-1 121 -6 248 q2 -37 11 -107t10 -78v-27q2 -26 0 -51q-6 8 -10 12q-3 1 -5 3zM181 548q-1 -1 -4 -1q-13 -5 -15.5 -15.5t7.5 -20.5q6 -6 24 -8q20 -2 24 15.5t-16 23.5h-3q-6 6 -17 6zM384 969v-33q-1 -16 -7 -25v72q3 -4 7 -14zM657 1581q11 -19 7.5 -38t-18.5 -28q0 -9 -5 -21l171 -98 q18 -10 18 -28q0 -35 -42 -35q-9 0 -18 3l-241 91q-14 -9 -31 -6q-66 15 -138 66l-6 6l-91 35q-12 4 -12 26q0 14 52 96q9 13 26 13q18 0 46 -16l150 -87q32 17 65 7q9 17 26.5 22t40.5 -8z" />
<glyph unicode="&#xda;" d="M1011 781q2 12 12 16.5t18 -1.5v147q9 5 18 15q50 93 52 99l60 65q0 65 -65 65h-331q-65 0 -65 -65t65 -65h68q5 -12 16 -20q-5 -1 7 -7q1 -1 4 -2q7 -4 9 -6q0 -3 32 -29v-429q-16 22 -41 15.5t-31 -35.5v-14q2 -20 11 -29q16 1 22 -16q0 -10 1 -17q13 0 19 -16v-53 q0 -1 -0.5 -3t-0.5 -3q4 -7 5 -9q8 1 14 5l-1 -22q7 -12 -2 -23q-14 -108 -66 -163q-71 -74 -226 -74q-114 0 -187 57q26 -36 63 -47q14 -12 9 -25.5t-23 -11.5q-50 17 -76 52q-3 0 -4 1q-22 5 -39.5 16.5t-27.5 23.5t-18 35.5t-11 36t-8.5 42t-7.5 38.5q-12 4 -14 20 q-1 57 -4 171t-3 172q4 18 19 18.5t21 -16.5v-59q2 6 6 10v21q3 15 16 18v115q12 27 19 49q-6 4 -8 16v142q-5 -1 -11 -4v21q3 0 11 2q2 7 3 8l5 5q1 0 3 1.5t4 1.5q1 1 4 1q12 0 18 -11q6 1 15.5 2t15.5 1q28 6 34 27h8q65 0 65 65t-65 65h-115q13 -8 11 -21.5t-18 -16.5 q-60 4 -132 51h-10q-6 -4 -16 -3q-2 0 -3 1q-16 4 -14 19q-21 -11 -24 -30h-5q-65 0 -65 -65q0 -46 30 -59q5 -9 14 -14q5 19 28 13q10 -7 57 -29q6 12 11 17q16 12 28 0t0 -28q-5 -5 -8 -14q12 -25 -13 -66l-7 -7v-258q-21 -9 -25 -34q-1 -26 -7 -76.5t-6 -75.5 q3 -24 20 -35v-5q1 -21 18 -34q0 -201 114 -321q114 -119 305 -119q423 0 426 435q-9 -6 -18.5 -1t-11.5 19q9 53 9.5 107.5t-4 135t-5.5 108.5zM809 723q-26 17 -50 4q1 -1 7 -11q1 -34 20 -63q21 3 29 25t-6 45zM311 356q2 -2 5 -3q4 -4 10 -12q2 25 0 51v27q-1 8 -10 78 t-11 107q5 -127 6 -248zM181 548q11 0 17 -6h3q20 -6 16 -23.5t-24 -15.5q-18 2 -24 8q-10 10 -7.5 20.5t15.5 15.5q3 0 4 1zM384 936v33q-4 10 -7 14v-72q6 9 7 25zM872 1445q-8 1 -10.5 7t2.5 10l-200 -76q-3 -4 -7 -17t-11 -16q-30 -11 -40 11l-147 -55q-9 -3 -18 -3 q-43 0 -43 35q0 18 19 28l102 59q74 16 128 61q5 7 0 13l171 98q9 -4 15 7l1 2l10 6q8 1 22 1q13 2 7 14q15 6 27 6q18 0 25 -13q11 -17 18 -30q-11 -13 -11 -37q1 -7 6 -9.5t9.5 0t4.5 9.5q0 14 2 18q23 -38 23 -47q0 -21 -11 -26l-95 -36h1q38 -3 44 -5q12 -10 -1 -18 q-7 -3 -31 -3q-7 1 -10 6h-2zM741 1516q29 3 54 26q6 8 0 14t-14 0q-20 -19 -43 -20q-8 -4 -7.5 -11.5t10.5 -8.5zM513 1482q10 0 11.5 -9t-8.5 -11h-6q-7 1 -9.5 6t0 9.5t9.5 4.5h3zM637 1372q0 1 2 5l-14 -5v-1q9 0 12 1z" />
<glyph unicode="&#xdb;" d="M1011 781q2 12 12 16.5t18 -1.5v147q9 5 18 15q50 93 52 99l60 65q0 65 -65 65h-331q-65 0 -65 -65t65 -65h68q5 -12 16 -20q-5 -1 7 -7q1 -1 4 -2q7 -4 9 -6q0 -3 32 -29v-429q-16 22 -41 15.5t-31 -35.5v-14q2 -20 11 -29q16 1 22 -16q0 -10 1 -17q13 0 19 -16v-53 q0 -1 -0.5 -3t-0.5 -3q4 -7 5 -9q8 1 14 5l-1 -22q7 -12 -2 -23q-14 -108 -66 -163q-71 -74 -226 -74q-114 0 -187 57q26 -36 63 -47q14 -12 9 -25.5t-23 -11.5q-50 17 -76 52q-3 0 -4 1q-22 5 -39.5 16.5t-27.5 23.5t-18 35.5t-11 36t-8.5 42t-7.5 38.5q-12 4 -14 20 q-1 57 -4 171t-3 172q4 18 19 18.5t21 -16.5v-59q2 6 6 10v21q3 15 16 18v115q12 27 19 49q-6 4 -8 16v142q-5 -1 -11 -4v21q3 0 11 2q2 7 3 8l5 5q1 0 3 1.5t4 1.5q1 1 4 1q12 0 18 -11q6 1 15.5 2t15.5 1q28 6 34 27h8q65 0 65 65t-65 65h-115q13 -8 11 -21.5t-18 -16.5 q-60 4 -132 51h-10q-6 -4 -16 -3q-2 0 -3 1q-16 4 -14 19q-21 -11 -24 -30h-5q-65 0 -65 -65q0 -46 30 -59q5 -9 14 -14q5 19 28 13q10 -7 57 -29q6 12 11 17q16 12 28 0t0 -28q-5 -5 -8 -14q12 -25 -13 -66l-7 -7v-258q-21 -9 -25 -34q-1 -26 -7 -76.5t-6 -75.5 q3 -24 20 -35v-5q1 -21 18 -34q0 -201 114 -321q114 -119 305 -119q423 0 426 435q-9 -6 -18.5 -1t-11.5 19q9 53 9.5 107.5t-4 135t-5.5 108.5zM809 723q-26 17 -50 4q1 -1 7 -11q1 -34 20 -63q21 3 29 25t-6 45zM311 356q2 -2 5 -3q4 -4 10 -12q2 25 0 51v27q-1 8 -10 78 t-11 107q5 -127 6 -248zM181 548q11 0 17 -6h3q20 -6 16 -23.5t-24 -15.5q-18 2 -24 8q-10 10 -7.5 20.5t15.5 15.5q3 0 4 1zM384 936v33q-4 10 -7 14v-72q6 9 7 25zM804 1515q9 -29 50 -64q18 -8 27 5l37 -28q7 4 15 5h6q13 -4 15.5 -16t-6.5 -19q11 -16 11 -30 q0 -28 -33 -28q-19 0 -45 14l-267 144l-67 -36q8 -2 12 -5q11 -13 0.5 -27t-25.5 -3q-15 9 -7 24l-180 -97q-26 -14 -45 -14q-33 0 -33 28q0 29 38 58l31 25q15 3 26 7q-3 -4 -3 -7q-5 -21 12.5 -26.5t25.5 14.5q2 6 11 8q13 3 17 15t-4 19q27 14 43 28q18 25 -9 35l80 63 q-9 8 -4 20.5t21 13.5h12q5 -1 9 -5q17 10 31 10h16q20 0 50 -24l131 -104l1 -1v-2z" />
<glyph unicode="&#xdc;" d="M1011 781q2 12 12 16.5t18 -1.5v147q9 5 18 15q50 93 52 99l60 65q0 65 -65 65h-331q-65 0 -65 -65t65 -65h68q5 -12 16 -20q-5 -1 7 -7q1 -1 4 -2q7 -4 9 -6q0 -3 32 -29v-429q-16 22 -41 15.5t-31 -35.5v-14q2 -20 11 -29q16 1 22 -16q0 -10 1 -17q13 0 19 -16v-53 q0 -1 -0.5 -3t-0.5 -3q4 -7 5 -9q8 1 14 5l-1 -22q7 -12 -2 -23q-14 -108 -66 -163q-71 -74 -226 -74q-114 0 -187 57q26 -36 63 -47q14 -12 9 -25.5t-23 -11.5q-50 17 -76 52q-3 0 -4 1q-22 5 -39.5 16.5t-27.5 23.5t-18 35.5t-11 36t-8.5 42t-7.5 38.5q-12 4 -14 20 q-1 57 -4 171t-3 172q4 18 19 18.5t21 -16.5v-59q2 6 6 10v21q3 15 16 18v115q12 27 19 49q-6 4 -8 16v142q-5 -1 -11 -4v21q3 0 11 2q2 7 3 8l5 5q1 0 3 1.5t4 1.5q1 1 4 1q12 0 18 -11q6 1 15.5 2t15.5 1q28 6 34 27h8q65 0 65 65t-65 65h-115q13 -8 11 -21.5t-18 -16.5 q-60 4 -132 51h-10q-6 -4 -16 -3q-2 0 -3 1q-16 4 -14 19q-21 -11 -24 -30h-5q-65 0 -65 -65q0 -46 30 -59q5 -9 14 -14q5 19 28 13q10 -7 57 -29q6 12 11 17q16 12 28 0t0 -28q-5 -5 -8 -14q12 -25 -13 -66l-7 -7v-258q-21 -9 -25 -34q-1 -26 -7 -76.5t-6 -75.5 q3 -24 20 -35v-5q1 -21 18 -34q0 -201 114 -321q114 -119 305 -119q423 0 426 435q-9 -6 -18.5 -1t-11.5 19q9 53 9.5 107.5t-4 135t-5.5 108.5zM809 723q-26 17 -50 4q1 -1 7 -11q1 -34 20 -63q21 3 29 25t-6 45zM311 356q2 -2 5 -3q4 -4 10 -12q2 25 0 51v27q-1 8 -10 78 t-11 107q5 -127 6 -248zM181 548q11 0 17 -6h3q20 -6 16 -23.5t-24 -15.5q-18 2 -24 8q-10 10 -7.5 20.5t15.5 15.5q3 0 4 1zM384 936v33q-4 10 -7 14v-72q6 9 7 25zM480 1485q-13 16 -14 42q-2 8 -10 8.5t-10 -8.5q2 -40 31 -67q-7 -32 -33 -57q-35 -35 -85 -35h-9v2 q-1 1 -1 2q-12 22 -19 26q-13 6 -27.5 7.5t-25.5 -6.5l-4 4q-35 37 -35 86q0 50 35 85q36 36 86 36q51 0 85 -36q36 -34 36 -85v-4zM990 1489q0 -13 -3 -27q-1 14 -5 42q-3 6 -9 9q-3 0 -4 1q-11 0 -11 -10q0 -4 -1 -12.5t-1 -12.5q2 -11 10 -11q2 -25 -1 -47q-9 5 -14 -4 q-15 -27 -20 -33q-28 -16 -62 -16h-3q-4 1 -12 4t-11 4q-20 6 -37 9q-13 8 -23 18q-35 37 -35 86q0 9 2 25q4 -40 40 -40q6 1 8 5l3 6q1 -6 1 -12q1 -7 6 -9.5t9.5 0t4.5 9.5q0 3 -0.5 21.5t-1.5 26.5t-4 22.5t-8.5 24t-13.5 16.5q34 26 75 26q25 0 46 -9h7q11 0 11 -10 q14 -10 21 -17q36 -34 36 -85zM457 1611h-3q-35 5 -42 23q-5 -8 -12.5 -5.5t-5.5 13.5q6 37 35 25q25 -11 35 -38l1 -3v-3q4 -10 -8 -12zM796 1535q-6 -2 -6 -8q-2 -26 -6 -33q-15 0 -13.5 32t14.5 41q6 -2 11 -32zM380 1604q-5 4 -10.5 2t-6.5 -7.5t4 -9.5q7 -5 12.5 1.5 t0.5 13.5zM919 1331q4 -5 2 -10.5t-7.5 -6.5t-9.5 4q-5 7 1.5 12.5t13.5 0.5zM416 1651q-2 -2 -2 -7q6 9 16 -1q0 -1 -1 -1q6 -4 8 -5q-12 14 -21 14z" />
<glyph unicode="&#xdd;" d="M661 677q-2 -18 -16 -21.5t-21 9.5h-4q-20 -2 -39 10t-31 33q-11 -2 -18 8q-129 141 -144 251q2 9 7 14l-28 48q3 0 8.5 0.5t9.5 0.5q26 4 34 27h49q65 0 65 65q0 61 -58 65q-2 -14 -18 -18h-53q-20 3 -21 18h-47q-2 -14 -18 -18q-3 0 -35.5 -1t-60.5 -1t-65 2t-60 8 q-24 -17 -24 -55q0 -65 65 -65h39q12 -25 46 -40l54 -92q78 -60 160.5 -179.5t104.5 -200.5q-2 -14 -11 -19.5t-18 -0.5l19 -33q8 6 17 2.5t13 -15.5q-2 -41 -8.5 -114.5t-8.5 -97.5v-90q-5 1 -5 2q-62 0 -77 -49h-138q-65 0 -65 -65t65 -65h28q41 0 58 2q0 1 1 1 q126 18 232 -3h252q65 0 65 65t-65 65h-127q-7 6 -18 9q-24 3 -58 25q12 10 14 33q-1 7 -1.5 20t-0.5 20q26 -8 39.5 17.5t-2.5 51.5q-20 14 -42 7q0 7 -5 74.5t-7 103.5l49 82q9 53 45.5 124t82.5 129l12 24q3 6 20 52t33 62q11 9 21.5 5.5t12.5 -15.5l61 103h58 q65 0 65 65t-65 65h-83q2 -1 3 -3t2 -3q3 -10 -2 -18h-40q7 20 -15 26h-106q-13 -1 -20 -10q-2 1 -4.5 1.5t-5.5 1t-5 0.5q-8 0 -13 5q-63 -1 -63 -65q0 -62 58 -65q6 -22 26 -31q1 -1 8 -3q3 -14 -3 -46q9 -9 3 -23q-15 -23 -38 -76t-47.5 -94t-55.5 -61q-11 -22 -24 -35 q3 -6 3 -11zM358 787l142 -241q-30 101 -142 241zM439 924q14 -39 52 -94v4q-1 1 -2 3q-1 1 -2 3q-1 1 -1 2q-1 0 -1 2q-21 33 -25 48q-1 1 -1 6q-7 15 -17 28q-2 -2 -3 -2zM872 1445q-8 1 -10.5 7t2.5 10l-200 -76q-3 -4 -7 -17t-11 -16q-30 -11 -40 11l-147 -55 q-9 -3 -18 -3q-43 0 -43 35q0 18 19 28l102 59q74 16 128 61q5 7 0 13l171 98q9 -4 15 7l1 2l10 6q8 1 22 1q13 2 7 14q15 6 27 6q18 0 25 -13q11 -17 18 -30q-11 -13 -11 -37q1 -7 6 -9.5t9.5 0t4.5 9.5q0 14 2 18q23 -38 23 -47q0 -21 -11 -26l-95 -36h1q38 -3 44 -5 q12 -10 -1 -18q-7 -3 -31 -3q-7 1 -10 6h-2zM741 1516q29 3 54 26q6 8 0 14t-14 0q-20 -19 -43 -20q-8 -4 -7.5 -11.5t10.5 -8.5zM513 1482q10 0 11.5 -9t-8.5 -11h-6q-7 1 -9.5 6t0 9.5t9.5 4.5h3zM637 1372q0 1 2 5l-14 -5v-1q9 0 12 1z" />
<glyph unicode="&#xe0;" d="M1091 -24q19 2 29 6q10 8 12 21q-1 13 -16 26q14 6 21 11q13 -16 13 -45q0 -65 -65 -65h-103q7 20 -15 27h-33q-14 -2 -19.5 -10t-1.5 -17q-24 2 -43 19l-6 6q6 6 8 18q0 1 2 9q1 0 5.5 0.5t6.5 0.5q18 4 18.5 19t-16.5 21q-29 -2 -41 -12q-14 3 -23 10 q-140 -105 -337 -105q-80 0 -140 19q7 13 -6 24q9 -3 10 -3q35 0 54 -5q10 -1 16 3q2 1 4 5l-4 -2q-1 -1 -4 -1q-34 2 -50.5 9.5t-29.5 24.5q-5 -4 -6 -9q-4 -10 2 -18q-8 2 -15 7q-11 7 -20.5 4t-11.5 -13q-16 7 -31 19q-103 73 -103 210q0 44 11 86q7 3 15.5 9.5t14 12 t13.5 14.5t12 13q11 14 4 25.5t-22 7.5q34 52 96 91q15 10 29 17q6 -18 27 -12q19 8 52.5 14.5t46.5 10.5q93 24 125 26q20 5 18 23h16q108 0 187 -19q-3 -3 -4 -10q3 -32 22 -51.5t51 -22.5q18 4 18.5 19t-16.5 21q-32 2 -35 35l18 -6v29q0 168 -155 201q-27 33 -79 39 q-11 -1 -14 -5q-26 9 -44 5q-26 -7 -53 -20l-52 -23q-71 -30 -108 -37q-25 -12 -13 -30q-11 -3 -20 -3q-26 0 -45.5 20.5t-19.5 47.5q0 32 28 51q56 41 123 63q-6 -9 -1 -18.5t19 -11.5q14 2 45 25q8 12 5 22q34 6 51 8q47 -2 92 6q121 0 204 -43q4 -6 8.5 -15.5t6.5 -12.5 q19 -26 51 -32q26 -14 32 -36q5 -12 13 -14q-10 -8 -6 -20t20 -14q7 -1 17 -11q19 -48 23 -104q-9 4 -17.5 -0.5t-10.5 -15.5q-1 -34 -7 -102t-6 -102q1 -15 13 -20v-46q2 -14 12 -19t18 1v-14q-8 -4 -10 -15v-46q2 -14 10 -18v-104h44l1 -4q0 -3 2 -5q8 -15 30 -16 q-3 -11 8 -22q2 -1 4.5 -3t3.5 -4q-6 -9 -1.5 -18.5t18.5 -11.5zM403 12q0 2 -0.5 8t0 10.5t4.5 6.5q2 2 17 -6.5t35.5 -19.5t30.5 -14q14 -2 20.5 8.5t0.5 20.5q22 -2 34 -2q47 0 93.5 14.5t73.5 40.5l73 69q14 25 29 92q2 9 7 27t7.5 33t0.5 29q-5 29 -58 54.5t-86 28.5 q-73 7 -139.5 0.5t-129.5 -38t-91 -86.5q-29 -31 -38 -54.5t-3 -69.5q2 -36 15 -43q9 -14 23 -23q-3 -2 -7.5 -6t-5.5 -4q-9 -15 0.5 -25.5t24.5 -4.5q12 -15 29 -3h9q-6 -14 -9 -38q3 -18 17.5 -20t22.5 15zM708 506q-10 8 -21 3.5t-12.5 -15t8.5 -18.5q15 -11 25.5 3 t-0.5 27zM640 1311q11 -19 7.5 -38t-18.5 -28q0 -9 -5 -21l171 -98q18 -10 18 -28q0 -35 -42 -35q-9 0 -18 3l-241 91q-14 -9 -31 -6q-66 15 -138 66l-6 6l-91 35q-12 4 -12 26q0 14 52 96q9 13 26 13q18 0 46 -16l150 -87q32 17 65 7q9 17 26.5 22t40.5 -8z" />
<glyph unicode="&#xe1;" d="M1091 -24q-14 2 -18.5 11.5t1.5 18.5q-1 2 -3.5 4t-4.5 3q-11 11 -8 22q-22 1 -30 16q-2 2 -2 6q-1 2 -1 3h-44v104q-8 4 -10 18v46q2 11 10 15v14q-8 -6 -18 -1t-12 19v46q-12 5 -13 20q0 34 6 102t7 102q2 11 10.5 15.5t17.5 0.5q-4 56 -23 104q-10 10 -17 11 q-16 2 -20 14t6 20q-8 2 -13 14q-6 22 -32 36q-32 6 -51 32q-2 3 -6.5 12.5t-8.5 15.5q-83 43 -204 43q-45 -8 -92 -6q-17 -2 -51 -8q3 -10 -5 -22q-31 -23 -45 -25q-14 2 -19 11.5t1 18.5q-67 -22 -123 -63q-28 -19 -28 -51q0 -27 19.5 -47.5t45.5 -20.5q9 0 20 3 q-12 18 13 30q37 7 108 37l52 23q27 13 53 20q18 4 44 -5q3 4 14 5q52 -6 79 -39q155 -33 155 -201v-29l-18 6q3 -33 35 -35q17 -6 16.5 -21t-18.5 -19q-32 3 -51 22.5t-22 51.5q1 8 4 10q-79 19 -187 19h-16q2 -18 -18 -23q-32 -2 -125 -26q-13 -4 -46.5 -10.5t-52.5 -14.5 q-21 -6 -27 12q-14 -7 -29 -17q-62 -39 -96 -91q15 4 22 -7.5t-4 -25.5q-4 -4 -12 -13t-13.5 -14.5t-14 -12t-15.5 -9.5q-11 -42 -11 -86q0 -137 103 -210q15 -12 31 -19q2 10 11.5 13t20.5 -4q7 -5 15 -7q-6 8 -2 18q1 5 6 9q13 -17 29.5 -24.5t50.5 -9.5q3 0 4 1l4 2 q-2 -4 -4 -5q-6 -4 -16 -3q-19 5 -54 5q-1 0 -10 3q13 -11 6 -24q60 -19 140 -19q197 0 337 105q9 -7 23 -10q12 10 41 12q17 -6 16.5 -21t-18.5 -19q-2 0 -6.5 -0.5t-5.5 -0.5q-2 -8 -2 -9q-2 -12 -8 -18l6 -6q19 -17 43 -19q-4 9 1.5 17t19.5 10h33q22 -7 15 -27h103 q65 0 65 65q0 29 -13 45q-7 -5 -21 -11q15 -13 16 -26q-2 -13 -12 -21q-10 -4 -29 -6zM403 12q-8 -17 -22.5 -15t-17.5 20q3 24 9 38h-9q-17 -12 -29 3q-15 -6 -24.5 4.5t-0.5 25.5q1 0 5.5 4t7.5 6q-14 9 -23 23q-13 7 -15 43q-6 46 3 69.5t38 54.5q28 55 91 86.5t129.5 38 t139.5 -0.5q33 -3 86 -28.5t58 -54.5q2 -14 -0.5 -29t-7.5 -33t-7 -27q-15 -67 -29 -92l-73 -69q-27 -26 -73.5 -40.5t-93.5 -14.5q-12 0 -34 2q6 -10 -0.5 -20.5t-20.5 -8.5q-10 3 -30.5 14t-35.5 19.5t-17 6.5q-4 -2 -4.5 -6.5t0 -10.5t0.5 -8zM708 506q11 -13 0.5 -27 t-25.5 -3q-11 7 -8.5 18.5t12.5 15t21 -3.5zM855 1175q-8 1 -10.5 7t2.5 10l-200 -76q-3 -4 -7 -17t-11 -16q-30 -11 -40 11l-147 -55q-9 -3 -18 -3q-43 0 -43 35q0 18 19 28l102 59q74 16 128 61q5 7 0 13l171 98q9 -4 15 7l1 2l10 6q8 1 22 1q13 2 7 14q15 6 27 6 q18 0 25 -13q10 -17 18 -30q-11 -13 -11 -37q1 -7 6 -9.5t9.5 0t4.5 9.5q0 14 2 18q23 -38 23 -47q0 -21 -11 -26l-95 -36h1q37 -3 44 -5q12 -10 -1 -18q-7 -3 -31 -3q-7 1 -10 6h-2zM724 1246q29 3 54 26q6 8 0 14t-14 0q-20 -19 -43 -20q-8 -4 -7.5 -11.5t10.5 -8.5z M496 1212q10 0 11.5 -9t-8.5 -11h-6q-7 1 -9.5 6t0 9.5t9.5 4.5h3zM620 1102q0 1 2 5l-14 -5v-1q9 0 12 1z" />
</font>
</defs>
</svg>
